<svg width="22" height="4" viewBox="0 0 22 4" fill="none" xmlns="http://www.w3.org/2000/svg">
<g opacity="0.5">
<path d="M2.61719 1.45187C2.61719 2.24301 2.10157 2.72117 1.25 2.72117H0.468755V3.82529H0V0.173862H1.28125C2.10156 0.173862 2.61719 0.652028 2.61719 1.45187ZM2.14844 1.45187C2.14844 0.930233 1.83594 0.625936 1.23438 0.625936H0.453126V2.26907H1.23438C1.83594 2.26907 2.14844 1.96481 2.14844 1.45187Z" fill="black"/>
<path d="M5.18751 2.15609V3.8253H4.77345V3.47755C4.6827 3.61042 4.56397 3.7164 4.42773 3.78614C4.29148 3.85589 4.14191 3.88724 3.9922 3.87746C3.4297 3.87746 3.07033 3.5384 3.07033 3.06023C3.07033 2.58207 3.32814 2.25171 4.07033 2.25171H4.77345V2.15609C4.77345 1.73009 4.55469 1.48664 4.10938 1.48664C3.8266 1.48528 3.55156 1.58934 3.32813 1.78223L3.14064 1.4084C3.43839 1.16349 3.80183 1.03786 4.17188 1.05194C4.77344 1.03456 5.18751 1.39972 5.18751 2.15609ZM4.73438 2.98199V2.60816H4.03907C3.59376 2.60816 3.46876 2.80812 3.46876 3.04286C3.46876 3.27759 3.6797 3.48625 4.01563 3.48625C4.17436 3.508 4.33507 3.47021 4.47232 3.37888C4.60958 3.28755 4.71554 3.14788 4.77345 2.98199H4.73438Z" fill="black"/>
<path d="M5.71094 3.52977L5.89844 3.13853C6.15575 3.32723 6.45747 3.42707 6.76563 3.42544C7.17969 3.42544 7.35937 3.28635 7.35937 3.05161C7.35937 2.42565 5.79687 2.96468 5.79687 1.86055C5.79687 1.37369 6.19532 1.03462 6.82813 1.03462C7.14482 1.0291 7.45727 1.11603 7.73437 1.28675L7.53906 1.67796C7.32578 1.53095 7.07896 1.45549 6.82813 1.46061C6.42969 1.46061 6.24219 1.6258 6.24219 1.84314C6.24219 2.49519 7.80469 1.96486 7.80469 3.03421C7.80469 3.53845 7.39062 3.86014 6.73437 3.86014C6.37086 3.86937 6.01358 3.75404 5.71094 3.52977Z" fill="black"/>
<path d="M8.05468 3.5297L8.24219 3.13846C8.50288 3.326 8.80676 3.42565 9.11718 3.42538C9.53125 3.42538 9.70312 3.28628 9.70312 3.05155C9.70312 2.42558 8.14062 2.96461 8.14062 1.86048C8.14062 1.37363 8.53906 1.03455 9.17968 1.03455C9.49629 1.02984 9.80857 1.11672 10.0859 1.28668L9.89062 1.67789C9.67406 1.53196 9.42502 1.45665 9.17188 1.46055C8.78125 1.46055 8.58594 1.62573 8.58594 1.84308C8.58594 2.49512 10.1484 1.96479 10.1484 3.03414C10.1484 3.53839 9.73437 3.86007 9.07031 3.86007C8.70958 3.86643 8.35555 3.75126 8.05468 3.5297Z" fill="black"/>
<path d="M14.4297 1.06066L13.5 3.82531H13.0703L12.3516 1.73878L11.625 3.83402H11.1953L10.2422 1.06066H10.6641L11.3906 3.26022L12.1719 1.06066H12.5859L13.3672 3.26892L14.1016 1.06066H14.4297Z" fill="black"/>
<path d="M14.5859 2.44296C14.5828 2.15853 14.6558 1.87948 14.7956 1.64131C14.9353 1.40313 15.1355 1.21658 15.3708 1.10534C15.606 0.994095 15.8657 0.963193 16.1168 1.01656C16.3679 1.06994 16.599 1.20516 16.7809 1.40507C16.9627 1.60498 17.087 1.86052 17.138 2.13925C17.1891 2.41798 17.1645 2.7073 17.0674 2.97044C16.9703 3.23357 16.8051 3.45864 16.5928 3.61704C16.3805 3.77545 16.1306 3.86005 15.875 3.86007C15.705 3.86856 15.5353 3.83785 15.3765 3.76987C15.2177 3.70188 15.0732 3.59809 14.9522 3.46502C14.8311 3.33194 14.7361 3.17246 14.6731 2.99657C14.6101 2.82069 14.5804 2.63221 14.5859 2.44296ZM16.7109 2.44296C16.7109 2.3208 16.6893 2.19985 16.6473 2.08699C16.6053 1.97412 16.5437 1.87157 16.4661 1.78519C16.3885 1.69881 16.2963 1.63027 16.1949 1.58352C16.0935 1.53677 15.9848 1.51271 15.875 1.51271C15.7652 1.51271 15.6565 1.53677 15.5551 1.58352C15.4537 1.63027 15.3615 1.69881 15.2839 1.78519C15.2063 1.87157 15.1447 1.97412 15.1027 2.08699C15.0607 2.19985 15.0391 2.3208 15.0391 2.44296C15.0391 2.56512 15.0607 2.6861 15.1027 2.79896C15.1447 2.91183 15.2063 3.01435 15.2839 3.10074C15.3615 3.18712 15.4537 3.25565 15.5551 3.3024C15.6565 3.34915 15.7652 3.37322 15.875 3.37322C15.9848 3.37322 16.0935 3.34915 16.1949 3.3024C16.2963 3.25565 16.3885 3.18712 16.4661 3.10074C16.5437 3.01435 16.6053 2.91183 16.6473 2.79896C16.6893 2.6861 16.7109 2.56512 16.7109 2.44296Z" fill="black"/>
<path d="M19.125 1.03457V1.52143H19.0234C18.9154 1.52105 18.8084 1.54562 18.7093 1.5936C18.6102 1.64157 18.5211 1.7119 18.4477 1.80015C18.3743 1.88839 18.3181 1.99263 18.2827 2.10627C18.2473 2.21991 18.2335 2.34048 18.2422 2.46036V3.83401H17.7891V1.06936H18.2188V1.53013C18.313 1.36138 18.4478 1.22545 18.6081 1.13784C18.7683 1.05022 18.9474 1.01444 19.125 1.03457Z" fill="black"/>
<path d="M22 0V3.8688H21.5703V3.43411C21.4674 3.58714 21.3325 3.70988 21.1773 3.7917C21.0221 3.87352 20.8513 3.91191 20.6797 3.90356C20.3602 3.87564 20.0619 3.7147 19.8443 3.45284C19.6268 3.19097 19.5059 2.84744 19.5059 2.4908C19.5059 2.13416 19.6268 1.79065 19.8443 1.52878C20.0619 1.26692 20.3602 1.10595 20.6797 1.07804C20.8454 1.07088 21.0102 1.10731 21.1609 1.18435C21.3116 1.26139 21.4438 1.37687 21.5469 1.52143V0H22ZM21.5547 2.48645C21.547 2.30455 21.4916 2.12918 21.3952 1.98202C21.2988 1.83487 21.1658 1.72242 21.0125 1.65863C20.8592 1.59484 20.6925 1.5825 20.533 1.62316C20.3735 1.66381 20.2283 1.75567 20.1152 1.88733C20.0022 2.019 19.9264 2.18468 19.8972 2.36384C19.8679 2.54301 19.8866 2.72778 19.9509 2.89525C20.0151 3.06271 20.1221 3.20551 20.2586 3.30593C20.3951 3.40635 20.5551 3.45999 20.7187 3.46019C20.838 3.47153 20.958 3.45222 21.0695 3.40375C21.181 3.35529 21.281 3.27897 21.3618 3.18067C21.4426 3.08237 21.502 2.96473 21.5354 2.83682C21.5689 2.70892 21.5755 2.57417 21.5547 2.44299V2.48645Z" fill="black"/>
</g>
</svg>
