<svg width="39" height="75" viewBox="0 0 39 75" fill="none" xmlns="http://www.w3.org/2000/svg">
<path d="M18.081 50.9244C18.081 50.6637 17.3 24.8498 13.5432 20.8083C9.93479 16.9145 5.77968 20.6692 5.60004 20.8083L5.10018 20.139C5.14704 20.0956 9.97384 15.7151 14.0821 20.139C18.0576 24.4327 18.8308 49.7685 18.862 50.8462L18.081 50.9244Z" fill="#407BFF"/>
<path d="M18.4325 56.0177C18.3231 54.7487 15.8472 24.9542 25.946 12.0472L26.5396 12.6209C16.6361 25.2323 19.1588 55.6179 19.2135 55.9221L18.4325 56.0177Z" fill="#407BFF"/>
<path d="M18.2216 52.7584L17.4405 52.6975C17.4405 52.3499 19.4166 17.8358 12.0514 10.3089L12.5825 9.66578C20.2132 17.4795 18.3075 51.3156 18.2216 52.7584Z" fill="#407BFF"/>
<path d="M19.2135 52.7322H18.4324C18.4324 51.7762 18.6746 29.3259 24.4386 25.6494C24.9937 25.2505 25.6265 25.0053 26.2841 24.9343C26.9418 24.8632 27.6052 24.9683 28.2188 25.2409C31.7179 26.8576 33.4439 33.7499 33.5142 34.0368L32.7332 34.2714C32.7332 34.2019 31.0384 27.492 27.8986 26.0492C27.3913 25.8201 26.8413 25.7327 26.2967 25.7949C25.7521 25.857 25.2294 26.0667 24.7745 26.4056C19.4244 29.8214 19.2135 52.541 19.2135 52.7322Z" fill="#407BFF"/>
<path d="M16.9563 52.7496L16.1753 52.6975C16.1753 52.5237 17.0344 35.045 12.809 28.9001C11.7936 27.4399 10.708 26.7359 9.55988 26.8315C6.82625 27.0401 4.51439 31.5249 4.49877 31.5684L3.81145 31.1425C3.9208 30.9426 6.34982 26.2057 9.50521 25.9276C10.9267 25.8146 12.2466 26.6229 13.4104 28.3438C17.8389 34.7756 16.9953 52.0195 16.9563 52.7496Z" fill="#407BFF"/>
<path d="M17.6983 55.1485C17.5889 53.4102 14.9256 13.4292 19.6274 6.31954L20.2523 6.84104C15.7222 13.6639 18.4559 54.6444 18.4793 55.079L17.6983 55.1485Z" fill="#407BFF"/>
<path d="M29.4294 29.3868C29.4294 29.3868 26.6255 30.5428 27.4612 33.2633C28.2969 35.9837 37.1773 40.4598 37.1773 40.4598C37.1773 40.4598 40.8951 36.6616 37.4819 30.4907C34.0688 24.3197 29.5075 27.4399 29.4294 29.3868Z" fill="#407BFF"/>
<path opacity="0.2" d="M29.4294 29.3868C29.4294 29.3868 26.6255 30.5428 27.4612 33.2633C28.2969 35.9837 37.1773 40.4598 37.1773 40.4598C37.1773 40.4598 40.8951 36.6616 37.4819 30.4907C34.0688 24.3197 29.5075 27.4399 29.4294 29.3868Z" fill="white"/>
<path d="M17.2218 24.2066C17.2218 24.2066 20.2132 24.0676 20.346 26.9358C20.4788 29.804 13.9024 37.7654 13.9024 37.7654C13.9024 37.7654 9.15374 35.862 10.1691 28.7002C11.1844 21.5383 16.4721 22.4422 17.2218 24.2066Z" fill="#407BFF"/>
<path opacity="0.2" d="M17.2218 24.2066C17.2218 24.2066 20.2132 24.0676 20.346 26.9358C20.4788 29.804 13.9024 37.7654 13.9024 37.7654C13.9024 37.7654 9.15374 35.862 10.1691 28.7002C11.1844 21.5383 16.4721 22.4422 17.2218 24.2066Z" fill="white"/>
<path d="M14.6835 10.474C14.6835 10.474 16.6829 10.2306 16.5189 8.88344C16.3549 7.53626 8.76322 4.05096 4.28788 9.67438C4.28788 9.67438 7.15429 15.1587 11.3172 15.2283C15.4801 15.2978 14.6835 10.474 14.6835 10.474Z" fill="#407BFF"/>
<path opacity="0.2" d="M14.6835 10.474C14.6835 10.474 16.6829 10.2306 16.5189 8.88344C16.3549 7.53626 8.76322 4.05096 4.28788 9.67438C4.28788 9.67438 7.15429 15.1587 11.3172 15.2283C15.4801 15.2978 14.6835 10.474 14.6835 10.474Z" fill="white"/>
<path d="M18.4325 7.18865C18.4325 7.18865 16.6283 8.16211 16.0893 6.91922C15.5504 5.67633 20.3772 -1.77232 26.852 0.391872C26.852 0.391872 27.0238 6.73668 23.5404 9.23984C20.057 11.743 18.4325 7.18865 18.4325 7.18865Z" fill="#407BFF"/>
<path opacity="0.2" d="M18.4325 7.18865C18.4325 7.18865 16.6283 8.16211 16.0893 6.91922C15.5504 5.67633 20.3772 -1.77232 26.852 0.391872C26.852 0.391872 27.0238 6.73668 23.5404 9.23984C20.057 11.743 18.4325 7.18865 18.4325 7.18865Z" fill="white"/>
<path d="M8.95848 28.2917C8.95848 28.2917 10.3331 27.0575 8.84914 26.4491C7.36517 25.8407 0.0702932 26.0232 0 34.0542C0 34.0542 8.48986 35.6273 9.53645 32.5679C10.583 29.5085 8.95848 28.2917 8.95848 28.2917Z" fill="#407BFF"/>
<path opacity="0.2" d="M8.95848 28.2917C8.95848 28.2917 10.3331 27.0575 8.84914 26.4491C7.36517 25.8407 0.0702932 26.0232 0 34.0542C0 34.0542 8.48986 35.6273 9.53645 32.5679C10.583 29.5085 8.95848 28.2917 8.95848 28.2917Z" fill="white"/>
<path d="M26.2428 10.2742C26.2428 10.2742 24.8604 9.03129 26.3522 8.43158C27.8439 7.83186 35.1232 7.997 35.2013 16.0367C35.2013 16.0367 26.7114 17.6011 25.657 14.5417C24.6026 11.4823 26.2428 10.2742 26.2428 10.2742Z" fill="#407BFF"/>
<path opacity="0.2" d="M26.2428 10.2742C26.2428 10.2742 24.8604 9.03129 26.3522 8.43158C27.8439 7.83186 35.1232 7.997 35.2013 16.0367C35.2013 16.0367 26.7114 17.6011 25.657 14.5417C24.6026 11.4823 26.2428 10.2742 26.2428 10.2742Z" fill="white"/>
<path d="M21.7831 16.7406C21.7831 16.7406 21.6581 15.237 22.7516 15.828C23.845 16.419 27.6409 20.9821 23.7044 25.3105C23.7044 25.3105 18.4012 20.9647 19.3541 18.6614C20.3069 16.3582 21.7831 16.7406 21.7831 16.7406Z" fill="#407BFF"/>
<path opacity="0.2" d="M21.7831 16.7406C21.7831 16.7406 21.6581 15.237 22.7516 15.828C23.845 16.419 27.6409 20.9821 23.7044 25.3105C23.7044 25.3105 18.4012 20.9647 19.3541 18.6614C20.3069 16.3582 21.7831 16.7406 21.7831 16.7406Z" fill="white"/>
<path d="M7.72446 18.8874C7.72446 18.8874 8.55236 17.688 7.34175 17.5402C6.13115 17.3925 0.741995 18.9917 2.0307 24.9889C2.0307 24.9889 8.60703 24.4413 8.8882 21.9468C9.16937 19.4524 7.72446 18.8874 7.72446 18.8874Z" fill="#407BFF"/>
<path opacity="0.2" d="M7.72446 18.8874C7.72446 18.8874 8.55236 17.688 7.34175 17.5402C6.13115 17.3925 0.741995 18.9917 2.0307 24.9889C2.0307 24.9889 8.60703 24.4413 8.8882 21.9468C9.16937 19.4524 7.72446 18.8874 7.72446 18.8874Z" fill="white"/>
<path d="M29.9605 75H7.3808L4.94397 47.4913H32.3896L29.9605 75Z" fill="#407BFF"/>
<path opacity="0.5" d="M29.9605 75H7.3808L4.94397 47.4913H32.3896L29.9605 75Z" fill="white"/>
<path d="M33.6002 44.4579H3.74117V50.5246H33.6002V44.4579Z" fill="#407BFF"/>
<path opacity="0.2" d="M33.6002 44.4579H3.74117V50.5246H33.6002V44.4579Z" fill="white"/>
</svg>
