<svg width="43" height="4" viewBox="0 0 43 4" fill="none" xmlns="http://www.w3.org/2000/svg">
<g opacity="0.2">
<path d="M3.21118 1.51746C3.18815 1.79357 3.07347 2.05764 2.88136 2.27695C2.68925 2.49626 2.42817 2.66114 2.1305 2.75116C1.83282 2.84117 1.51164 2.85235 1.20681 2.78331C0.901974 2.71427 0.626886 2.56806 0.415668 2.36279C0.20445 2.15753 0.0664001 1.90223 0.0186264 1.62859C-0.0291473 1.35495 0.0154566 1.075 0.146921 0.823455C0.278384 0.571909 0.490926 0.359844 0.758167 0.213551C1.02541 0.067257 1.33559 -0.00682675 1.65026 0.000494699C2.08507 0.021803 2.4928 0.193027 2.78501 0.477006C3.07722 0.760984 3.23034 1.13483 3.21118 1.51746Z" fill="white"/>
<path d="M8.18272 1.53811C8.19807 1.73163 8.16799 1.92583 8.09434 2.10868C8.0207 2.29153 7.90506 2.4591 7.75463 2.60096C7.60419 2.74282 7.42218 2.85595 7.21991 2.93329C7.01764 3.01064 6.79943 3.05056 6.57887 3.05056C6.3583 3.05056 6.1401 3.01064 5.93782 2.93329C5.73555 2.85595 5.55354 2.74282 5.4031 2.60096C5.25267 2.4591 5.13704 2.29153 5.06339 2.10868C4.98975 1.92583 4.95967 1.73163 4.97503 1.53811C4.95967 1.3446 4.98975 1.15038 5.06339 0.967528C5.13704 0.784678 5.25267 0.617105 5.4031 0.475244C5.55354 0.333382 5.73555 0.220258 5.93782 0.142913C6.1401 0.0655684 6.3583 0.0256499 6.57887 0.0256499C6.79943 0.0256499 7.01764 0.0655684 7.21991 0.142913C7.42218 0.220258 7.60419 0.333382 7.75463 0.475244C7.90506 0.617105 8.0207 0.784678 8.09434 0.967528C8.16799 1.15038 8.19807 1.3446 8.18272 1.53811Z" fill="white"/>
<path d="M13.162 1.55875C13.139 1.83485 13.0243 2.09893 12.8322 2.31824C12.6401 2.53755 12.379 2.70243 12.0814 2.79244C11.7837 2.88246 11.4625 2.89364 11.1577 2.8246C10.8528 2.75556 10.5777 2.60935 10.3665 2.40408C10.1553 2.19881 10.0173 1.94351 9.96949 1.66987C9.92171 1.39623 9.96632 1.11628 10.0978 0.864739C10.2292 0.613193 10.4418 0.401128 10.709 0.254835C10.9763 0.108541 11.2865 0.0344573 11.6011 0.0417788C12.0352 0.064825 12.4417 0.236553 12.7335 0.520133C13.0253 0.803713 13.1792 1.17658 13.162 1.55875Z" fill="white"/>
<path d="M18.1336 1.57951C18.1105 1.85561 17.9959 2.11969 17.8037 2.339C17.6116 2.55831 17.3506 2.72319 17.0529 2.81321C16.7552 2.90322 16.434 2.9144 16.1292 2.84536C15.8244 2.77632 15.5493 2.63011 15.3381 2.42484C15.1268 2.21957 14.9888 1.9643 14.941 1.69066C14.8932 1.41702 14.9379 1.13705 15.0693 0.885503C15.2008 0.633958 15.4133 0.421892 15.6805 0.275599C15.9478 0.129305 16.258 0.0552215 16.5727 0.0625429C17.0067 0.0855892 17.4133 0.257317 17.7051 0.540897C17.9969 0.824477 18.1507 1.19734 18.1336 1.57951Z" fill="white"/>
<path d="M23.1051 1.59317C23.0836 1.86968 22.9701 2.13453 22.7788 2.3548C22.5876 2.57507 22.3269 2.74104 22.0292 2.83208C21.7316 2.92313 21.4101 2.93524 21.1047 2.8669C20.7993 2.79856 20.5234 2.6528 20.3115 2.44772C20.0995 2.24264 19.9607 1.98729 19.9124 1.71341C19.864 1.43953 19.9083 1.15921 20.0396 0.907271C20.171 0.655331 20.3836 0.442893 20.6511 0.296362C20.9186 0.149831 21.2292 0.0756507 21.5442 0.0830757C21.9769 0.106114 22.3822 0.276889 22.6738 0.558979C22.9654 0.841069 23.1201 1.21217 23.1051 1.59317Z" fill="white"/>
<path d="M28.0844 1.61368C28.0631 1.88876 27.9508 2.15235 27.7614 2.37204C27.5719 2.59172 27.3136 2.75792 27.0181 2.85014C26.7227 2.94236 26.4031 2.9566 26.0985 2.89111C25.794 2.82562 25.5179 2.68325 25.3042 2.48153C25.0904 2.27981 24.9484 2.02754 24.8956 1.75576C24.8428 1.48398 24.8815 1.20456 25.0069 0.951866C25.1324 0.699175 25.339 0.484235 25.6016 0.333521C25.8641 0.182807 26.171 0.10288 26.4845 0.103581C26.9241 0.117894 27.3393 0.284875 27.6392 0.567922C27.9391 0.850969 28.0992 1.22701 28.0844 1.61368Z" fill="white"/>
<path d="M33.056 1.6341C33.0713 1.82761 33.0412 2.02183 32.9676 2.20468C32.8939 2.38753 32.7783 2.55511 32.6279 2.69697C32.4774 2.83883 32.2954 2.95195 32.0931 3.0293C31.8909 3.10664 31.6727 3.14654 31.4521 3.14654C31.2315 3.14654 31.0133 3.10664 30.8111 3.0293C30.6088 2.95195 30.4268 2.83883 30.2764 2.69697C30.1259 2.55511 30.0103 2.38753 29.9366 2.20468C29.863 2.02183 29.8329 1.82761 29.8483 1.6341C29.8329 1.44058 29.863 1.24636 29.9366 1.06351C30.0103 0.880661 30.1259 0.713088 30.2764 0.571226C30.4268 0.429365 30.6088 0.316262 30.8111 0.238917C31.0133 0.161572 31.2315 0.121654 31.4521 0.121654C31.6727 0.121654 31.8909 0.161572 32.0931 0.238917C32.2954 0.316262 32.4774 0.429365 32.6279 0.571226C32.7783 0.713088 32.8939 0.880661 32.9676 1.06351C33.0412 1.24636 33.0713 1.44058 33.056 1.6341Z" fill="white"/>
<path d="M38.0274 1.6547C38.0061 1.92978 37.8939 2.19339 37.7044 2.41308C37.515 2.63276 37.2566 2.79894 36.9612 2.89116C36.6657 2.98338 36.3461 2.99762 36.0415 2.93213C35.737 2.86664 35.4609 2.72427 35.2472 2.52255C35.0335 2.32083 34.8915 2.06856 34.8387 1.79678C34.7858 1.525 34.8245 1.24558 34.95 0.992885C35.0754 0.740194 35.2821 0.525253 35.5446 0.374539C35.8071 0.223825 36.114 0.14392 36.4275 0.144621C36.8671 0.158934 37.2823 0.325894 37.5822 0.608941C37.8821 0.891988 38.0422 1.26803 38.0274 1.6547Z" fill="white"/>
<path d="M42.999 1.67523C42.9775 1.95174 42.864 2.21659 42.6727 2.43686C42.4815 2.65712 42.2208 2.8231 41.9232 2.91414C41.6255 3.00519 41.304 3.01732 40.9986 2.94898C40.6932 2.88064 40.4174 2.73486 40.2054 2.52978C39.9934 2.3247 39.8546 2.06935 39.8063 1.79547C39.758 1.52159 39.8022 1.24127 39.9336 0.98933C40.0649 0.73739 40.2775 0.524952 40.545 0.378421C40.8125 0.23189 41.1231 0.15773 41.4381 0.165155C41.8708 0.188194 42.2761 0.358948 42.5677 0.641038C42.8593 0.923128 43.014 1.29423 42.999 1.67523Z" fill="white"/>
</g>
</svg>
