<svg width="32" height="32" viewBox="0 0 32 32" fill="none" xmlns="http://www.w3.org/2000/svg">
<path d="M16 17.3335C14.2319 17.3335 12.5362 16.6311 11.286 15.3809C10.0357 14.1306 9.33333 12.4349 9.33333 10.6668H12C12 11.7277 12.4214 12.7451 13.1716 13.4953C13.9217 14.2454 14.9391 14.6668 16 14.6668C17.0609 14.6668 18.0783 14.2454 18.8284 13.4953C19.5786 12.7451 20 11.7277 20 10.6668H22.6667C22.6667 12.4349 21.9643 14.1306 20.714 15.3809C19.4638 16.6311 17.7681 17.3335 16 17.3335ZM16 4.00016C17.0609 4.00016 18.0783 4.42159 18.8284 5.17174C19.5786 5.92188 20 6.9393 20 8.00016H12C12 6.9393 12.4214 5.92188 13.1716 5.17174C13.9217 4.42159 14.9391 4.00016 16 4.00016ZM25.3333 8.00016H22.6667C22.6667 7.12468 22.4942 6.25778 22.1592 5.44894C21.8242 4.6401 21.3331 3.90517 20.714 3.28612C20.095 2.66706 19.3601 2.176 18.5512 1.84097C17.7424 1.50593 16.8755 1.3335 16 1.3335C14.2319 1.3335 12.5362 2.03588 11.286 3.28612C10.0357 4.53636 9.33333 6.23205 9.33333 8.00016H6.66667C5.18667 8.00016 4 9.18683 4 10.6668V26.6668C4 27.3741 4.28095 28.0524 4.78105 28.5524C5.28115 29.0525 5.95942 29.3335 6.66667 29.3335H25.3333C26.0406 29.3335 26.7189 29.0525 27.219 28.5524C27.719 28.0524 28 27.3741 28 26.6668V10.6668C28 9.95959 27.719 9.28131 27.219 8.78121C26.7189 8.28111 26.0406 8.00016 25.3333 8.00016Z" fill="#3362CC"/>
</svg>
