<svg width="40" height="29" viewBox="0 0 40 29" fill="none" xmlns="http://www.w3.org/2000/svg">
<path d="M36.6365 18.1492L2.87036 17.7992C2.10007 17.7876 1.36533 17.4366 0.827276 16.8231C0.289221 16.2096 -0.00822487 15.3836 0.000173116 14.5264L0.322582 3.19421C0.32669 2.77017 0.405801 2.35117 0.555431 1.96116C0.705061 1.57114 0.922264 1.21774 1.19463 0.921143C1.467 0.624547 1.78922 0.39057 2.14285 0.232553C2.49649 0.0745351 2.87462 -0.00442989 3.25567 0.000191749L37.0689 0.358975C37.8392 0.370508 38.574 0.721535 39.112 1.33506C39.6501 1.94858 39.9475 2.77452 39.9391 3.63175L39.6168 14.9639C39.6127 15.3921 39.532 15.8151 39.3794 16.2081C39.2267 16.6011 39.0051 16.9563 38.7276 17.2529C38.4501 17.5495 38.1222 17.7816 37.7632 17.9355C37.4041 18.0894 37.0211 18.162 36.6365 18.1492Z" fill="#407BFF"/>
<path d="M19.258 15.2877C19.258 15.2877 14.9802 25.7886 5.62261 29.0001C5.62261 29.0001 10.8126 25.7623 10.5452 14.7277L19.258 15.2877Z" fill="#407BFF"/>
<path d="M8.76016 8.94335L9.54651 9.4334L9.1848 10.1072L8.39844 9.56466V10.5622H7.70645V9.56466L6.92009 10.1072L6.56622 9.4334L7.35258 8.94335L6.56622 8.45331L6.92009 7.77952L7.70645 8.32206V7.31572H8.39844V8.32206L9.1848 7.77952L9.54651 8.45331L8.76016 8.94335Z" fill="white"/>
<path d="M13.5884 8.94354L14.3748 9.43359L14.013 10.1074L13.2267 9.56484V10.5624H12.5347V9.56484L11.7483 10.1074L11.3945 9.46859L12.1808 8.97855L11.3945 8.48851L11.7562 7.8147L12.5425 8.35724V7.35091H13.2345V8.35724L14.0209 7.8147L14.3826 8.48851L13.5884 8.94354Z" fill="white"/>
<path d="M18.4245 8.94335L19.2108 9.4334L18.8491 10.1072L18.0628 9.56466V10.5622H17.3629V9.56466L16.5765 10.1072L16.2227 9.4334L17.009 8.94335L16.2227 8.45331L16.5765 7.77952L17.3629 8.32206V7.31572H18.0628V8.32206L18.8491 7.77952L19.2108 8.45331L18.4245 8.94335Z" fill="white"/>
<path d="M23.2527 8.94335L24.039 9.4334L23.6773 10.1072L22.891 9.56466V10.5622H22.199V9.56466L21.4126 10.1072L21.0588 9.4334L21.8451 8.94335L21.0588 8.45331L21.4126 7.77952L22.199 8.32206V7.31572H22.891V8.32206L23.6773 7.77952L24.039 8.45331L23.2527 8.94335Z" fill="white"/>
<path d="M28.0809 8.94335L28.8673 9.4334L28.5056 10.1072L27.7192 9.56466V10.5622H27.0272V9.56466L26.2408 10.1072L25.8791 9.4334L26.6655 8.94335L25.8791 8.45331L26.2408 7.77952L27.0272 8.32206V7.31572H27.7192V8.32206L28.5056 7.77952L28.8673 8.45331L28.0809 8.94335Z" fill="white"/>
<path d="M32.917 8.94335L33.7033 9.4334L33.3416 10.1072L32.5553 9.56466V10.5622H31.8397V9.56466L31.0533 10.1072L30.6995 9.4334L31.4858 8.94335L30.6995 8.45331L31.0533 7.77952L31.8397 8.32206V7.31572H32.5396V8.32206L33.3259 7.77952L33.6876 8.45331L32.917 8.94335Z" fill="white"/>
</svg>
