<svg width="389" height="389" viewBox="0 0 389 389" fill="none" xmlns="http://www.w3.org/2000/svg">
<g clip-path="url(#clip0_184_3458)">
<path d="M389 297.507H0V297.702H389V297.507Z" fill="#EBEBEB"/>
<path d="M350.022 310.025H324.255V310.22H350.022V310.025Z" fill="#EBEBEB"/>
<path d="M257.689 312.141H250.928V312.336H257.689V312.141Z" fill="#EBEBEB"/>
<path d="M323.477 302.805H308.547V303H323.477V302.805Z" fill="#EBEBEB"/>
<path d="M74.4157 304.113H40.8139V304.307H74.4157V304.113Z" fill="#EBEBEB"/>
<path d="M86.2724 304.113H81.3477V304.307H86.2724V304.113Z" fill="#EBEBEB"/>
<path d="M175.167 307.396H102.284V307.59H175.167V307.396Z" fill="#EBEBEB"/>
<path d="M184.386 262.808H34.162C32.9851 262.806 31.8572 262.337 31.0258 261.505C30.1944 260.672 29.7274 259.543 29.7274 258.366V47.1935C29.7376 46.0234 30.2091 44.9046 31.0394 44.0801C31.8698 43.2556 32.9919 42.792 34.162 42.79H184.386C185.564 42.79 186.694 43.2581 187.527 44.0912C188.36 44.9243 188.828 46.0542 188.828 47.2324V258.366C188.828 259.544 188.36 260.674 187.527 261.507C186.694 262.34 185.564 262.808 184.386 262.808ZM34.162 42.9456C33.0367 42.9477 31.9583 43.3962 31.1633 44.1926C30.3684 44.989 29.9219 46.0683 29.9219 47.1935V258.366C29.9219 259.491 30.3684 260.571 31.1633 261.367C31.9583 262.163 33.0367 262.612 34.162 262.614H184.386C185.512 262.612 186.591 262.164 187.387 261.367C188.184 260.571 188.632 259.492 188.634 258.366V47.1935C188.632 46.0675 188.184 44.9883 187.387 44.1921C186.591 43.3959 185.512 42.9477 184.386 42.9456H34.162Z" fill="#EBEBEB"/>
<path d="M352.675 262.808H202.443C201.266 262.806 200.137 262.338 199.304 261.505C198.472 260.672 198.003 259.544 198.001 258.366V47.1935C198.013 46.0227 198.487 44.9039 199.318 44.0796C200.15 43.2554 201.273 42.792 202.443 42.79H352.675C353.844 42.7941 354.964 43.2586 355.793 44.0829C356.621 44.9071 357.092 46.0248 357.102 47.1935V258.366C357.102 259.542 356.636 260.669 355.806 261.502C354.977 262.334 353.851 262.804 352.675 262.808ZM202.443 42.9456C201.317 42.9477 200.238 43.3959 199.442 44.1921C198.646 44.9883 198.198 46.0675 198.196 47.1935V258.366C198.198 259.492 198.646 260.571 199.442 261.367C200.238 262.164 201.317 262.612 202.443 262.614H352.675C353.801 262.612 354.88 262.164 355.677 261.367C356.473 260.571 356.921 259.492 356.923 258.366V47.1935C356.921 46.0675 356.473 44.9883 355.677 44.1921C354.88 43.3959 353.801 42.9477 352.675 42.9456H202.443Z" fill="#EBEBEB"/>
<path d="M238.255 191.808H349.61V76.7419L238.255 76.7419V191.808Z" fill="#EBEBEB"/>
<path d="M234.365 191.808H345.72V76.7419L234.365 76.7419V191.808Z" fill="#F0F0F0"/>
<path d="M342.911 79.4727H237.313V189.132H342.911V79.4727Z" fill="#E0E0E0"/>
<path d="M342.911 79.4727H239.951V189.132H342.911V79.4727Z" fill="#F5F5F5"/>
<path d="M290.357 189.14H292.45V79.4805H290.357V189.14Z" fill="#EBEBEB"/>
<path d="M304.494 79.4727L333.84 189.132H336.656L307.31 79.4727H304.494Z" fill="white"/>
<path d="M289.47 191.232H291.26V77.7767H289.47V191.232Z" fill="#F0F0F0"/>
<path d="M315.144 79.4727L342.911 183.25V126.207L330.409 79.4727H315.144Z" fill="white"/>
<path d="M239.951 89.4233V99.9497L263.82 189.132H266.636L239.951 89.4233Z" fill="white"/>
<path d="M239.951 110.678V167.721L245.677 189.132H260.941L239.951 110.678Z" fill="white"/>
<path d="M331.342 202.07H246.961C245.139 202.07 243.391 202.794 242.103 204.082C240.815 205.37 240.091 207.118 240.091 208.94L230.755 268.426H328.876L338.212 208.94C338.212 207.118 337.488 205.37 336.2 204.082C334.912 202.794 333.164 202.07 331.342 202.07Z" fill="#EBEBEB"/>
<path d="M230.996 225.075L231.105 224.764H198.429V297.118H238.885V233.439C238.915 231.293 238.109 229.219 236.636 227.658C235.163 226.097 233.14 225.17 230.996 225.075Z" fill="#E0E0E0"/>
<path d="M198.087 225.052C195.862 225.052 193.729 225.936 192.156 227.508C190.583 229.081 189.7 231.215 189.7 233.439V297.118H206.466V233.439C206.466 231.216 205.583 229.084 204.012 227.511C202.441 225.939 200.31 225.054 198.087 225.052Z" fill="#F0F0F0"/>
<path d="M325.134 225.075L325.243 224.764H292.567V297.118H333.023V233.439C333.053 231.293 332.247 229.219 330.774 227.658C329.301 226.097 327.278 225.17 325.134 225.075Z" fill="#E0E0E0"/>
<path d="M283.838 246.159H211.943V297.118H283.838V246.159Z" fill="#E0E0E0"/>
<path d="M216.626 240.939H297.538V258.607H216.626C215.463 258.607 214.311 258.378 213.237 257.932C212.163 257.486 211.187 256.832 210.366 256.008C209.545 255.184 208.894 254.206 208.452 253.13C208.01 252.054 207.784 250.901 207.788 249.738C207.799 247.401 208.734 245.163 210.391 243.514C212.047 241.865 214.289 240.939 216.626 240.939Z" fill="#F5F5F5"/>
<path d="M292.225 225.052C290 225.052 287.867 225.936 286.294 227.508C284.721 229.081 283.838 231.215 283.838 233.439V297.118H300.604V233.439C300.604 231.216 299.721 229.084 298.15 227.511C296.579 225.939 294.448 225.054 292.225 225.052Z" fill="#F0F0F0"/>
<path d="M315.129 269.305H328.876L338.212 208.94C338.212 208.037 338.034 207.143 337.688 206.309C337.343 205.475 336.836 204.717 336.197 204.079C335.559 203.441 334.8 202.936 333.966 202.591C333.132 202.246 332.237 202.069 331.335 202.07C329.513 202.07 327.765 202.794 326.477 204.082C325.189 205.37 324.465 207.118 324.465 208.94L315.129 269.305Z" fill="#E0E0E0"/>
<path d="M58.988 268.636C58.988 268.325 57.9454 237.765 52.974 232.933C48.1426 228.265 42.5877 232.754 42.3543 232.933L41.8564 232.342C41.9186 232.288 48.1815 227.176 53.5264 232.342C58.7157 237.391 59.7504 267.305 59.7504 268.581L58.988 268.636Z" fill="#E0E0E0"/>
<path d="M59.4159 274.634C59.4159 274.268 56.0238 237.943 69.2887 222.718L69.8722 223.232C56.8251 238.2 60.155 274.19 60.1939 274.58L59.4159 274.634Z" fill="#E0E0E0"/>
<path d="M58.9257 270.799L58.1477 270.744C58.1477 270.332 60.7462 229.456 51.0135 220.501L51.5425 219.933C61.5476 229.129 59.0424 269.102 58.9257 270.799Z" fill="#E0E0E0"/>
<path d="M60.1939 270.744H59.4159C59.4159 269.616 59.7348 243.133 67.2581 238.846C67.9722 238.382 68.7876 238.096 69.6353 238.014C70.483 237.931 71.3381 238.054 72.1284 238.371C76.6797 240.246 78.9359 248.345 79.0292 248.688L78.2512 248.898C78.2512 248.812 76.0028 240.822 71.8094 239.087C71.128 238.82 70.3928 238.72 69.6648 238.794C68.9368 238.869 68.237 239.116 67.6238 239.515C60.5051 243.607 60.1939 270.503 60.1939 270.744Z" fill="#E0E0E0"/>
<path d="M57.2608 270.791L56.4828 270.752C56.4828 270.542 57.6109 249.816 52.0249 242.518C50.6634 240.744 49.1929 239.904 47.6447 240.013C43.9803 240.27 40.9072 245.63 40.8761 245.685L40.1992 245.303C40.3315 245.07 43.5058 239.523 47.5825 239.235C49.4108 239.111 51.1146 240.052 52.6395 242.044C58.4122 249.575 57.3152 269.966 57.2608 270.791Z" fill="#E0E0E0"/>
<path d="M58.49 273.615C58.3344 271.6 54.8334 224.282 60.9952 215.949L61.6254 216.408C55.627 224.515 59.2291 273.062 59.2914 273.553L58.49 273.615Z" fill="#E0E0E0"/>
<path d="M73.8089 243.164C73.8089 243.164 70.1056 244.525 71.2026 247.746C72.2995 250.967 84.024 256.265 84.024 256.265C84.024 256.265 88.9176 251.776 84.4208 244.471C79.9239 237.166 73.91 240.861 73.8089 243.164Z" fill="#EBEBEB"/>
<path d="M57.7276 237.033C57.7276 237.033 61.6643 236.87 61.8899 240.262C62.1155 243.654 53.3319 253.052 53.3319 253.052C53.3319 253.052 47.1079 250.788 48.4305 242.324C49.7531 233.859 56.7473 234.956 57.7276 237.033Z" fill="#EBEBEB"/>
<path d="M54.39 220.789C54.39 220.789 57.0196 220.509 56.8096 218.906C56.5995 217.303 46.6022 213.172 40.705 219.847C40.705 219.847 44.4783 226.336 49.9398 226.421C55.4014 226.507 54.39 220.789 54.39 220.789Z" fill="#EBEBEB"/>
<path d="M59.2836 216.906C59.2836 216.906 56.9496 218.058 56.2416 216.587C55.5336 215.117 61.8821 206.341 70.409 208.87C70.409 208.87 70.6346 216.37 66.0444 219.326C61.4542 222.282 59.2836 216.906 59.2836 216.906Z" fill="#EBEBEB"/>
<path d="M46.8512 241.873C46.8512 241.873 48.6639 240.41 46.7111 239.694C44.7583 238.978 35.1578 239.181 35.0411 248.688C35.0411 248.688 46.221 250.547 47.6058 246.922C48.9907 243.296 46.8512 241.873 46.8512 241.873Z" fill="#EBEBEB"/>
<path d="M69.6465 220.555C69.6465 220.555 67.8338 219.085 69.7866 218.377C71.7394 217.669 81.3399 217.863 81.4566 227.371C81.4566 227.371 70.2767 229.222 68.8919 225.605C67.5071 221.987 69.6465 220.555 69.6465 220.555Z" fill="#EBEBEB"/>
<path d="M63.7338 228.211C63.7338 228.211 63.5782 226.429 65.0097 227.129C66.4412 227.83 71.4515 233.221 66.2623 238.34C66.2623 238.34 59.2603 233.174 60.544 230.483C61.8277 227.791 63.7338 228.211 63.7338 228.211Z" fill="#EBEBEB"/>
<path d="M45.2329 230.739C45.2329 230.739 46.3221 229.323 44.735 229.144C43.1479 228.965 36.037 230.871 37.733 237.967C37.733 237.967 46.3921 237.313 46.7656 234.365C47.139 231.416 45.2329 230.739 45.2329 230.739Z" fill="#EBEBEB"/>
<path d="M74.4935 297.118H44.7817L41.5763 264.582H77.7066L74.4935 297.118Z" fill="#F0F0F0"/>
<path d="M79.2938 260.996H39.9892V268.177H79.2938V260.996Z" fill="#E6E6E6"/>
<path d="M194.5 332.642C277.81 332.642 345.346 328.699 345.346 323.835C345.346 318.971 277.81 315.028 194.5 315.028C111.19 315.028 43.6536 318.971 43.6536 323.835C43.6536 328.699 111.19 332.642 194.5 332.642Z" fill="#F5F5F5"/>
<path d="M200.304 55.6114V279.675C200.305 280.11 200.22 280.54 200.052 280.941C199.885 281.342 199.64 281.706 199.331 282.01C199.021 282.315 198.654 282.556 198.251 282.717C197.848 282.879 197.416 282.958 196.982 282.951H92.73C91.9522 282.96 91.2025 282.661 90.6449 282.118C90.3598 281.834 90.1344 281.495 89.9821 281.123C89.8298 280.75 89.7536 280.35 89.758 279.948V55.3391C89.7445 54.9917 89.7996 54.645 89.9201 54.3189C90.0407 53.9927 90.2244 53.6936 90.4607 53.4385C90.697 53.1834 90.9812 52.9774 91.2972 52.8323C91.6131 52.6872 91.9546 52.6058 92.3021 52.5928H121.913C122.327 52.5992 122.73 52.7293 123.069 52.9664C123.409 53.2035 123.67 53.5366 123.819 53.9232L125.048 56.9418C125.199 57.3263 125.461 57.6572 125.8 57.8927C126.14 58.1282 126.541 58.2575 126.954 58.2644H163.186C163.597 58.2625 163.998 58.1378 164.337 57.9063C164.677 57.6748 164.94 57.347 165.092 56.9651L166.321 53.9309C166.47 53.5436 166.73 53.2093 167.07 52.9709C167.409 52.7325 167.812 52.6009 168.227 52.5928H197.41C198.192 52.6152 198.934 52.9443 199.475 53.5091C200.017 54.0739 200.315 54.829 200.304 55.6114Z" fill="#407BFF"/>
<path opacity="0.6" d="M200.304 70.4868H89.7501V258.607H200.304V70.4868Z" fill="white"/>
<path opacity="0.6" d="M103.497 61.6177H105.038V59.5638H103.497V61.6177Z" fill="white"/>
<path opacity="0.6" d="M100.992 61.6177H102.533V58.8791H100.992V61.6177Z" fill="white"/>
<path opacity="0.6" d="M98.4715 61.6177H100.012V58.1945H98.4715V61.6177Z" fill="white"/>
<path opacity="0.6" d="M95.9663 61.6177H97.5067V57.5098H95.9663V61.6177Z" fill="white"/>
<path opacity="0.6" d="M186.191 58.8167H185.281V60.8706H186.191V58.8167Z" fill="white"/>
<path opacity="0.6" d="M186.813 61.6177H194.088V58.0622H186.813V61.6177Z" fill="white"/>
<g opacity="0.1">
<path d="M139.488 58.2644L107.66 177.477L107.31 178.815L106.734 180.963L106.368 182.301L89.7501 244.541V169.231L120.87 52.5928H121.882C122.296 52.5992 122.698 52.7293 123.038 52.9664C123.378 53.2035 123.639 53.5366 123.788 53.9232L125.017 56.9418C125.168 57.3263 125.43 57.6572 125.769 57.8927C126.108 58.1282 126.51 58.2575 126.923 58.2644H139.488Z" fill="white"/>
<path d="M200.304 119.143V194.484L180.457 268.838L179.975 270.643L176.699 282.912H156.588L159.863 270.651L160.385 268.682L163.014 258.833L163.543 256.864L164.594 252.92L165.123 250.952L166.173 247.007L166.694 245.039L183.242 183.063V183.056L184.005 180.2V180.192L200.304 119.143Z" fill="white"/>
<path d="M150.387 58.2644L118.762 176.73L118.567 177.438L116.84 183.935L116.646 184.643L90.637 282.079C90.3518 281.795 90.1265 281.457 89.9742 281.084C89.8218 280.711 89.7457 280.312 89.7501 279.909V268.449L112.125 184.643L112.32 183.935L114.047 177.438L114.242 176.73L145.867 58.2644H150.387Z" fill="white"/>
</g>
<path opacity="0.9" d="M193.325 86.467V85.2922L192.718 85.2377C192.636 84.8525 192.483 84.4858 192.267 84.1563L192.656 83.6895L191.824 82.8571L191.357 83.2461C191.031 83.0237 190.663 82.8701 190.275 82.7948L190.221 82.188H189.054L189 82.7948C188.612 82.8701 188.244 83.0237 187.918 83.2461L187.444 82.8571L186.619 83.6895L187.008 84.1563C186.785 84.4824 186.632 84.8503 186.557 85.2377L185.95 85.2922V86.467L186.557 86.5214C186.632 86.9089 186.785 87.2768 187.008 87.6029L186.619 88.0697L187.444 88.9021L187.918 88.5131C188.244 88.7355 188.612 88.8891 189 88.9644L189.054 89.5712H190.229L190.283 88.9644C190.671 88.8891 191.039 88.7355 191.365 88.5131L191.831 88.9021L192.664 88.0697L192.275 87.6029C192.491 87.2734 192.644 86.9067 192.726 86.5214L193.325 86.467ZM189.63 87.4628C189.322 87.4628 189.021 87.3716 188.765 87.2006C188.509 87.0296 188.31 86.7866 188.192 86.5023C188.074 86.218 188.044 85.9051 188.104 85.6033C188.164 85.3014 188.312 85.0242 188.529 84.8066C188.747 84.589 189.024 84.4408 189.326 84.3807C189.628 84.3207 189.941 84.3515 190.225 84.4693C190.509 84.587 190.753 84.7865 190.923 85.0424C191.094 85.2982 191.186 85.5991 191.186 85.9068C191.186 86.3195 191.022 86.7153 190.73 87.0071C190.438 87.2989 190.042 87.4628 189.63 87.4628Z" fill="white"/>
<path d="M106.944 85.7277L102.976 82.4523C102.947 82.4296 102.912 82.4172 102.875 82.4172C102.838 82.4172 102.803 82.4296 102.774 82.4523L98.806 85.7277C98.7793 85.7477 98.7596 85.7757 98.75 85.8077C98.7405 85.8396 98.7414 85.8738 98.7527 85.9052C98.7641 85.9366 98.7852 85.9635 98.813 85.982C98.8408 86.0005 98.8738 86.0095 98.9071 86.0078H99.7941C99.8361 86.0077 99.8765 86.0239 99.9069 86.0528C99.9374 86.0818 99.9554 86.1214 99.9574 86.1634V89.182C99.9574 89.224 99.9735 89.2644 100.003 89.2949C100.031 89.3253 100.071 89.3434 100.113 89.3454H105.629C105.671 89.3434 105.711 89.3253 105.74 89.2949C105.769 89.2644 105.785 89.224 105.785 89.182V86.1634C105.785 86.1423 105.789 86.1214 105.797 86.102C105.806 86.0826 105.818 86.0651 105.833 86.0505C105.848 86.0359 105.866 86.0246 105.886 86.0173C105.906 86.01 105.927 86.0067 105.948 86.0078H106.835C106.869 86.0115 106.903 86.0038 106.933 85.9861C106.962 85.9683 106.984 85.9414 106.997 85.9095C107.009 85.8776 107.011 85.8425 107.001 85.8096C106.992 85.7768 106.971 85.748 106.944 85.7277Z" fill="white"/>
<g opacity="0.6">
<path d="M187.568 266.309H193.629C193.745 266.307 193.856 266.26 193.937 266.177C194.019 266.094 194.064 265.982 194.064 265.866C194.064 265.75 194.018 265.639 193.937 265.558C193.855 265.476 193.744 265.43 193.629 265.43H187.568C187.452 265.43 187.342 265.476 187.26 265.558C187.178 265.639 187.132 265.75 187.132 265.866C187.132 265.982 187.178 266.094 187.259 266.177C187.341 266.26 187.452 266.307 187.568 266.309Z" fill="white"/>
<path d="M193.629 267.632H187.568C187.452 267.632 187.342 267.678 187.26 267.759C187.178 267.841 187.132 267.952 187.132 268.068C187.132 268.184 187.178 268.295 187.259 268.378C187.341 268.461 187.452 268.509 187.568 268.511H193.629C193.745 268.509 193.856 268.461 193.937 268.378C194.019 268.295 194.064 268.184 194.064 268.068C194.064 267.952 194.018 267.841 193.937 267.759C193.855 267.678 193.744 267.632 193.629 267.632Z" fill="white"/>
<path d="M193.629 269.865H187.568C187.452 269.865 187.342 269.911 187.26 269.992C187.178 270.074 187.132 270.185 187.132 270.3C187.132 270.416 187.178 270.527 187.26 270.609C187.342 270.69 187.452 270.736 187.568 270.736H193.629C193.744 270.736 193.855 270.69 193.937 270.609C194.018 270.527 194.064 270.416 194.064 270.3C194.064 270.185 194.018 270.074 193.937 269.992C193.855 269.911 193.744 269.865 193.629 269.865Z" fill="white"/>
<path d="M147.758 267.632H145.167V265.041C145.153 264.935 145.1 264.837 145.02 264.766C144.939 264.695 144.835 264.656 144.727 264.656C144.62 264.656 144.516 264.695 144.435 264.766C144.354 264.837 144.302 264.935 144.288 265.041V267.632H141.697C141.582 267.632 141.471 267.678 141.389 267.759C141.307 267.841 141.261 267.952 141.261 268.068C141.261 268.184 141.307 268.295 141.389 268.378C141.47 268.461 141.581 268.509 141.697 268.511H144.288V271.102C144.302 271.208 144.354 271.306 144.435 271.377C144.516 271.448 144.62 271.487 144.727 271.487C144.835 271.487 144.939 271.448 145.02 271.377C145.1 271.306 145.153 271.208 145.167 271.102V268.511H147.758C147.874 268.509 147.985 268.461 148.066 268.378C148.148 268.295 148.193 268.184 148.193 268.068C148.193 267.952 148.148 267.841 148.066 267.759C147.984 267.678 147.873 267.632 147.758 267.632Z" fill="white"/>
<path d="M101.28 265.22H96.472C96.355 265.222 96.2434 265.269 96.1606 265.352C96.0779 265.435 96.0305 265.547 96.0285 265.664V270.511C96.0306 270.627 96.0782 270.738 96.1611 270.819C96.2441 270.901 96.3557 270.946 96.472 270.946H101.319C101.434 270.946 101.545 270.9 101.627 270.819C101.709 270.737 101.755 270.626 101.755 270.511V265.664C101.755 265.603 101.742 265.542 101.718 265.486C101.694 265.43 101.658 265.38 101.614 265.338C101.569 265.297 101.517 265.265 101.459 265.244C101.402 265.224 101.341 265.216 101.28 265.22ZM100.837 270.067H96.8688V266.076H100.837V270.067Z" fill="white"/>
</g>
<g opacity="0.6">
<path d="M141.456 253.379C141.38 253.378 141.307 253.354 141.246 253.309L138.134 251.278C138.083 251.255 138.039 251.221 138.003 251.178C137.966 251.136 137.94 251.086 137.924 251.033C137.909 250.979 137.905 250.923 137.914 250.868C137.922 250.813 137.942 250.76 137.972 250.714C138.003 250.667 138.043 250.627 138.09 250.598C138.137 250.568 138.19 250.548 138.245 250.541C138.3 250.533 138.356 250.537 138.409 250.553C138.463 250.569 138.512 250.596 138.554 250.633L141.464 252.523L144.373 250.633C144.46 250.576 144.566 250.556 144.668 250.576C144.77 250.596 144.86 250.656 144.918 250.742C144.974 250.828 144.993 250.933 144.971 251.034C144.949 251.135 144.888 251.223 144.801 251.278L141.689 253.309C141.621 253.357 141.539 253.382 141.456 253.379Z" fill="#407BFF"/>
<path d="M141.456 251.792C141.382 251.79 141.309 251.769 141.246 251.73L138.134 249.699C138.047 249.642 137.986 249.553 137.964 249.451C137.942 249.349 137.961 249.242 138.017 249.154C138.074 249.069 138.163 249.01 138.263 248.989C138.364 248.969 138.468 248.989 138.554 249.045L141.464 250.936L144.373 249.045C144.46 248.989 144.566 248.969 144.667 248.99C144.769 249.011 144.857 249.072 144.914 249.158C144.971 249.245 144.991 249.351 144.97 249.452C144.949 249.553 144.888 249.642 144.801 249.699L141.689 251.73C141.619 251.772 141.538 251.793 141.456 251.792Z" fill="#407BFF"/>
</g>
<path opacity="0.1" d="M193.598 119.143C192.831 119.145 192.096 119.45 191.553 119.993C191.011 120.535 190.705 121.27 190.703 122.037V242.106C190.703 242.873 191.008 243.609 191.551 244.152C192.094 244.695 192.83 245 193.598 245C194.365 245 195.101 244.695 195.644 244.152C196.187 243.609 196.492 242.873 196.492 242.106V122.037C196.492 121.657 196.417 121.281 196.271 120.929C196.126 120.578 195.913 120.259 195.644 119.991C195.375 119.722 195.056 119.509 194.705 119.363C194.354 119.218 193.978 119.143 193.598 119.143Z" fill="black"/>
<path opacity="0.6" d="M193.598 119.952C192.979 119.952 192.385 120.198 191.947 120.636C191.509 121.073 191.264 121.667 191.264 122.286V138.484C191.343 139.04 191.62 139.549 192.045 139.918C192.469 140.286 193.012 140.489 193.574 140.489C194.136 140.489 194.679 140.286 195.104 139.918C195.528 139.549 195.806 139.04 195.885 138.484V122.263C195.879 121.656 195.637 121.075 195.21 120.643C194.783 120.212 194.204 119.964 193.598 119.952Z" fill="white"/>
<path d="M136.422 83.0903L134.423 89.2132H132.867L131.521 85.0664L130.128 89.2132H128.572L126.565 83.0903H128.035L129.413 87.3927L130.86 83.0903H132.26L133.66 87.4238L135.084 83.0903H136.422Z" fill="white"/>
<path d="M137.037 83.0904C137.036 82.982 137.059 82.8748 137.102 82.7755C137.145 82.6762 137.209 82.5871 137.289 82.5139C137.369 82.4407 137.463 82.3849 137.566 82.3502C137.668 82.3155 137.777 82.3026 137.885 82.3124C137.989 82.3028 138.094 82.3143 138.193 82.3462C138.293 82.378 138.385 82.4296 138.464 82.4979C138.543 82.5662 138.608 82.6497 138.654 82.7434C138.7 82.8372 138.727 82.9393 138.733 83.0437C138.705 83.2488 138.604 83.4369 138.448 83.5731C138.292 83.7093 138.092 83.7843 137.885 83.7843C137.678 83.7843 137.478 83.7093 137.322 83.5731C137.166 83.4369 137.065 83.2488 137.037 83.0437V83.0904ZM137.2 84.5063H138.57V89.1743H137.2V84.5063Z" fill="white"/>
<path d="M139.379 88.7775L139.838 87.7972C140.332 88.0915 140.896 88.2473 141.472 88.2484C142.102 88.2484 142.343 88.085 142.343 87.8205C142.343 87.0425 139.495 87.8205 139.495 85.9533C139.495 85.0664 140.273 84.3973 141.674 84.3973C142.302 84.3863 142.924 84.5277 143.487 84.8097L143.028 85.7822C142.616 85.5469 142.148 85.426 141.674 85.4321C141.059 85.4321 140.802 85.6188 140.802 85.8678C140.802 86.6458 143.642 85.8678 143.642 87.7505C143.642 88.6219 142.864 89.2443 141.417 89.2443C140.709 89.2685 140.006 89.1076 139.379 88.7775Z" fill="white"/>
<path d="M149.298 86.5135V89.2131H147.929V86.7235C147.929 85.9455 147.579 85.6188 146.98 85.6188C146.381 85.6188 145.844 86.0155 145.844 86.8869V89.2209H144.482V82.7246H145.844V85.0041C146.045 84.8167 146.281 84.6708 146.539 84.5746C146.797 84.4785 147.071 84.4341 147.345 84.444C147.617 84.4258 147.889 84.4679 148.142 84.5671C148.395 84.6664 148.623 84.8205 148.81 85.0183C148.996 85.2161 149.137 85.4527 149.221 85.7112C149.306 85.9697 149.332 86.2436 149.298 86.5135Z" fill="white"/>
<path d="M150.527 82.717H151.897V89.2133H150.527V82.717Z" fill="white"/>
<path d="M152.994 83.0904C152.993 82.982 153.015 82.8748 153.059 82.7755C153.102 82.6763 153.166 82.5872 153.246 82.5139C153.326 82.4407 153.42 82.3849 153.522 82.3502C153.625 82.3155 153.734 82.3026 153.842 82.3124C153.946 82.3017 154.052 82.3124 154.153 82.3437C154.253 82.3751 154.346 82.4265 154.426 82.4949C154.506 82.5633 154.571 82.6471 154.618 82.7415C154.665 82.8358 154.692 82.9386 154.698 83.0437C154.698 83.1527 154.676 83.2607 154.632 83.3605C154.588 83.4604 154.524 83.5499 154.443 83.6233C154.362 83.6966 154.267 83.7522 154.163 83.7864C154.06 83.8206 153.95 83.8326 153.842 83.8217C153.738 83.8313 153.633 83.8198 153.533 83.7879C153.434 83.756 153.342 83.7044 153.262 83.6361C153.183 83.5679 153.119 83.4844 153.072 83.3906C153.026 83.2968 153 83.1947 152.994 83.0904ZM153.165 84.5063H154.526V89.1743H153.165V84.5063Z" fill="white"/>
<path d="M155.343 88.7775L155.795 87.7972C156.289 88.0915 156.853 88.2474 157.428 88.2485C158.058 88.2485 158.3 88.0851 158.3 87.8206C158.3 87.0426 155.452 87.8206 155.452 85.9534C155.452 85.0665 156.23 84.3974 157.631 84.3974C158.26 84.3838 158.882 84.5254 159.443 84.8097L158.992 85.7822C158.577 85.5477 158.107 85.4269 157.631 85.4321C157.024 85.4321 156.759 85.6188 156.759 85.8678C156.759 86.6458 159.599 85.8678 159.599 87.7506C159.599 88.6219 158.821 89.2443 157.382 89.2443C156.673 89.2708 155.97 89.1098 155.343 88.7775Z" fill="white"/>
<path d="M163.481 88.9877C163.147 89.1927 162.76 89.2955 162.369 89.2833C162.136 89.3148 161.9 89.2935 161.677 89.2208C161.454 89.1482 161.251 89.0261 161.082 88.8638C160.913 88.7015 160.782 88.5031 160.701 88.2834C160.619 88.0637 160.588 87.8284 160.61 87.595V85.6578H159.879V84.6075H160.61V83.4639H161.972V84.6075H163.147V85.6578H161.972V87.5795C161.961 87.66 161.969 87.742 161.994 87.8193C162.019 87.8966 162.061 87.9673 162.117 88.0262C162.173 88.0852 162.241 88.1308 162.317 88.1599C162.393 88.1889 162.474 88.2006 162.555 88.1941C162.753 88.1998 162.948 88.1396 163.108 88.0229L163.481 88.9877Z" fill="white"/>
<path opacity="0.3" d="M97.5223 96.5964H192.539C193.059 96.5954 193.573 96.6969 194.053 96.8952C194.533 97.0935 194.969 97.3845 195.336 97.7517C195.704 98.1189 195.995 98.555 196.193 99.035C196.391 99.515 196.493 100.029 196.492 100.549C196.493 101.068 196.391 101.583 196.193 102.064C195.995 102.544 195.704 102.981 195.337 103.348C194.97 103.716 194.534 104.008 194.054 104.207C193.574 104.406 193.059 104.509 192.539 104.509H97.5223C97.0023 104.509 96.4873 104.406 96.0069 104.207C95.5264 104.008 95.0899 103.717 94.7221 103.349C94.3544 102.981 94.0627 102.545 93.8637 102.064C93.6647 101.584 93.5623 101.069 93.5623 100.549C93.5623 100.029 93.6648 99.5144 93.8639 99.0344C94.063 98.5544 94.3548 98.1184 94.7226 97.7513C95.0904 97.3842 95.5271 97.0932 96.0075 96.895C96.4879 96.6969 97.0026 96.5954 97.5223 96.5964Z" fill="black"/>
<path d="M191.038 101.568C190.615 101.566 190.21 101.399 189.91 101.101C189.76 100.954 189.641 100.779 189.561 100.585C189.481 100.391 189.441 100.183 189.443 99.973C189.441 99.7632 189.481 99.5551 189.561 99.3613C189.641 99.1674 189.76 98.9918 189.91 98.8449C190.058 98.6967 190.234 98.5791 190.427 98.4989C190.621 98.4187 190.828 98.3774 191.038 98.3774C191.247 98.3774 191.455 98.4187 191.648 98.4989C191.842 98.5791 192.018 98.6967 192.166 98.8449C192.316 98.9918 192.434 99.1674 192.515 99.3613C192.595 99.5551 192.635 99.7632 192.633 99.973C192.64 100.189 192.603 100.405 192.522 100.606C192.442 100.807 192.321 100.989 192.166 101.14C191.86 101.423 191.455 101.577 191.038 101.568ZM191.038 99.1561C190.931 99.1534 190.825 99.1727 190.726 99.2129C190.627 99.253 190.537 99.3132 190.462 99.3895C190.386 99.4662 190.325 99.5572 190.284 99.6573C190.242 99.7574 190.221 99.8647 190.221 99.973C190.219 100.08 190.24 100.187 190.281 100.286C190.323 100.385 190.384 100.475 190.462 100.549C190.618 100.695 190.824 100.777 191.038 100.777C191.252 100.777 191.458 100.695 191.614 100.549C191.691 100.475 191.753 100.385 191.794 100.286C191.836 100.187 191.857 100.08 191.855 99.973C191.855 99.8647 191.834 99.7574 191.792 99.6573C191.751 99.5572 191.69 99.4662 191.614 99.3895C191.539 99.3132 191.449 99.253 191.35 99.2129C191.251 99.1727 191.145 99.1534 191.038 99.1561Z" fill="white"/>
<path d="M193.403 102.696C193.3 102.695 193.203 102.653 193.131 102.579L191.575 101.07C191.503 100.996 191.463 100.897 191.463 100.794C191.463 100.691 191.503 100.592 191.575 100.518C191.611 100.481 191.654 100.452 191.701 100.433C191.749 100.413 191.8 100.403 191.851 100.403C191.902 100.403 191.953 100.413 192 100.433C192.048 100.452 192.091 100.481 192.127 100.518L193.644 102.035C193.715 102.107 193.755 102.205 193.755 102.307C193.755 102.409 193.715 102.507 193.644 102.579C193.58 102.645 193.494 102.686 193.403 102.696Z" fill="white"/>
<path opacity="0.6" d="M186.098 161.933H95.2583C94.3216 161.933 93.5623 162.692 93.5623 163.629V200.413C93.5623 201.349 94.3216 202.109 95.2583 202.109H186.098C187.034 202.109 187.794 201.349 187.794 200.413V163.629C187.794 162.692 187.034 161.933 186.098 161.933Z" fill="#407BFF"/>
<path d="M130.634 165.846H97.7012V196.11H130.634V165.846Z" fill="#407BFF"/>
<path opacity="0.6" d="M130.634 165.846H97.7012V196.11H130.634V165.846Z" fill="white"/>
<path opacity="0.3" d="M129.039 167.441H99.3817V194.43H129.039V167.441Z" fill="white"/>
<path opacity="0.3" d="M129.039 188.719V194.43H99.3895L99.3817 181.235L105.505 175.882L114.584 184.736L119.392 181.235L129.039 188.719Z" fill="white"/>
<g opacity="0.6">
<path d="M124.099 175.875C124.099 176.347 123.959 176.809 123.696 177.202C123.434 177.594 123.061 177.9 122.624 178.081C122.188 178.262 121.708 178.309 121.244 178.217C120.781 178.125 120.355 177.897 120.021 177.563C119.687 177.229 119.46 176.804 119.368 176.341C119.276 175.877 119.323 175.397 119.504 174.961C119.684 174.524 119.991 174.151 120.383 173.889C120.776 173.626 121.238 173.486 121.71 173.486C122.024 173.485 122.335 173.546 122.626 173.666C122.916 173.785 123.18 173.961 123.402 174.183C123.624 174.405 123.799 174.669 123.919 174.959C124.039 175.25 124.1 175.561 124.099 175.875Z" fill="white"/>
<path opacity="0.3" d="M124.099 175.875C124.099 176.347 123.959 176.809 123.696 177.202C123.434 177.594 123.061 177.9 122.624 178.081C122.188 178.262 121.708 178.309 121.244 178.217C120.781 178.125 120.355 177.897 120.021 177.563C119.687 177.229 119.46 176.804 119.368 176.341C119.276 175.877 119.323 175.397 119.504 174.961C119.684 174.524 119.991 174.151 120.383 173.889C120.776 173.626 121.238 173.486 121.71 173.486C122.024 173.485 122.335 173.546 122.626 173.666C122.916 173.785 123.18 173.961 123.402 174.183C123.624 174.405 123.799 174.669 123.919 174.959C124.039 175.25 124.1 175.561 124.099 175.875Z" fill="white"/>
</g>
<g opacity="0.3">
<path d="M168.873 168.437H136.586C136.324 168.437 136.072 168.333 135.887 168.147C135.702 167.962 135.598 167.711 135.598 167.449C135.598 167.319 135.623 167.191 135.673 167.072C135.723 166.952 135.796 166.844 135.887 166.753C135.979 166.662 136.088 166.59 136.208 166.541C136.328 166.492 136.456 166.468 136.586 166.469H168.873C169.002 166.468 169.13 166.492 169.249 166.541C169.368 166.59 169.477 166.662 169.568 166.753C169.659 166.845 169.732 166.953 169.78 167.072C169.829 167.192 169.854 167.32 169.853 167.449C169.854 167.578 169.829 167.707 169.781 167.826C169.732 167.946 169.66 168.055 169.569 168.147C169.477 168.239 169.369 168.312 169.25 168.362C169.13 168.411 169.002 168.437 168.873 168.437Z" fill="white"/>
<path d="M181.484 174.342H136.586C136.456 174.343 136.328 174.318 136.208 174.27C136.088 174.221 135.979 174.149 135.887 174.058C135.796 173.966 135.723 173.858 135.673 173.739C135.623 173.619 135.598 173.491 135.598 173.362C135.598 173.1 135.702 172.848 135.887 172.663C136.072 172.478 136.324 172.374 136.586 172.374H181.484C181.746 172.374 181.997 172.478 182.183 172.663C182.368 172.848 182.472 173.1 182.472 173.362C182.472 173.491 182.447 173.619 182.397 173.739C182.347 173.858 182.274 173.966 182.182 174.058C182.09 174.149 181.981 174.221 181.862 174.27C181.742 174.318 181.613 174.343 181.484 174.342Z" fill="white"/>
<path d="M154.698 180.255H136.586C136.324 180.255 136.072 180.151 135.887 179.965C135.702 179.78 135.598 179.529 135.598 179.267C135.598 179.137 135.623 179.009 135.673 178.89C135.723 178.77 135.796 178.662 135.887 178.571C135.979 178.48 136.088 178.408 136.208 178.359C136.328 178.31 136.456 178.285 136.586 178.286H154.698C154.827 178.285 154.954 178.31 155.074 178.359C155.193 178.408 155.302 178.48 155.393 178.571C155.484 178.662 155.556 178.771 155.605 178.89C155.654 179.01 155.679 179.138 155.678 179.267C155.679 179.396 155.654 179.524 155.605 179.644C155.557 179.764 155.485 179.873 155.393 179.965C155.302 180.057 155.194 180.13 155.074 180.179C154.955 180.229 154.827 180.255 154.698 180.255Z" fill="white"/>
</g>
<path d="M135.987 190.299C136.858 188.883 138.531 189.427 139.386 190.524C140.25 189.42 141.915 188.875 142.794 190.291C144.265 192.679 141.238 194.897 139.807 195.737L139.402 195.986L138.99 195.737C137.558 194.904 134.516 192.695 135.987 190.299Z" fill="white"/>
<g opacity="0.6">
<path d="M149.508 190.68H154.347L154.122 196.017H149.742L149.508 190.68Z" fill="white"/>
<path d="M152.838 189.42L152.612 188.953H151.251L151.018 189.42L149.073 189.645V190.174H154.791V189.645L152.838 189.42Z" fill="white"/>
</g>
<g opacity="0.6">
<path d="M167.55 189.147H166.305C166.237 189.146 166.171 189.169 166.119 189.212C166.066 189.254 166.03 189.314 166.017 189.381L165.932 189.785H159.926H159.871H159.825C159.825 189.785 159.825 189.785 159.786 189.824V189.871V189.918C159.782 189.938 159.782 189.959 159.786 189.98L160.424 193.582C160.436 193.649 160.472 193.71 160.524 193.754C160.577 193.798 160.643 193.823 160.711 193.823H165.504C165.572 193.824 165.638 193.802 165.69 193.759C165.743 193.716 165.779 193.656 165.792 193.59L166.515 190.058C166.522 190.016 166.522 189.974 166.515 189.933L166.578 189.599H167.589C167.658 189.587 167.721 189.552 167.766 189.498C167.812 189.445 167.837 189.377 167.837 189.307C167.837 189.237 167.812 189.169 167.766 189.115C167.721 189.062 167.658 189.026 167.589 189.015L167.55 189.147ZM165.566 191.606H164.306L164.376 190.369H165.815L165.566 191.606ZM162.454 191.606L162.4 190.369H163.8L163.73 191.606H162.454ZM163.699 192.189L163.629 193.388H162.54L162.485 192.189H163.699ZM160.361 190.369H161.824L161.878 191.606H160.587L160.361 190.369ZM160.68 192.189H161.902L161.956 193.388H160.89L160.68 192.189ZM165.208 193.388H164.212L164.282 192.189H165.449L165.208 193.388Z" fill="white"/>
<path d="M160.914 194.562C160.769 194.561 160.627 194.602 160.505 194.682C160.384 194.761 160.289 194.875 160.233 195.008C160.176 195.142 160.16 195.289 160.188 195.431C160.215 195.574 160.284 195.705 160.386 195.808C160.488 195.911 160.618 195.981 160.76 196.01C160.902 196.039 161.05 196.025 161.184 195.97C161.318 195.915 161.433 195.821 161.513 195.701C161.594 195.58 161.637 195.439 161.637 195.294C161.637 195.101 161.561 194.916 161.426 194.779C161.29 194.642 161.106 194.564 160.914 194.562Z" fill="white"/>
<path d="M165.761 194.562C165.616 194.561 165.474 194.602 165.352 194.682C165.231 194.761 165.136 194.875 165.08 195.008C165.023 195.142 165.007 195.289 165.035 195.431C165.062 195.574 165.131 195.705 165.233 195.808C165.335 195.911 165.465 195.981 165.607 196.01C165.749 196.039 165.897 196.025 166.031 195.97C166.165 195.915 166.28 195.821 166.36 195.701C166.441 195.58 166.484 195.439 166.484 195.294C166.484 195.101 166.408 194.916 166.273 194.779C166.137 194.642 165.953 194.564 165.761 194.562Z" fill="white"/>
</g>
<path opacity="0.6" d="M186.098 204.723H95.2583C94.3216 204.723 93.5623 205.482 93.5623 206.419V243.203C93.5623 244.139 94.3216 244.899 95.2583 244.899H186.098C187.034 244.899 187.794 244.139 187.794 243.203V206.419C187.794 205.482 187.034 204.723 186.098 204.723Z" fill="#407BFF"/>
<path d="M130.634 208.636H97.7012V238.9H130.634V208.636Z" fill="#407BFF"/>
<path opacity="0.6" d="M130.634 208.636H97.7012V238.9H130.634V208.636Z" fill="white"/>
<path opacity="0.3" d="M129.039 210.231H99.3817V237.22H129.039V210.231Z" fill="white"/>
<path opacity="0.3" d="M129.039 231.509V237.22H99.3895L99.3817 224.025L105.505 218.672L114.584 227.526L119.392 224.025L129.039 231.509Z" fill="white"/>
<g opacity="0.6">
<path d="M124.099 218.665C124.099 219.137 123.959 219.599 123.696 219.992C123.434 220.384 123.061 220.69 122.624 220.871C122.188 221.052 121.708 221.099 121.244 221.007C120.781 220.915 120.355 220.688 120.021 220.353C119.687 220.019 119.46 219.594 119.368 219.131C119.276 218.667 119.323 218.187 119.504 217.751C119.684 217.314 119.991 216.941 120.383 216.679C120.776 216.416 121.238 216.276 121.71 216.276C122.024 216.275 122.335 216.336 122.626 216.456C122.916 216.576 123.18 216.751 123.402 216.973C123.624 217.195 123.799 217.459 123.919 217.749C124.039 218.04 124.1 218.351 124.099 218.665Z" fill="white"/>
<path opacity="0.3" d="M124.099 218.665C124.099 219.137 123.959 219.599 123.696 219.992C123.434 220.384 123.061 220.69 122.624 220.871C122.188 221.052 121.708 221.099 121.244 221.007C120.781 220.915 120.355 220.688 120.021 220.353C119.687 220.019 119.46 219.594 119.368 219.131C119.276 218.667 119.323 218.187 119.504 217.751C119.684 217.314 119.991 216.941 120.383 216.679C120.776 216.416 121.238 216.276 121.71 216.276C122.024 216.275 122.335 216.336 122.626 216.456C122.916 216.576 123.18 216.751 123.402 216.973C123.624 217.195 123.799 217.459 123.919 217.749C124.039 218.04 124.1 218.351 124.099 218.665Z" fill="white"/>
</g>
<g opacity="0.3">
<path d="M168.873 211.227H136.586C136.324 211.227 136.072 211.123 135.887 210.938C135.702 210.752 135.598 210.501 135.598 210.239C135.598 210.109 135.623 209.981 135.673 209.862C135.723 209.742 135.796 209.634 135.887 209.543C135.979 209.452 136.088 209.38 136.208 209.331C136.328 209.282 136.456 209.258 136.586 209.259H168.873C169.002 209.258 169.13 209.282 169.249 209.331C169.368 209.38 169.477 209.452 169.568 209.543C169.659 209.635 169.732 209.743 169.78 209.862C169.829 209.982 169.854 210.11 169.853 210.239C169.854 210.368 169.829 210.497 169.781 210.616C169.732 210.736 169.66 210.845 169.569 210.937C169.477 211.029 169.369 211.102 169.25 211.152C169.13 211.201 169.002 211.227 168.873 211.227Z" fill="white"/>
<path d="M181.484 217.132H136.586C136.456 217.133 136.328 217.108 136.208 217.06C136.088 217.011 135.979 216.939 135.887 216.848C135.796 216.756 135.723 216.648 135.673 216.529C135.623 216.409 135.598 216.281 135.598 216.152C135.598 215.89 135.702 215.638 135.887 215.453C136.072 215.268 136.324 215.164 136.586 215.164H181.484C181.746 215.164 181.997 215.268 182.183 215.453C182.368 215.638 182.472 215.89 182.472 216.152C182.472 216.281 182.447 216.409 182.397 216.529C182.347 216.648 182.274 216.756 182.182 216.848C182.09 216.939 181.981 217.011 181.862 217.06C181.742 217.108 181.613 217.133 181.484 217.132Z" fill="white"/>
<path d="M154.698 223.045H136.586C136.324 223.045 136.072 222.941 135.887 222.755C135.702 222.57 135.598 222.319 135.598 222.057C135.598 221.927 135.623 221.799 135.673 221.68C135.723 221.56 135.796 221.452 135.887 221.361C135.979 221.27 136.088 221.198 136.208 221.149C136.328 221.1 136.456 221.075 136.586 221.076H154.698C154.827 221.075 154.954 221.1 155.074 221.149C155.193 221.198 155.302 221.27 155.393 221.361C155.484 221.452 155.556 221.561 155.605 221.68C155.654 221.8 155.679 221.928 155.678 222.057C155.679 222.186 155.654 222.314 155.605 222.434C155.557 222.554 155.485 222.663 155.393 222.755C155.302 222.847 155.194 222.92 155.074 222.969C154.955 223.019 154.827 223.045 154.698 223.045Z" fill="white"/>
</g>
<path d="M135.987 233.089C136.858 231.673 138.531 232.217 139.386 233.314C140.25 232.21 141.915 231.665 142.794 233.081C144.265 235.469 141.238 237.687 139.807 238.527L139.402 238.776L138.99 238.527C137.558 237.694 134.516 235.485 135.987 233.089Z" fill="white"/>
<g opacity="0.6">
<path d="M149.508 233.462H154.347L154.122 238.807H149.742L149.508 233.462Z" fill="white"/>
<path d="M152.838 232.21L152.612 231.743H151.251L151.018 232.21L149.073 232.435V232.964H154.791V232.435L152.838 232.21Z" fill="white"/>
</g>
<g opacity="0.6">
<path d="M167.55 231.937H166.305C166.237 231.936 166.171 231.959 166.119 232.002C166.066 232.044 166.03 232.104 166.017 232.171L165.932 232.575H159.926H159.871H159.825L159.786 232.614V232.661V232.708C159.782 232.728 159.782 232.749 159.786 232.77L160.424 236.372C160.436 236.439 160.472 236.5 160.524 236.544C160.577 236.588 160.643 236.613 160.711 236.613H165.504C165.572 236.614 165.638 236.592 165.69 236.549C165.743 236.506 165.779 236.446 165.792 236.38L166.515 232.848C166.522 232.807 166.522 232.764 166.515 232.723L166.578 232.389H167.589C167.658 232.377 167.721 232.342 167.766 232.288C167.812 232.235 167.837 232.167 167.837 232.097C167.837 232.027 167.812 231.959 167.766 231.906C167.721 231.852 167.658 231.817 167.589 231.805L167.55 231.937ZM165.566 234.396H164.306L164.376 233.159H165.815L165.566 234.396ZM162.454 234.396L162.4 233.159H163.8L163.73 234.396H162.454ZM163.699 234.979L163.629 236.178H162.54L162.485 234.979H163.699ZM160.361 233.159H161.824L161.878 234.396H160.587L160.361 233.159ZM160.68 234.979H161.902L161.956 236.178H160.89L160.68 234.979ZM165.208 236.178H164.212L164.282 234.979H165.449L165.208 236.178Z" fill="white"/>
<path d="M160.914 237.352C160.769 237.351 160.627 237.392 160.505 237.472C160.384 237.551 160.289 237.665 160.233 237.798C160.176 237.932 160.16 238.079 160.188 238.222C160.215 238.364 160.284 238.495 160.386 238.598C160.488 238.701 160.618 238.771 160.76 238.8C160.902 238.829 161.05 238.815 161.184 238.76C161.318 238.705 161.433 238.611 161.513 238.491C161.594 238.37 161.637 238.229 161.637 238.084C161.637 237.891 161.561 237.706 161.426 237.569C161.29 237.432 161.106 237.354 160.914 237.352Z" fill="white"/>
<path d="M165.761 237.352C165.616 237.351 165.474 237.392 165.352 237.472C165.231 237.551 165.136 237.665 165.08 237.798C165.023 237.932 165.007 238.079 165.035 238.222C165.062 238.364 165.131 238.495 165.233 238.598C165.335 238.701 165.465 238.771 165.607 238.8C165.749 238.829 165.897 238.815 166.031 238.76C166.165 238.705 166.28 238.611 166.36 238.491C166.441 238.37 166.484 238.229 166.484 238.084C166.484 237.891 166.408 237.706 166.273 237.569C166.137 237.432 165.953 237.354 165.761 237.352Z" fill="white"/>
</g>
<path opacity="0.6" d="M186.098 119.143H95.2583C94.3216 119.143 93.5623 119.902 93.5623 120.839V157.623C93.5623 158.559 94.3216 159.319 95.2583 159.319H186.098C187.034 159.319 187.794 158.559 187.794 157.623V120.839C187.794 119.902 187.034 119.143 186.098 119.143Z" fill="#407BFF"/>
<path d="M130.634 123.056H97.7012V153.32H130.634V123.056Z" fill="#407BFF"/>
<path opacity="0.6" d="M130.634 123.056H97.7012V153.32H130.634V123.056Z" fill="white"/>
<path opacity="0.3" d="M129.039 124.651H99.3817V151.64H129.039V124.651Z" fill="white"/>
<path opacity="0.3" d="M129.039 145.93V151.64H99.3895L99.3817 138.445L105.505 133.093L114.584 141.946L119.392 138.445L129.039 145.93Z" fill="white"/>
<g opacity="0.6">
<path d="M124.099 133.085C124.099 133.557 123.959 134.019 123.696 134.412C123.434 134.804 123.061 135.111 122.624 135.291C122.188 135.472 121.708 135.519 121.244 135.427C120.781 135.335 120.355 135.108 120.021 134.774C119.687 134.44 119.46 134.014 119.368 133.551C119.276 133.087 119.323 132.607 119.504 132.171C119.684 131.734 119.991 131.361 120.383 131.099C120.776 130.836 121.238 130.696 121.71 130.696C122.024 130.695 122.335 130.756 122.626 130.876C122.916 130.996 123.18 131.172 123.402 131.394C123.624 131.616 123.799 131.879 123.919 132.17C124.039 132.46 124.1 132.771 124.099 133.085Z" fill="white"/>
<path opacity="0.3" d="M124.099 133.085C124.099 133.557 123.959 134.019 123.696 134.412C123.434 134.804 123.061 135.111 122.624 135.291C122.188 135.472 121.708 135.519 121.244 135.427C120.781 135.335 120.355 135.108 120.021 134.774C119.687 134.44 119.46 134.014 119.368 133.551C119.276 133.087 119.323 132.607 119.504 132.171C119.684 131.734 119.991 131.361 120.383 131.099C120.776 130.836 121.238 130.696 121.71 130.696C122.024 130.695 122.335 130.756 122.626 130.876C122.916 130.996 123.18 131.172 123.402 131.394C123.624 131.616 123.799 131.879 123.919 132.17C124.039 132.46 124.1 132.771 124.099 133.085Z" fill="white"/>
</g>
<g opacity="0.3">
<path d="M168.873 125.647H136.586C136.456 125.647 136.327 125.622 136.208 125.572C136.088 125.522 135.979 125.449 135.887 125.358C135.795 125.266 135.722 125.157 135.673 125.037C135.623 124.917 135.598 124.789 135.598 124.659C135.598 124.53 135.623 124.402 135.673 124.282C135.723 124.163 135.796 124.054 135.887 123.963C135.979 123.872 136.088 123.8 136.208 123.751C136.328 123.702 136.456 123.678 136.586 123.679H168.873C169.002 123.678 169.13 123.702 169.249 123.751C169.368 123.8 169.477 123.872 169.568 123.964C169.659 124.055 169.732 124.163 169.78 124.283C169.829 124.402 169.854 124.53 169.853 124.659C169.854 124.788 169.829 124.917 169.781 125.037C169.732 125.156 169.66 125.265 169.569 125.357C169.477 125.449 169.369 125.522 169.25 125.572C169.13 125.621 169.002 125.647 168.873 125.647Z" fill="white"/>
<path d="M181.484 131.552H136.586C136.456 131.553 136.328 131.529 136.208 131.48C136.088 131.431 135.979 131.359 135.887 131.268C135.796 131.177 135.723 131.068 135.673 130.949C135.623 130.829 135.598 130.701 135.598 130.572C135.598 130.31 135.702 130.058 135.887 129.873C136.072 129.688 136.324 129.584 136.586 129.584H181.484C181.746 129.584 181.997 129.688 182.183 129.873C182.368 130.058 182.472 130.31 182.472 130.572C182.472 130.701 182.447 130.829 182.397 130.949C182.347 131.068 182.274 131.177 182.182 131.268C182.09 131.359 181.981 131.431 181.862 131.48C181.742 131.529 181.613 131.553 181.484 131.552Z" fill="white"/>
<path d="M154.698 137.465H136.586C136.324 137.465 136.072 137.361 135.887 137.176C135.702 136.99 135.598 136.739 135.598 136.477C135.598 136.347 135.623 136.219 135.673 136.1C135.723 135.981 135.796 135.872 135.887 135.781C135.979 135.69 136.088 135.618 136.208 135.569C136.328 135.52 136.456 135.496 136.586 135.497H154.698C154.827 135.496 154.954 135.52 155.074 135.569C155.193 135.618 155.302 135.69 155.393 135.781C155.484 135.873 155.556 135.981 155.605 136.101C155.654 136.22 155.679 136.348 155.678 136.477C155.679 136.606 155.654 136.735 155.605 136.854C155.557 136.974 155.485 137.083 155.393 137.175C155.302 137.267 155.194 137.34 155.074 137.39C154.955 137.439 154.827 137.465 154.698 137.465Z" fill="white"/>
</g>
<path d="M135.987 147.509C136.858 146.093 138.531 146.637 139.386 147.734C140.25 146.63 141.915 146.085 142.794 147.501C144.265 149.889 141.238 152.107 139.807 152.947L139.402 153.196L138.99 152.947C137.558 152.114 134.516 149.905 135.987 147.509Z" fill="white"/>
<g opacity="0.6">
<path d="M149.508 147.89H154.347L154.122 153.227H149.742L149.508 147.89Z" fill="white"/>
<path d="M152.838 146.63L152.612 146.163H151.251L151.018 146.63L149.073 146.855V147.384H154.791V146.855L152.838 146.63Z" fill="white"/>
</g>
<g opacity="0.6">
<path d="M167.55 146.357H166.305C166.237 146.356 166.171 146.379 166.119 146.422C166.066 146.464 166.03 146.524 166.017 146.591L165.932 146.995H159.926H159.871H159.825C159.825 146.995 159.825 146.995 159.786 147.034V147.081V147.128C159.782 147.148 159.782 147.169 159.786 147.19L160.424 150.792C160.436 150.859 160.472 150.92 160.524 150.964C160.577 151.008 160.643 151.033 160.711 151.033H165.504C165.572 151.034 165.638 151.012 165.69 150.969C165.743 150.926 165.779 150.866 165.792 150.8L166.515 147.268C166.522 147.226 166.522 147.184 166.515 147.143L166.578 146.809H167.589C167.658 146.797 167.721 146.762 167.766 146.708C167.812 146.655 167.837 146.587 167.837 146.517C167.837 146.447 167.812 146.379 167.766 146.325C167.721 146.272 167.658 146.236 167.589 146.225L167.55 146.357ZM165.566 148.816H164.306L164.376 147.579H165.815L165.566 148.816ZM162.454 148.816L162.4 147.579H163.8L163.73 148.816H162.454ZM163.699 149.399L163.629 150.597H162.54L162.485 149.399H163.699ZM160.361 147.579H161.824L161.878 148.816H160.587L160.361 147.579ZM160.68 149.399H161.902L161.956 150.597H160.89L160.68 149.399ZM165.208 150.597H164.212L164.282 149.399H165.449L165.208 150.597Z" fill="white"/>
<path d="M160.914 151.772C160.769 151.771 160.627 151.812 160.505 151.892C160.384 151.971 160.289 152.085 160.233 152.218C160.176 152.352 160.16 152.499 160.188 152.641C160.215 152.784 160.284 152.915 160.386 153.018C160.488 153.121 160.618 153.191 160.76 153.22C160.902 153.249 161.05 153.235 161.184 153.18C161.318 153.125 161.433 153.031 161.513 152.911C161.594 152.79 161.637 152.649 161.637 152.504C161.637 152.311 161.561 152.126 161.426 151.989C161.29 151.852 161.106 151.774 160.914 151.772Z" fill="white"/>
<path d="M165.761 151.772C165.616 151.771 165.474 151.812 165.352 151.892C165.231 151.971 165.136 152.085 165.08 152.218C165.023 152.352 165.007 152.499 165.035 152.641C165.062 152.784 165.131 152.915 165.233 153.018C165.335 153.121 165.465 153.191 165.607 153.22C165.749 153.249 165.897 153.235 166.031 153.18C166.165 153.125 166.28 153.031 166.36 152.911C166.441 152.79 166.484 152.649 166.484 152.504C166.484 152.311 166.408 152.126 166.273 151.989C166.137 151.852 165.953 151.774 165.761 151.772Z" fill="white"/>
</g>
<path d="M258.42 183.702L251.963 189.505C251.963 189.505 254.46 191.474 255.137 192.166C255.814 192.859 252.189 195.138 251.115 194.5C250.041 193.862 248.423 191.015 247.809 189.832C247.194 188.65 250.143 186.759 250.143 186.759L255.363 181.679L258.42 183.702Z" fill="#B97964"/>
<path d="M269.118 171.16C268.892 175.828 257.028 185.67 257.028 185.67L253.293 183.219C253.293 183.219 262.793 173.175 261.556 170.141C261.12 169.075 259.611 167.729 257.845 166.446C255.474 164.781 253.003 163.263 250.446 161.902L253.177 155.188L255.332 149.897C259.346 151.539 269.351 166.539 269.118 171.16Z" fill="#407BFF"/>
<path opacity="0.2" d="M257.845 166.492C255.474 164.827 253.003 163.31 250.446 161.949L253.177 155.234C255.402 157.529 258.833 161.964 257.845 166.492Z" fill="black"/>
<path d="M193.613 153.608L180.216 148.162C180.216 148.162 179.173 146.428 178.279 146.202C177.384 145.976 171.86 146.319 171.44 146.98C171.02 147.641 171.884 151.827 172.996 152.177C174.109 152.527 178.854 151.555 179.267 151.29L191.24 157.413L193.613 153.608Z" fill="#B97964"/>
<path d="M270.083 319.439L265.197 320.303L263.197 313.643L261.369 307.536L267.002 305.567L268.636 312.912L270.083 319.439Z" fill="#B97964"/>
<path opacity="0.2" d="M268.659 313.059L263.221 313.775L261.377 307.598L267.002 305.598L268.659 313.059Z" fill="black"/>
<path d="M237.477 319.564H232.521L231.704 312.912L230.965 306.695L236.854 305.801L237.189 313.098L237.477 319.564Z" fill="#B97964"/>
<path opacity="0.2" d="M237.189 313.542L231.704 313.301L230.965 306.89L236.854 305.902L237.189 313.542Z" fill="black"/>
<path d="M269.118 307.722L261.089 309.138C252.99 288.91 247.225 272.098 243.195 258.117C241.001 250.571 239.266 243.864 237.951 237.889L238.294 259.86V309.426H230.156C210.324 215.288 224.383 193.403 224.383 193.403L248.104 189.435C249.044 193.832 249.709 198.283 250.096 202.762L251.162 210.628L260.435 258.529L269.118 307.722Z" fill="#407BFF"/>
<g opacity="0.5">
<path d="M269.118 307.723L261.089 309.138C253.69 290.692 248.236 275.039 244.253 261.813C243.872 260.56 243.475 259.331 243.125 258.117C241.133 251.271 239.811 245.109 238.255 239.585C238.192 239.021 238.066 238.465 237.881 237.928L238.255 259.899V309.465H230.156C218.042 251.893 218.571 221.326 220.82 206.295C222.251 196.71 224.383 193.528 224.383 193.528L248.104 189.521C249.045 193.91 249.71 198.353 250.096 202.825L250.415 205.159L251.193 210.651L260.467 258.545L269.118 307.723Z" fill="white"/>
</g>
<path d="M259.836 308.142L269.795 304.844L269.655 309.076L261.424 311.706L259.836 308.142Z" fill="#407BFF"/>
<path opacity="0.6" d="M259.836 308.142L269.795 304.844L269.655 309.076L261.424 311.706L259.836 308.142Z" fill="white"/>
<path d="M229.09 308.602L239.476 307.084L238.605 311.231L230.039 312.39L229.09 308.602Z" fill="#407BFF"/>
<path opacity="0.6" d="M229.09 308.602L239.476 307.084L238.605 311.231L230.039 312.39L229.09 308.602Z" fill="white"/>
<path opacity="0.2" d="M244.292 261.813C243.911 260.56 243.514 259.331 243.164 258.117C241.18 251.271 239.85 245.109 238.294 239.585L237.516 229.409C237.516 229.409 242.588 218.229 240.69 210.356C240.861 210.807 244.222 219.381 242.907 227.939C242.6 239.248 243.062 250.566 244.292 261.813Z" fill="black"/>
<path d="M243.343 141.962C243.292 142.022 243.234 142.077 243.172 142.125C242.356 142.932 241.388 143.57 240.324 144C237.212 145.159 234.948 144.996 233.322 143.728C231.035 141.806 230.039 138.002 229.72 133.303C229.533 131.438 229.643 129.555 230.047 127.724C230.043 127.699 230.043 127.672 230.047 127.647C230.047 127.584 230.047 127.499 230.101 127.437C230.368 126.4 230.89 125.447 231.619 124.664C232.349 123.881 233.264 123.294 234.279 122.955C235.157 122.635 236.068 122.411 236.994 122.286C246.074 121.026 249.645 135.878 243.343 141.962Z" fill="#B97964"/>
<path opacity="0.2" d="M243.172 142.125C242.34 142.893 241.364 143.488 240.301 143.876C237.189 145.027 234.917 144.763 233.299 143.471C235.281 143.703 237.285 143.276 239.002 142.257C239.642 141.922 240.349 141.736 241.071 141.713C241.794 141.69 242.512 141.831 243.172 142.125Z" fill="black"/>
<path d="M245.716 149.151C247.155 151.399 244.354 153.57 244.354 153.57C238.348 153.282 236.364 150.878 236.364 150.878C239.857 146.988 236.24 141.106 236.24 141.106L237.282 141.207L243.903 140.134C243.903 140.134 243.413 144.024 243.46 144.887C243.747 149.259 245.716 149.151 245.716 149.151Z" fill="#B97964"/>
<path d="M230.031 127.67C230.031 127.67 230.35 134.104 236.738 136.072C236.738 136.072 240.184 142.359 244.012 141.962C249.24 141.425 252.873 133.404 250.104 126.114C246.517 116.63 231.587 117.735 230.031 127.67Z" fill="#263238"/>
<path d="M233.447 134.633C233.322 133.637 233.906 131.863 235.485 131.894C237.064 131.926 238.504 135.784 234.707 137.138C234.178 137.34 233.711 136.71 233.447 134.633Z" fill="#B97964"/>
<path d="M231.992 318.622H237.531C237.645 318.625 237.756 318.665 237.844 318.737C237.933 318.808 237.995 318.908 238.021 319.019L239.157 324.154C239.18 324.263 239.181 324.376 239.16 324.486C239.139 324.595 239.096 324.7 239.035 324.793C238.974 324.886 238.894 324.967 238.802 325.029C238.709 325.092 238.605 325.135 238.496 325.158C238.434 325.166 238.371 325.166 238.309 325.158C236.045 325.119 235.866 324.979 233.019 324.979C231.268 324.979 225.978 325.165 223.558 325.165C221.139 325.165 220.827 322.777 221.816 322.551C226.258 321.586 229.596 320.217 231.027 318.965C231.293 318.732 231.638 318.609 231.992 318.622Z" fill="#263238"/>
<path d="M230.086 319.634C229.696 319.665 229.306 319.563 228.981 319.346C228.864 319.257 228.776 319.136 228.725 318.998C228.674 318.861 228.663 318.711 228.693 318.568C228.692 318.489 228.714 318.411 228.755 318.344C228.796 318.276 228.856 318.222 228.926 318.187C229.564 317.86 231.432 319.004 231.634 319.136C231.658 319.147 231.677 319.167 231.688 319.191C231.7 319.215 231.702 319.242 231.696 319.268C231.694 319.296 231.683 319.322 231.664 319.343C231.646 319.364 231.622 319.378 231.595 319.385C231.103 319.523 230.596 319.606 230.086 319.634ZM229.23 318.443C229.171 318.428 229.11 318.428 229.051 318.443C229.051 318.443 228.973 318.498 228.965 318.607C228.954 318.697 228.965 318.788 228.996 318.873C229.027 318.958 229.078 319.035 229.144 319.097C229.79 319.392 230.525 319.431 231.198 319.206C230.598 318.827 229.929 318.568 229.23 318.443Z" fill="#407BFF"/>
<path d="M231.564 319.431H231.494C230.903 319.112 229.751 317.836 229.868 317.23C229.888 317.129 229.942 317.038 230.022 316.973C230.101 316.907 230.201 316.872 230.304 316.872C230.408 316.861 230.513 316.871 230.614 316.902C230.714 316.932 230.807 316.983 230.887 317.051C231.556 317.588 231.665 319.245 231.665 319.33C231.666 319.355 231.661 319.379 231.65 319.401C231.64 319.423 231.623 319.441 231.603 319.455C231.588 319.45 231.575 319.442 231.564 319.431ZM230.405 317.097H230.335C230.164 317.097 230.148 317.206 230.14 317.237C230.062 317.611 230.801 318.576 231.393 319.019C231.352 318.362 231.113 317.733 230.708 317.214C230.624 317.139 230.517 317.095 230.405 317.09V317.097Z" fill="#407BFF"/>
<path d="M265.01 318.622H270.542C270.657 318.622 270.768 318.661 270.858 318.733C270.947 318.805 271.009 318.906 271.032 319.019L272.168 324.154C272.192 324.263 272.194 324.375 272.174 324.485C272.154 324.594 272.112 324.699 272.051 324.792C271.99 324.886 271.912 324.966 271.819 325.029C271.727 325.091 271.623 325.135 271.514 325.157H271.328C269.064 325.118 268.877 324.978 266.037 324.978C264.279 324.978 258.996 325.165 256.577 325.165C254.157 325.165 253.838 322.777 254.834 322.551C259.276 321.586 262.614 320.217 264.038 318.964C264.307 318.731 264.654 318.608 265.01 318.622Z" fill="#263238"/>
<path d="M263.104 319.634C262.711 319.666 262.319 319.564 261.991 319.346C261.88 319.252 261.796 319.131 261.747 318.994C261.698 318.858 261.685 318.711 261.711 318.568C261.71 318.489 261.731 318.41 261.772 318.343C261.813 318.275 261.873 318.221 261.945 318.187C262.583 317.86 264.442 319.004 264.652 319.136C264.675 319.148 264.694 319.168 264.705 319.192C264.716 319.216 264.719 319.242 264.714 319.268C264.711 319.295 264.699 319.321 264.681 319.342C264.663 319.362 264.64 319.377 264.613 319.385C264.121 319.522 263.615 319.605 263.104 319.634ZM262.24 318.443C262.184 318.429 262.125 318.429 262.069 318.443C262.03 318.443 261.984 318.498 261.984 318.607C261.971 318.697 261.98 318.789 262.012 318.874C262.043 318.96 262.095 319.036 262.163 319.097C262.809 319.392 263.543 319.431 264.217 319.206C263.614 318.825 262.943 318.566 262.24 318.443Z" fill="#407BFF"/>
<path d="M264.574 319.431H264.52C263.921 319.112 262.77 317.836 262.886 317.23C262.909 317.129 262.965 317.039 263.046 316.974C263.126 316.909 263.226 316.873 263.33 316.872C263.433 316.862 263.537 316.872 263.636 316.903C263.734 316.934 263.826 316.984 263.905 317.051C264.574 317.588 264.683 319.245 264.722 319.33C264.722 319.354 264.716 319.378 264.705 319.399C264.694 319.421 264.679 319.44 264.66 319.455C264.63 319.457 264.599 319.449 264.574 319.431ZM263.415 317.097H263.353C263.174 317.097 263.158 317.206 263.151 317.237C263.081 317.611 263.812 318.576 264.403 319.019C264.369 318.362 264.132 317.732 263.726 317.214C263.64 317.138 263.53 317.094 263.415 317.09V317.097Z" fill="#407BFF"/>
<path d="M224.383 193.512C224.383 193.512 221.271 163.232 229.051 150.87C229.051 150.87 239.943 147.089 255.332 149.928C255.332 149.928 249.582 171.191 248.913 193.496L224.383 193.512Z" fill="#263238"/>
<path d="M253.247 187.949L227.573 188.626C225.823 184.254 224.74 179.643 224.36 174.949C224.058 171.451 224.014 167.935 224.227 164.43C224.43 160.505 224.951 156.602 225.783 152.76C232.342 145.533 255.285 149.905 255.285 149.905C251.839 166.329 253.247 187.949 253.247 187.949Z" fill="#407BFF"/>
<path d="M231.066 123.119C230.903 122.691 228.569 124.877 228.46 125.04C227.957 125.745 227.662 126.576 227.608 127.44C227.554 128.303 227.744 129.165 228.156 129.926C229.067 131.482 230.957 132.564 231.12 134.361C231.191 135.185 230.864 135.994 230.864 136.827C230.916 137.924 231.386 138.96 232.179 139.721C233.696 141.277 236.185 141.938 236.341 144.459C236.319 145.565 236.238 146.668 236.1 147.766C236.036 148.317 236.104 148.876 236.297 149.397C236.49 149.917 236.804 150.385 237.212 150.761C237.904 151.141 238.645 151.424 239.414 151.601C240.153 151.873 240.9 152.48 240.869 153.266C240.754 153.764 240.581 154.247 240.355 154.705C240.269 155.163 240.318 155.635 240.496 156.065C240.674 156.495 240.974 156.863 241.359 157.125C242.861 158.276 245.311 158.152 246.517 159.747C246.726 159.97 246.883 160.237 246.977 160.527C247.072 160.818 247.101 161.125 247.064 161.429C247.027 161.732 246.924 162.023 246.762 162.282C246.601 162.542 246.384 162.762 246.128 162.929C246.128 162.929 249.022 163.131 249.536 160.361C249.76 161.056 249.703 161.811 249.375 162.463C249.048 163.115 248.476 163.612 247.785 163.847C247.785 163.847 250.539 164.259 251.061 160.774C251.298 161.255 251.693 161.64 252.18 161.864C252.668 162.088 253.218 162.137 253.737 162.003C253.737 162.003 251.605 161.272 253.239 158.969C254.173 157.654 255.402 156.308 255.573 154.635C255.791 152.768 254.25 151.344 254.515 149.469C254.756 147.711 256.429 146.443 256.849 144.716C257.073 143.607 256.87 142.454 256.281 141.487C255.386 139.931 253.605 139.153 253.605 137.177C253.605 135.621 254.235 134.112 254.569 132.579C254.87 131.512 254.782 130.373 254.32 129.366C253.823 128.625 253.202 127.975 252.484 127.444C250.392 125.569 251.473 122.628 249.59 120.567C249.155 120.081 248.613 119.701 248.007 119.459C247.401 119.216 246.748 119.116 246.097 119.166C245.346 119.314 244.606 119.509 243.88 119.75C242.324 120.131 241.39 119.353 240.2 118.544C238.27 117.237 235.485 116.622 233.314 117.711C232.352 118.192 231.595 119.003 231.183 119.996C230.77 120.989 230.728 122.098 231.066 123.119Z" fill="#263238"/>
<path d="M234.8 142.164C234.212 142.2 233.623 142.115 233.069 141.914C232.515 141.714 232.008 141.401 231.579 140.997C230.568 139.947 230.444 138.492 230.451 137.107V136.734C230.451 135.294 230.451 134.057 229.673 132.844C229.424 132.462 229.129 132.066 228.849 131.739C228.275 131.085 227.803 130.348 227.448 129.553C227.255 129.069 227.163 128.55 227.18 128.03C227.196 127.509 227.319 126.997 227.542 126.526C228.631 124.192 231.634 123.049 232.529 122.753C232.574 122.736 232.624 122.739 232.668 122.759C232.712 122.779 232.746 122.816 232.762 122.862C232.779 122.907 232.776 122.957 232.756 123.001C232.735 123.045 232.699 123.079 232.653 123.095C230.871 123.694 228.685 124.955 227.876 126.682C227.672 127.107 227.559 127.57 227.544 128.042C227.529 128.514 227.613 128.983 227.791 129.42C228.129 130.18 228.583 130.884 229.137 131.505C229.424 131.871 229.72 132.245 229.977 132.641C230.833 133.941 230.817 135.294 230.801 136.726V137.099C230.801 138.437 230.91 139.814 231.828 140.764C233.112 142.086 235.166 141.907 236.815 141.604C236.862 141.599 236.909 141.611 236.947 141.639C236.985 141.667 237.011 141.708 237.02 141.754C237.028 141.8 237.019 141.848 236.995 141.888C236.97 141.928 236.931 141.957 236.885 141.97C236.197 142.094 235.5 142.159 234.8 142.164Z" fill="#263238"/>
<path d="M253.379 160.393C253.35 160.392 253.322 160.385 253.296 160.371C253.27 160.358 253.248 160.338 253.231 160.315C252.562 159.35 254.009 157.709 255.021 156.619C255.234 156.396 255.437 156.163 255.627 155.919C256.076 155.389 256.34 154.726 256.377 154.033C256.415 153.339 256.226 152.652 255.838 152.076L255.565 151.695C254.943 150.823 254.235 149.827 254.787 148.629C255.029 148.156 255.335 147.719 255.697 147.33C256.022 146.99 256.3 146.608 256.522 146.194C256.885 145.487 256.956 144.666 256.719 143.908C256.481 143.149 255.955 142.515 255.254 142.141C255.233 142.129 255.214 142.114 255.199 142.095C255.184 142.076 255.172 142.055 255.166 142.031C255.159 142.008 255.158 141.984 255.161 141.96C255.164 141.936 255.172 141.913 255.184 141.892C255.211 141.851 255.252 141.822 255.299 141.809C255.346 141.796 255.397 141.8 255.441 141.822C256.217 142.249 256.797 142.96 257.059 143.806C257.322 144.652 257.247 145.566 256.849 146.358C256.611 146.797 256.318 147.205 255.978 147.571C255.637 147.931 255.349 148.337 255.122 148.777C254.671 149.789 255.262 150.613 255.9 151.485L256.172 151.874C256.604 152.51 256.816 153.27 256.777 154.038C256.738 154.806 256.449 155.54 255.954 156.129C255.759 156.388 255.548 156.634 255.324 156.868C254.476 157.802 253.06 159.381 253.558 160.105C253.586 160.144 253.598 160.193 253.59 160.241C253.583 160.289 253.558 160.332 253.519 160.362C253.478 160.389 253.428 160.401 253.379 160.393Z" fill="#263238"/>
<path opacity="0.2" d="M224.383 174.949C224.082 171.451 224.037 167.935 224.251 164.43C227.106 162.05 229.323 160.354 229.323 160.354C229.323 160.354 230.156 169.293 224.383 174.949Z" fill="black"/>
<path d="M230.498 150.154C230.498 150.154 232.568 160.587 224.181 165.823C224.181 165.823 204.116 165.769 200.304 164.524C196.492 163.279 184.868 155.631 184.868 155.631L187.801 150.535C187.801 150.535 199.02 154.511 202.404 155.631C205.789 156.751 230.498 150.154 230.498 150.154Z" fill="#407BFF"/>
<path d="M256.688 106.083L280.682 106.05C282.267 106.047 283.551 104.76 283.548 103.175L283.515 79.1813C283.513 77.5958 282.226 76.3123 280.64 76.3145L256.647 76.348C255.061 76.3502 253.778 77.6373 253.78 79.2229L253.813 103.216C253.816 104.802 255.103 106.085 256.688 106.083Z" fill="#407BFF"/>
<path d="M271.872 104.563C271.872 104.563 267.982 113.479 259.222 116.233C259.222 116.233 264.053 113.456 263.695 104.159L271.872 104.563Z" fill="#407BFF"/>
<g opacity="0.7">
<path d="M271.359 86.7937C271.359 85.3233 270.145 84.3119 268.075 84.3119C267.295 84.2637 266.513 84.403 265.797 84.7184C265.081 85.0338 264.451 85.516 263.96 86.1246L262.279 84.9343C263.547 83.3005 265.547 82.3591 268.231 82.3591C271.545 82.3591 273.677 83.9151 273.677 86.4514C273.677 90.287 269.608 90.5437 269.608 93.5546H267.274C267.313 89.9446 271.359 89.47 271.359 86.7937ZM266.994 97.3045C266.997 97.0116 267.087 96.7262 267.251 96.484C267.416 96.2419 267.649 96.0538 267.92 95.9435C268.192 95.8332 268.489 95.8056 268.776 95.864C269.064 95.9225 269.327 96.0644 269.533 96.2721C269.74 96.4797 269.881 96.7438 269.938 97.0311C269.995 97.3184 269.965 97.6161 269.854 97.8869C269.742 98.1577 269.553 98.3894 269.31 98.5529C269.067 98.7164 268.781 98.8045 268.488 98.8061C268.29 98.8103 268.093 98.7744 267.909 98.7003C267.726 98.6263 267.559 98.5157 267.419 98.3753C267.28 98.2349 267.17 98.0676 267.097 97.8835C267.024 97.6995 266.989 97.5025 266.994 97.3045Z" fill="white"/>
</g>
<rect opacity="0.35" x="355.333" y="17.8335" width="21" height="10.3333" rx="2.16667" stroke="#27374D"/>
<path opacity="0.4" d="M377.833 21.0002V25.0002C378.638 24.6615 379.161 23.8734 379.161 23.0002C379.161 22.1271 378.638 21.339 377.833 21.0002Z" fill="#27374D"/>
<rect x="356.833" y="19.3335" width="18" height="7.33333" rx="1.33333" fill="#27374D"/>
<path fill-rule="evenodd" clip-rule="evenodd" d="M342.167 19.615C344.392 19.6151 346.531 20.4693 348.144 22.0008C348.265 22.1191 348.459 22.1176 348.579 21.9975L349.739 20.8272C349.8 20.7663 349.834 20.6837 349.833 20.5979C349.833 20.5121 349.798 20.4299 349.737 20.3697C345.505 16.3175 338.829 16.3175 334.597 20.3697C334.535 20.4299 334.501 20.512 334.5 20.5978C334.499 20.6837 334.533 20.7662 334.594 20.8272L335.755 21.9975C335.874 22.1178 336.068 22.1193 336.19 22.0008C337.802 20.4692 339.942 19.615 342.167 19.615ZM342.167 23.4226C343.389 23.4226 344.568 23.8765 345.474 24.6963C345.597 24.8126 345.79 24.8101 345.909 24.6906L347.069 23.5203C347.13 23.4589 347.163 23.3756 347.163 23.2891C347.162 23.2025 347.126 23.12 347.064 23.0598C344.305 20.4954 340.032 20.4954 337.273 23.0598C337.21 23.12 337.175 23.2026 337.174 23.2891C337.173 23.3757 337.207 23.459 337.268 23.5203L338.427 24.6906C338.547 24.8101 338.74 24.8126 338.862 24.6963C339.768 23.877 340.946 23.4231 342.167 23.4226ZM344.489 25.9845C344.491 26.0712 344.457 26.1549 344.395 26.2157L342.39 28.2377C342.331 28.2971 342.251 28.3306 342.167 28.3306C342.083 28.3306 342.003 28.2971 341.945 28.2377L339.939 26.2157C339.877 26.1549 339.843 26.0712 339.845 25.9844C339.847 25.8976 339.884 25.8154 339.949 25.7573C341.229 24.675 343.105 24.675 344.386 25.7573C344.45 25.8155 344.488 25.8977 344.489 25.9845Z" fill="#27374D"/>
<path fill-rule="evenodd" clip-rule="evenodd" d="M328.5 17.6665H327.5C326.948 17.6665 326.5 18.1142 326.5 18.6665V27.3332C326.5 27.8855 326.948 28.3332 327.5 28.3332H328.5C329.052 28.3332 329.5 27.8855 329.5 27.3332V18.6665C329.5 18.1142 329.052 17.6665 328.5 17.6665ZM322.833 19.9998H323.833C324.386 19.9998 324.833 20.4476 324.833 20.9998V27.3332C324.833 27.8855 324.386 28.3332 323.833 28.3332H322.833C322.281 28.3332 321.833 27.8855 321.833 27.3332V20.9998C321.833 20.4476 322.281 19.9998 322.833 19.9998ZM319.167 22.3332H318.167C317.614 22.3332 317.167 22.7809 317.167 23.3332V27.3332C317.167 27.8855 317.614 28.3332 318.167 28.3332H319.167C319.719 28.3332 320.167 27.8855 320.167 27.3332V23.3332C320.167 22.7809 319.719 22.3332 319.167 22.3332ZM314.5 24.3332H313.5C312.948 24.3332 312.5 24.7809 312.5 25.3332V27.3332C312.5 27.8855 312.948 28.3332 313.5 28.3332H314.5C315.052 28.3332 315.5 27.8855 315.5 27.3332V25.3332C315.5 24.7809 315.052 24.3332 314.5 24.3332Z" fill="#27374D"/>
<path d="M31.0328 27.1491C30.2658 27.1491 29.584 27.0178 28.9874 26.755C28.3943 26.4922 27.9256 26.1264 27.5811 25.6577C27.2367 25.1889 27.0538 24.6474 27.0325 24.033H29.0353C29.0531 24.3278 29.1507 24.5852 29.3283 24.8054C29.5058 25.022 29.742 25.1907 30.0367 25.3114C30.3315 25.4322 30.6617 25.4925 31.0275 25.4925C31.4181 25.4925 31.7644 25.4251 32.0662 25.2901C32.3681 25.1516 32.6042 24.9599 32.7747 24.7148C32.9451 24.4698 33.0286 24.1875 33.025 23.8679C33.0286 23.5376 32.9433 23.2464 32.7693 22.9943C32.5953 22.7422 32.3432 22.5451 32.0129 22.4031C31.6862 22.261 31.2921 22.19 30.8304 22.19H29.8663V20.6665H30.8304C31.2104 20.6665 31.5424 20.6009 31.8265 20.4695C32.1142 20.3381 32.3396 20.1534 32.503 19.9155C32.6664 19.674 32.7463 19.3952 32.7427 19.0792C32.7463 18.7702 32.677 18.5021 32.535 18.2749C32.3965 18.044 32.1994 17.8647 31.9437 17.7369C31.6916 17.609 31.395 17.5451 31.0541 17.5451C30.7203 17.5451 30.4114 17.6055 30.1273 17.7262C29.8432 17.8469 29.6142 18.0192 29.4401 18.2429C29.2661 18.4631 29.1738 18.7259 29.1632 19.0312H27.2615C27.2757 18.4205 27.4515 17.8842 27.7889 17.4226C28.1298 16.9574 28.5843 16.5952 29.1525 16.3359C29.7207 16.0732 30.3581 15.9418 31.0648 15.9418C31.7928 15.9418 32.4249 16.0785 32.9611 16.3519C33.5009 16.6218 33.9181 16.9858 34.2129 17.4439C34.5076 17.902 34.655 18.408 34.655 18.962C34.6585 19.5763 34.4774 20.0913 34.1117 20.5067C33.7495 20.9222 33.2736 21.1939 32.6841 21.3217V21.407C33.4512 21.5135 34.0389 21.7976 34.4472 22.2592C34.8592 22.7173 35.0634 23.2873 35.0598 23.9691C35.0598 24.5799 34.8858 25.1268 34.5378 25.6097C34.1933 26.0891 33.7175 26.4656 33.1102 26.739C32.5066 27.0124 31.8141 27.1491 31.0328 27.1491ZM37.7974 25.6896C37.4742 25.6896 37.1972 25.576 36.9664 25.3487C36.7356 25.1179 36.6219 24.8409 36.6255 24.5178C36.6219 24.1982 36.7356 23.9247 36.9664 23.6974C37.1972 23.4702 37.4742 23.3565 37.7974 23.3565C38.1099 23.3565 38.3815 23.4702 38.6124 23.6974C38.8467 23.9247 38.9657 24.1982 38.9692 24.5178C38.9657 24.7344 38.9089 24.9315 38.7988 25.109C38.6923 25.2866 38.5502 25.4286 38.3727 25.5352C38.1987 25.6381 38.0069 25.6896 37.7974 25.6896ZM37.7974 20.283C37.4742 20.283 37.1972 20.1694 36.9664 19.9421C36.7356 19.7113 36.6219 19.4343 36.6255 19.1112C36.6219 18.7915 36.7356 18.5181 36.9664 18.2908C37.1972 18.06 37.4742 17.9446 37.7974 17.9446C38.1099 17.9446 38.3815 18.06 38.6124 18.2908C38.8467 18.5181 38.9657 18.7915 38.9692 19.1112C38.9657 19.3242 38.9089 19.5195 38.7988 19.6971C38.6923 19.8746 38.5502 20.0167 38.3727 20.1232C38.1987 20.2298 38.0069 20.283 37.7974 20.283ZM40.4417 24.9759V23.4045L45.0706 16.0909H46.381V18.3281H45.582L42.4659 23.266V23.3512H48.9271V24.9759H40.4417ZM45.6459 27V24.4964L45.6672 23.7933V16.0909H47.5316V27H45.6459ZM54.1216 27.1491C53.4114 27.1491 52.7758 27.016 52.2147 26.7496C51.6536 26.4798 51.2079 26.1104 50.8777 25.6417C50.551 25.1729 50.377 24.6367 50.3557 24.033H52.2733C52.3088 24.4805 52.5023 24.8462 52.8539 25.1303C53.2055 25.4109 53.628 25.5511 54.1216 25.5511C54.5087 25.5511 54.8532 25.4624 55.155 25.2848C55.4569 25.1072 55.6948 24.8604 55.8688 24.5444C56.0428 24.2283 56.128 23.8679 56.1245 23.4631C56.128 23.0511 56.041 22.6854 55.8635 22.3658C55.6859 22.0462 55.4427 21.7958 55.1337 21.6147C54.8248 21.43 54.4697 21.3377 54.0684 21.3377C53.7417 21.3342 53.4203 21.3945 53.1042 21.5188C52.7882 21.6431 52.5378 21.8065 52.3532 22.0089L50.5687 21.7159L51.1387 16.0909H57.4668V17.7422H52.774L52.4597 20.6346H52.5236C52.7261 20.3967 53.0119 20.1996 53.3812 20.0433C53.7506 19.8835 54.1554 19.8036 54.5957 19.8036C55.2562 19.8036 55.8457 19.9599 56.3642 20.2724C56.8827 20.5813 57.291 21.0075 57.5893 21.5508C57.8876 22.0941 58.0368 22.7156 58.0368 23.4151C58.0368 24.136 57.8699 24.7788 57.5361 25.3434C57.2058 25.9045 56.7459 26.3466 56.1564 26.6697C55.5705 26.9893 54.8922 27.1491 54.1216 27.1491Z" fill="#27374D"/>
</g>
<defs>
<clipPath id="clip0_184_3458">
<rect width="389" height="389" fill="white"/>
</clipPath>
</defs>
</svg>
