<svg width="113" height="202" viewBox="0 0 113 202" fill="none" xmlns="http://www.w3.org/2000/svg">
<path d="M94.8239 202L16.8912 201.684C12.3906 201.662 8.08388 200.071 4.91685 197.258C1.74983 194.446 -0.0185279 190.643 0.000146414 186.685L0.827141 14.8625C0.836339 12.9015 1.28488 10.9613 2.14715 9.1528C3.00941 7.34433 4.26848 5.70305 5.85238 4.32277C7.43628 2.9425 9.31396 1.85029 11.3781 1.1086C13.4422 0.3669 15.6523 -0.00974304 17.882 0.000191525L95.8069 0.315826C100.307 0.335799 104.615 1.92595 107.784 4.73703C110.952 7.54812 112.722 11.3503 112.706 15.3085L111.879 187.124C111.87 189.085 111.421 191.026 110.559 192.836C109.697 194.645 108.438 196.287 106.854 197.668C105.271 199.05 103.393 200.143 101.329 200.886C99.2648 201.63 97.0544 202.008 94.8239 202Z" fill="#455A64"/>
</svg>
