<svg width="15" height="4" viewBox="0 0 15 4" fill="none" xmlns="http://www.w3.org/2000/svg">
<g opacity="0.5">
<path d="M2.38233 3.49443V3.94641H0V0.295703H2.34329V0.747688H0.499901V1.86029H2.14802V2.3036H0.499901V3.48573L2.38233 3.49443Z" fill="black"/>
<path d="M2.81975 2.29485H4.08513V2.72946H2.81975V2.29485Z" fill="black"/>
<path d="M8.89669 2.35575V3.94641H8.45146V2.4166C8.45146 1.86899 8.21714 1.60821 7.81097 1.60821C7.70232 1.59634 7.59266 1.61218 7.49033 1.65452C7.388 1.69686 7.29568 1.76459 7.22039 1.85257C7.1451 1.94054 7.08881 2.04646 7.05579 2.16226C7.02278 2.27807 7.01392 2.40072 7.02987 2.5209V3.94641H6.58464V2.4166C6.58464 1.86899 6.35031 1.60821 5.93633 1.60821C5.82768 1.59634 5.71802 1.61218 5.61569 1.65452C5.51337 1.69686 5.42105 1.76459 5.34576 1.85257C5.27047 1.94054 5.21418 2.04646 5.18117 2.16226C5.14815 2.27807 5.13928 2.40072 5.15523 2.5209V3.94641H4.80374V1.1823H5.23335V1.59953C5.33028 1.45189 5.45912 1.33385 5.60795 1.25636C5.75677 1.17887 5.92077 1.14442 6.08474 1.15622C6.258 1.14209 6.43132 1.18273 6.58472 1.27347C6.73812 1.3642 6.86536 1.50134 6.95176 1.66906C7.0601 1.50255 7.20386 1.36854 7.37017 1.27904C7.53648 1.18954 7.72013 1.14734 7.90469 1.15622C8.04432 1.14848 8.18377 1.17501 8.31314 1.23394C8.44252 1.29288 8.55867 1.38277 8.65334 1.49724C8.748 1.61172 8.81888 1.74797 8.86093 1.89634C8.90299 2.0447 8.9152 2.20155 8.89669 2.35575Z" fill="black"/>
<path d="M11.7008 2.27743V3.94632H11.2712V3.59863C11.18 3.7309 11.0612 3.83643 10.9251 3.9061C10.789 3.97577 10.6397 4.00748 10.4901 3.99847C9.92772 3.99847 9.56842 3.65947 9.56842 3.1814C9.56842 2.70333 9.82619 2.37303 10.5682 2.37303H11.279V2.27743C11.279 1.85151 11.0603 1.60811 10.6151 1.60811C10.3324 1.60675 10.0574 1.71079 9.83399 1.90364L9.64653 1.52989C9.94125 1.28504 10.3022 1.15933 10.6698 1.1735C11.3103 1.15612 11.7008 1.52121 11.7008 2.27743ZM11.2478 3.10317V2.72941H10.5526C10.1074 2.72941 9.98241 2.92933 9.98241 3.16402C9.98241 3.39871 10.1855 3.60733 10.5292 3.60733C10.6813 3.61785 10.8326 3.57481 10.9616 3.48433C11.0906 3.39385 11.1907 3.2605 11.2478 3.10317Z" fill="black"/>
<path d="M12.4507 0.330422C12.4506 0.286305 12.4586 0.242632 12.474 0.201981C12.4894 0.161329 12.512 0.124541 12.5403 0.0937526C12.5687 0.0629647 12.6024 0.0388199 12.6393 0.0227412C12.6762 0.00666247 12.7157 -0.00104688 12.7553 0.000114106C12.8136 0.0018234 12.8702 0.0226403 12.918 0.0599579C12.9658 0.0972755 13.0026 0.149453 13.0239 0.209939C13.0452 0.270424 13.0499 0.336538 13.0376 0.400028C13.0253 0.463517 12.9964 0.521551 12.9546 0.566879C12.9128 0.612208 12.8599 0.642811 12.8026 0.654868C12.7452 0.666924 12.686 0.659916 12.6322 0.634681C12.5784 0.609446 12.5325 0.567118 12.5002 0.513004C12.4679 0.45889 12.4507 0.395375 12.4507 0.330422ZM12.5366 1.19964H12.9818V3.96378H12.5366V1.19964Z" fill="black"/>
<path d="M13.841 0.121753H14.2862V3.98979H13.841V0.121753Z" fill="black"/>
</g>
</svg>
