<svg width="11" height="10" viewBox="0 0 11 10" fill="none" xmlns="http://www.w3.org/2000/svg">
<path opacity="0.1" d="M6.29249 5.13879C6.83947 4.92694 7.30352 4.57832 7.62692 4.13629C7.95032 3.69425 8.11879 3.17834 8.11134 2.65274C8.13173 2.31107 8.0728 1.96933 7.93817 1.64833C7.80354 1.32733 7.59602 1.0338 7.32824 0.78561C7.06046 0.537423 6.73804 0.33978 6.38061 0.204717C6.02318 0.0696544 5.63823 0 5.2492 0C4.86018 0 4.47523 0.0696544 4.1178 0.204717C3.76037 0.33978 3.43795 0.537423 3.17017 0.78561C2.90239 1.0338 2.69487 1.32733 2.56024 1.64833C2.42561 1.96933 2.3667 2.31107 2.38709 2.65274C2.37509 3.1836 2.54219 3.70568 2.86731 4.15308C3.19243 4.60047 3.66097 4.95312 4.21379 5.16649C-0.195542 5.74819 0.0013229 9.95854 0.0013229 9.95854L10.4262 10.0001C10.4262 10.0001 10.6703 5.71356 6.29249 5.13879Z" fill="black"/>
</svg>
