<svg width="32" height="32" viewBox="0 0 32 32" fill="none" xmlns="http://www.w3.org/2000/svg">
<path d="M7.54132 27.3053C7.34988 27.4718 7.11493 27.5802 6.86404 27.6178C6.61315 27.6554 6.35673 27.6206 6.12491 27.5176C5.89308 27.4146 5.69546 27.2475 5.55525 27.0361C5.41503 26.8247 5.33804 26.5777 5.33332 26.324V23.3333C4.62608 23.3333 3.9478 23.0524 3.44771 22.5523C2.94761 22.0522 2.66666 21.3739 2.66666 20.6667V11.3333C2.66666 10.6261 2.94761 9.94782 3.44771 9.44773C3.9478 8.94763 4.62608 8.66668 5.33332 8.66668H20C20.7072 8.66668 21.3855 8.94763 21.8856 9.44773C22.3857 9.94782 22.6667 10.6261 22.6667 11.3333V20.6667C22.6667 21.3739 22.3857 22.0522 21.8856 22.5523C21.3855 23.0524 20.7072 23.3333 20 23.3333H13.3373L7.54132 27.3053ZM24 16.6893C23.9957 16.8533 23.9957 17.0174 24 17.1813V16.688C24.0067 16.5453 24.008 14.7587 24.0053 11.3293C24.0043 10.2692 23.5824 9.25278 22.8323 8.5035C22.0823 7.75422 21.0655 7.33334 20.0053 7.33334H9.33332V6.00001C9.33332 5.29277 9.61427 4.61449 10.1144 4.11439C10.6145 3.6143 11.2927 3.33334 12 3.33334H26.6667C27.3739 3.33334 28.0522 3.6143 28.5523 4.11439C29.0524 4.61449 29.3333 5.29277 29.3333 6.00001V15.3333C29.3333 16.0406 29.0524 16.7189 28.5523 17.219C28.0522 17.7191 27.3739 18 26.6667 18V20.9907C26.6619 21.2443 26.5849 21.4914 26.4447 21.7028C26.3045 21.9142 26.1069 22.0812 25.8751 22.1843C25.6432 22.2873 25.3868 22.3221 25.1359 22.2845C24.8851 22.2469 24.6501 22.1385 24.4587 21.972L24 21.6573V16.6893Z" fill="white"/>
</svg>
