<svg width="51" height="14" viewBox="0 0 51 14" fill="none" xmlns="http://www.w3.org/2000/svg">
<path d="M45.0401 13.2646H5.95991C5.17724 13.2646 4.40223 13.0931 3.67914 12.7598C2.95605 12.4265 2.29905 11.9379 1.74562 11.3221C1.19219 10.7062 0.753178 9.97506 0.453665 9.17039C0.154151 8.36573 0 7.50329 0 6.63232C0 5.76136 0.154151 4.89889 0.453665 4.09422C0.753178 3.28956 1.19219 2.55844 1.74562 1.94257C2.29905 1.32671 2.95605 0.838152 3.67914 0.504847C4.40223 0.171543 5.17724 0 5.95991 0H45.0401C46.6207 0 48.1367 0.698775 49.2544 1.94257C50.3721 3.18637 51 4.87333 51 6.63232C51 8.39132 50.3721 10.0783 49.2544 11.3221C48.1367 12.5659 46.6207 13.2646 45.0401 13.2646Z" fill="#407BFF"/>
</svg>
