<svg width="4" height="4" viewBox="0 0 4 4" fill="none" xmlns="http://www.w3.org/2000/svg">
<path opacity="0.6" d="M3.59435 1.99995C3.59435 2.3955 3.48895 2.78216 3.29148 3.11105C3.094 3.43993 2.81332 3.69628 2.48493 3.84765C2.15654 3.99902 1.79518 4.03863 1.44657 3.96146C1.09795 3.88429 0.777726 3.69381 0.526387 3.41411C0.275048 3.13442 0.103877 2.77807 0.0345329 2.39012C-0.0348114 2.00217 0.000778866 1.60005 0.136803 1.23461C0.272826 0.869172 0.503186 0.556819 0.798729 0.337064C1.09427 0.117309 1.44173 2.26791e-05 1.79718 2.26791e-05C2.0335 -0.00123265 2.26771 0.049637 2.48626 0.149698C2.70482 0.24976 2.90338 0.397028 3.07048 0.58299C3.23759 0.768951 3.36993 0.989912 3.45985 1.23312C3.54976 1.47633 3.59548 1.73697 3.59435 1.99995Z" fill="white"/>
</svg>
