<svg width="318" height="40" viewBox="0 0 318 40" fill="none" xmlns="http://www.w3.org/2000/svg">
<rect x="0.5" y="0.5" width="314.72" height="39" rx="15.5" stroke="#27374D"/>
<path d="M299.194 22H298.293L297.974 21.73C299.091 20.59 299.763 19.11 299.763 17.5C299.763 13.91 296.447 11 292.355 11C288.263 11 284.946 13.91 284.946 17.5C284.946 21.09 288.263 24 292.355 24C294.19 24 295.877 23.41 297.176 22.43L297.484 22.71V23.5L303.183 28.49L304.881 27L299.194 22ZM292.355 22C289.517 22 287.226 19.99 287.226 17.5C287.226 15.01 289.517 13 292.355 13C295.193 13 297.484 15.01 297.484 17.5C297.484 19.99 295.193 22 292.355 22Z" fill="#27374D"/>
</svg>
