<svg width="65" height="99" viewBox="0 0 65 99" fill="none" xmlns="http://www.w3.org/2000/svg">
<path d="M14.3986 73.3011C2.31175 65.8772 -0.426367 52.0957 0.0508478 39.7041C0.12908 37.64 -0.129076 35.4521 0.98964 33.6425C2.10836 31.833 4.72129 30.5876 6.82573 31.4546C8.5703 32.177 9.32916 33.9659 10.3071 35.4452C11.6119 37.4155 13.524 39.0208 15.8224 40.0757C17.3166 40.7637 19.1707 41.1766 20.6493 40.461C22.6833 39.4771 22.918 37.0208 22.9024 34.9567C22.9024 31.1174 22.8763 27.2828 22.8242 23.4527C22.6836 21.396 22.9213 19.3329 23.5282 17.3429C24.2558 15.3888 25.8752 13.5793 28.0891 13.0289C30.3031 12.4784 33.0647 13.6137 33.5654 15.6228C33.6516 16.4737 33.6751 17.3287 33.6358 18.1823C33.6984 19.0423 34.1521 19.9849 35.0674 20.2464C35.9828 20.5079 36.9372 19.9093 37.6413 19.3038C40.0508 17.2397 41.6937 14.5494 43.2192 11.8936C44.7447 9.23777 46.2389 6.50625 48.4294 4.2426C50.6199 1.97895 53.6475 0.183169 57.0349 0.011159C60.4224 -0.160851 63.9506 1.66933 64.7956 4.5591C65.6405 7.44886 63.7238 10.4005 61.6663 12.7468C58.5615 16.2294 54.9017 19.2999 50.7999 21.8633C49.9992 22.2478 49.3602 22.8484 48.9771 23.5765C48.4686 24.9526 49.9471 26.3287 51.4883 26.7621C53.2329 27.2713 55.1261 27.113 56.9645 27.3057C58.803 27.4983 60.7588 28.2001 61.455 29.7138C62.4095 31.8192 60.4068 34.0209 58.4431 35.4658C54.5002 38.3556 50.0231 40.6293 45.2063 42.188C43.4852 42.7384 41.678 43.2269 40.2855 44.2865C38.893 45.3461 38.0637 47.1969 38.9008 48.6487C39.7379 50.1004 41.8893 50.5614 43.6964 50.2656C45.5036 49.9697 47.1073 49.1165 48.8284 48.5455C52.0438 47.479 56.19 47.6716 58.2162 50.1142C58.844 50.9556 59.2413 51.9135 59.377 52.9127C59.5128 53.912 59.3832 54.9253 58.9986 55.8731C58.2156 57.7592 57.0105 59.4882 55.4547 60.9577C50.3308 66.3418 43.6733 70.4328 36.1627 72.8126C28.7072 75.0831 21.7993 75.7024 14.3908 73.3149" fill="#407BFF"/>
<path d="M61.3534 1.71064C61.3534 1.71064 61.283 1.77944 61.1265 1.90329L60.4302 2.44683C59.82 2.92846 58.9204 3.63027 57.786 4.55912C54.5698 7.18547 51.5833 10.0213 48.8519 13.0426C47.1073 14.9485 45.3002 17.109 43.3757 19.4552C41.4512 21.8014 39.4641 24.3334 37.4927 27.0236C35.3908 29.8605 33.4661 32.7959 31.7269 35.8168C30.8195 37.3924 30.0215 39.0368 29.2001 40.7156L26.7749 45.8415C23.5781 52.2981 20.794 58.9067 18.4354 65.6364C16.5355 71.1426 15.2259 76.7931 14.5238 82.514C14.0688 86.3748 13.9955 90.263 14.3047 94.135C14.4299 95.511 14.5472 96.5637 14.6568 97.2793C14.7037 97.6233 14.735 97.8985 14.7663 98.0981V98.3802C14.7326 98.2907 14.709 98.1985 14.6959 98.105C14.6568 97.9054 14.6098 97.6371 14.5472 97.2931C14.4064 96.605 14.2578 95.5179 14.117 94.1418C13.7395 90.2627 13.7657 86.3614 14.1952 82.4865C14.8538 76.7411 16.1348 71.0643 18.0207 65.5332C20.3595 58.7846 23.1361 52.1593 26.3368 45.6901L28.8246 40.5849C29.646 38.9129 30.4518 37.2547 31.3671 35.6722C33.1183 32.6423 35.0588 29.6999 37.1797 26.8585C39.1824 24.1063 41.2008 21.6156 43.1019 19.29C45.0029 16.9645 46.8414 14.7903 48.5781 12.8913C51.3372 9.87796 54.3639 7.06192 57.6295 4.46967C58.7874 3.55458 59.7105 2.86654 60.3363 2.40555L61.0639 1.88952C61.1531 1.82123 61.2501 1.76128 61.3534 1.71064Z" fill="#263238"/>
<path d="M31.4688 35.6585C31.3584 35.375 31.2824 35.0821 31.2419 34.7847C31.1167 34.2136 30.9759 33.4086 30.8116 32.3627C30.4753 30.2986 30.131 27.4708 29.7633 24.3402C29.3957 21.2096 28.981 18.3749 28.6368 16.3314C28.4569 15.3131 28.3004 14.4944 28.1909 13.9233C28.1054 13.631 28.0608 13.3306 28.0579 13.0289C28.1926 13.3045 28.2898 13.5932 28.3473 13.8889C28.5195 14.4531 28.715 15.265 28.9341 16.2902C29.38 18.3543 29.8181 21.1615 30.1858 24.2989C30.5535 27.4364 30.8664 30.1886 31.1089 32.3284C31.2263 33.2916 31.328 34.1104 31.4062 34.764C31.467 35.059 31.488 35.3592 31.4688 35.6585Z" fill="#263238"/>
<path d="M61.5724 30.7183C61.1917 30.7912 60.804 30.8327 60.4146 30.8422C59.6322 30.9041 58.5214 30.9867 57.1445 31.1243C54.3907 31.3857 50.6043 31.8673 46.4502 32.5554C42.2961 33.2434 38.5644 34.0209 35.8811 34.6195C34.5433 34.9222 33.4637 35.1975 32.7518 35.3832C32.3717 35.502 31.9783 35.585 31.5783 35.6309C31.9398 35.471 32.3168 35.3398 32.7048 35.2387C33.4402 35.0117 34.5042 34.6952 35.8341 34.358C38.5018 33.67 42.2335 32.8512 46.4032 32.1494C49.9354 31.5554 53.4995 31.1191 57.0819 30.8422C58.4666 30.739 59.5853 30.6977 60.3676 30.6839C60.7695 30.6599 61.1731 30.6714 61.5724 30.7183Z" fill="#263238"/>
<path d="M18.4041 65.0514C18.3207 64.9518 18.2523 64.8431 18.2007 64.7281L17.6843 63.7717C17.2384 62.9392 16.636 61.7076 15.9163 60.2008C14.4612 57.1734 12.6071 52.9351 10.6356 48.2289C8.6642 43.5227 6.84921 39.2844 5.47233 36.2226C4.79954 34.7364 4.24411 33.5186 3.82948 32.6104L3.39136 31.6265C3.33064 31.513 3.28852 31.3926 3.26621 31.2687C3.34962 31.3683 3.41797 31.477 3.4696 31.5921L3.98593 32.5485C4.42403 33.381 5.03425 34.6126 5.75398 36.1194C7.20909 39.1468 9.06319 43.3851 11.0346 48.0913C13.0061 52.7975 14.8211 57.0358 16.1979 60.0976C16.8707 61.5837 17.4262 62.8015 17.833 63.7098C18.0129 64.1019 18.1616 64.3978 18.2789 64.6937C18.3396 64.8071 18.3818 64.9276 18.4041 65.0514Z" fill="#263238"/>
<path d="M58.3649 53.7195C58.2397 53.7828 58.1055 53.8313 57.9659 53.864L56.8081 54.208L52.5288 55.4259C48.9145 56.4579 43.9233 57.9303 38.4471 59.5541C32.9709 61.1779 27.9562 62.6228 24.3184 63.586C22.5034 64.0745 21.0248 64.4461 20 64.6938L18.8187 64.9621C18.6813 65.0005 18.5397 65.0258 18.3963 65.0378C18.5215 64.9745 18.6556 64.926 18.7952 64.8933L19.9531 64.5493L24.2324 63.3314C27.8467 62.2994 32.8379 60.827 38.3141 59.2032C43.7903 57.5794 48.7972 56.1345 52.4349 55.1713C54.2577 54.6828 55.7285 54.3112 56.7612 54.0635L57.9425 53.7952C58.0798 53.7568 58.2214 53.7315 58.3649 53.7195Z" fill="#263238"/>
</svg>
