<svg width="34" height="40" viewBox="0 0 34 40" fill="none" xmlns="http://www.w3.org/2000/svg">
<path opacity="0.8" d="M33.9897 31.3624C31.8789 34.0737 29.2688 36.2481 26.3366 37.7385C23.4044 39.2288 20.2184 40 16.9949 40C13.7713 40 10.5854 39.2288 7.65311 37.7385C4.72087 36.2481 2.11086 34.0737 0 31.3624C0.814201 28.1135 2.36623 25.1524 4.5067 22.7643C6.64716 20.3762 9.304 18.6415 12.2215 17.727C10.6614 16.5851 9.47392 14.9137 8.83532 12.961C8.19673 11.0083 8.14109 8.87855 8.67667 6.8879C9.21226 4.89725 10.3105 3.1519 11.8083 1.91104C13.3061 0.670189 15.1236 0 16.9909 0C18.8582 0 20.6757 0.670189 22.1735 1.91104C23.6713 3.1519 24.7696 4.89725 25.3052 6.8879C25.8407 8.87855 25.7851 11.0083 25.1465 12.961C24.5079 14.9137 23.3204 16.5851 21.7604 17.727C24.6782 18.6425 27.3356 20.3774 29.4772 22.7652C31.6188 25.1531 33.1727 28.1136 33.9897 31.3624Z" fill="white"/>
</svg>
