<svg width="167" height="24" viewBox="0 0 167 24" fill="none" xmlns="http://www.w3.org/2000/svg">
<path d="M13.593 2.49023L16.683 8.75023L23.593 9.76023L18.593 14.6302L19.773 21.5102L13.593 18.2602L7.41301 21.5102L8.59301 14.6302L3.59301 9.76023L10.503 8.75023L13.593 2.49023Z" fill="#828282" stroke="#828282" stroke-width="2" stroke-linecap="round" stroke-linejoin="round"/>
<path d="M48.5724 2.49023L51.6624 8.75023L58.5723 9.76023L53.5723 14.6302L54.7523 21.5102L48.5724 18.2602L42.3924 21.5102L43.5724 14.6302L38.5724 9.76023L45.4824 8.75023L48.5724 2.49023Z" fill="#828282" stroke="#828282" stroke-width="2" stroke-linecap="round" stroke-linejoin="round"/>
<path d="M83.5516 2.49023L86.6416 8.75023L93.5516 9.76023L88.5516 14.6302L89.7316 21.5102L83.5516 18.2602L77.3716 21.5102L78.5516 14.6302L73.5516 9.76023L80.4616 8.75023L83.5516 2.49023Z" fill="#FF0000" stroke="#FF0000" stroke-width="2" stroke-linecap="round" stroke-linejoin="round"/>
<path d="M118.531 2L122.005 8.25999L129.772 9.26999L124.152 14.14L125.478 21.02L118.531 17.77L111.584 21.02L112.91 14.14L107.29 9.26999L115.057 8.25999L118.531 2Z" fill="#FF0000" stroke="#FF0000" stroke-width="2" stroke-linecap="round" stroke-linejoin="round"/>
<path d="M153.51 2L156.984 8.25999L164.752 9.26999L159.131 14.14L160.457 21.02L153.51 17.77L146.563 21.02L147.89 14.14L142.269 9.26999L150.037 8.25999L153.51 2Z" fill="#FF0000" stroke="#FF0000" stroke-width="2" stroke-linecap="round" stroke-linejoin="round"/>
</svg>
