<svg width="103" height="189" viewBox="0 0 103 189" fill="none" xmlns="http://www.w3.org/2000/svg">
<path d="M90.5589 0.233626H75.445C74.9518 0.241666 74.4653 0.335074 74.0132 0.508512C73.5611 0.681951 73.1523 0.932022 72.8101 1.24444C72.4679 1.55687 72.1991 1.92552 72.0189 2.32934C71.8388 2.73316 71.7509 3.16424 71.7602 3.59795V6.00791C71.7695 6.44129 71.6815 6.87203 71.5012 7.27546C71.321 7.67889 71.052 8.04709 70.7097 8.35896C70.3674 8.67083 69.9586 8.92026 69.5065 9.09295C69.0545 9.26565 68.5681 9.35823 68.0754 9.36537L38.6125 9.24865C37.6158 9.22528 36.6704 8.85496 35.9839 8.21901C35.2974 7.58306 34.926 6.73348 34.9511 5.85686V3.4469C34.9763 2.57143 34.606 1.72287 33.9211 1.08712C33.2363 0.45137 32.2929 0.0802657 31.2975 0.0551095H25.9811L12.7486 0.000185713C9.60123 -0.0162952 6.57465 1.06475 4.33158 3.00662C2.08851 4.94848 0.811728 7.59293 0.780805 10.3609L0.000126174 178.179C-0.00706676 179.552 0.293348 180.913 0.884227 182.184C1.47511 183.456 2.34488 184.612 3.44388 185.587C4.54287 186.563 5.84956 187.338 7.28936 187.87C8.72915 188.401 10.2738 188.678 11.8352 188.684L89.6533 189C91.2157 189.006 92.7643 188.742 94.2105 188.222C95.6567 187.702 96.9723 186.936 98.0822 185.969C99.1921 185.002 100.074 183.852 100.679 182.585C101.284 181.318 101.598 179.958 101.606 178.584L102.386 10.766C102.405 7.99022 101.17 5.32147 98.9517 3.34645C96.7339 1.37143 93.7151 0.25178 90.5589 0.233626Z" fill="white"/>
</svg>
