<svg width="32" height="32" viewBox="0 0 32 32" fill="none" xmlns="http://www.w3.org/2000/svg">
<path d="M16 17.3333C14.2319 17.3333 12.5362 16.631 11.286 15.3807C10.0357 14.1305 9.33333 12.4348 9.33333 10.6667H12C12 11.7275 12.4214 12.745 13.1716 13.4951C13.9217 14.2453 14.9391 14.6667 16 14.6667C17.0609 14.6667 18.0783 14.2453 18.8284 13.4951C19.5786 12.745 20 11.7275 20 10.6667H22.6667C22.6667 12.4348 21.9643 14.1305 20.714 15.3807C19.4638 16.631 17.7681 17.3333 16 17.3333ZM16 4.00001C17.0609 4.00001 18.0783 4.42144 18.8284 5.17158C19.5786 5.92173 20 6.93914 20 8.00001H12C12 6.93914 12.4214 5.92173 13.1716 5.17158C13.9217 4.42144 14.9391 4.00001 16 4.00001ZM25.3333 8.00001H22.6667C22.6667 7.12453 22.4942 6.25762 22.1592 5.44879C21.8242 4.63995 21.3331 3.90502 20.714 3.28596C20.095 2.66691 19.3601 2.17584 18.5512 1.84081C17.7424 1.50578 16.8755 1.33334 16 1.33334C14.2319 1.33334 12.5362 2.03572 11.286 3.28596C10.0357 4.53621 9.33333 6.2319 9.33333 8.00001H6.66667C5.18667 8.00001 4 9.18668 4 10.6667V26.6667C4 27.3739 4.28095 28.0522 4.78105 28.5523C5.28115 29.0524 5.95942 29.3333 6.66667 29.3333H25.3333C26.0406 29.3333 26.7189 29.0524 27.219 28.5523C27.719 28.0522 28 27.3739 28 26.6667V10.6667C28 9.95943 27.719 9.28116 27.219 8.78106C26.7189 8.28096 26.0406 8.00001 25.3333 8.00001Z" fill="white"/>
</svg>
