<svg width="390" height="301" viewBox="0 0 390 301" fill="none" xmlns="http://www.w3.org/2000/svg">
<path d="M390 284.183H0V284.4H390V284.183Z" fill="#EBEBEB"/>
<path d="M350.922 298.149H325.088V298.366H350.922V298.149Z" fill="#EBEBEB"/>
<path d="M258.352 300.51H251.573V300.727H258.352V300.51Z" fill="#EBEBEB"/>
<path d="M324.308 290.094H309.34V290.311H324.308V290.094Z" fill="#EBEBEB"/>
<path d="M74.607 291.552H40.9188V291.769H74.607V291.552Z" fill="#EBEBEB"/>
<path d="M86.4942 291.552H81.5568V291.769H86.4942V291.552Z" fill="#EBEBEB"/>
<path d="M175.617 295.215H102.547V295.432H175.617V295.215Z" fill="#EBEBEB"/>
<path d="M184.86 245.47H34.2498C33.0699 245.468 31.9391 244.945 31.1055 244.016C30.272 243.086 29.8038 241.827 29.8038 240.514V4.91288C29.8141 3.60743 30.2868 2.35921 31.1192 1.43933C31.9517 0.519462 33.0767 0.0022363 34.2498 0H184.86C186.041 0 187.174 0.522178 188.009 1.45166C188.845 2.38114 189.314 3.64179 189.314 4.95628V240.514C189.314 241.829 188.845 243.089 188.009 244.019C187.174 244.948 186.041 245.47 184.86 245.47ZM34.2498 0.173601C33.1217 0.1759 32.0404 0.676229 31.2434 1.56477C30.4464 2.45331 29.9988 3.65745 29.9988 4.91288V240.514C29.9988 241.77 30.4464 242.974 31.2434 243.862C32.0404 244.751 33.1217 245.251 34.2498 245.253H184.86C185.989 245.251 187.071 244.751 187.869 243.863C188.667 242.974 189.117 241.77 189.119 240.514V4.91288C189.117 3.65665 188.667 2.45253 187.869 1.56424C187.071 0.675947 185.989 0.175895 184.86 0.173601H34.2498Z" fill="#EBEBEB"/>
<path d="M353.582 245.47H202.964C201.783 245.468 200.652 244.945 199.817 244.016C198.982 243.087 198.512 241.828 198.51 240.514V4.91288C198.522 3.60664 198.997 2.35842 199.83 1.43879C200.664 0.519158 201.79 0.00221192 202.964 0H353.582C354.754 0.0045175 355.877 0.522752 356.707 1.44238C357.538 2.36201 358.01 3.60893 358.02 4.91288V240.514C358.02 241.826 357.553 243.084 356.721 244.013C355.889 244.942 354.76 245.466 353.582 245.47ZM202.964 0.173601C201.835 0.175895 200.753 0.675947 199.955 1.56424C199.156 2.45253 198.707 3.65665 198.705 4.91288V240.514C198.707 241.77 199.156 242.974 199.955 243.863C200.753 244.751 201.835 245.251 202.964 245.253H353.582C354.711 245.251 355.793 244.751 356.591 243.863C357.389 242.974 357.839 241.77 357.841 240.514V4.91288C357.839 3.65665 357.389 2.45253 356.591 1.56424C355.793 0.675947 354.711 0.175895 353.582 0.173601H202.964Z" fill="#EBEBEB"/>
<path d="M155.399 220.29H148.824H144.487L156.64 231.487H158.87H160.859L158.02 226.687L166.304 231.487H168.301H170.656L155.399 220.29Z" fill="#E0E0E0"/>
<path d="M69.225 231.487H73.5774L83.2416 225.888L79.0218 231.487H83.2416L95.394 220.29H84.4818L69.225 231.487Z" fill="#E0E0E0"/>
<path d="M81.003 231.487L91.0572 220.29H84.4818L69.225 231.487H71.5806L83.2416 224.352L79.0218 231.487H81.003Z" fill="#F0F0F0"/>
<path d="M47.0028 231.487V284.591H193.97V231.487H47.0028ZM191.568 252.319H73.5774V234.959H191.568V252.319Z" fill="#E0E0E0"/>
<path d="M70.3638 231.487V284.591H193.97V231.487H70.3638ZM191.568 252.319H73.5774V234.959H191.568V252.319Z" fill="#EBEBEB"/>
<path d="M191.568 234.933H170.056V252.284H191.568V234.933Z" fill="#E0E0E0"/>
<path d="M104.731 243.604H73.5774V252.284H104.731V243.604Z" fill="#E0E0E0"/>
<path d="M126.727 247.128H106.688V252.284H126.727V247.128Z" fill="#E0E0E0"/>
<path d="M154.986 241.738H131.36V252.284H154.986V241.738Z" fill="#E0E0E0"/>
<path d="M97.032 256.06L96.4626 258.135H88.7952L88.2258 256.06H73.5774V279.105H111.68V256.06H97.032Z" fill="#E0E0E0"/>
<path d="M136.921 256.06L136.352 258.135H128.692L128.123 256.06H113.467V279.105H151.577V256.06H136.921Z" fill="#E0E0E0"/>
<path d="M176.818 256.06L176.249 258.135H168.589L168.012 256.06H153.364V279.105H191.467V256.06H176.818Z" fill="#E0E0E0"/>
<path d="M168.082 149.999H66.846C65.3253 149.999 64.0926 151.371 64.0926 153.063V218.71C64.0926 220.402 65.3253 221.774 66.846 221.774H168.082C169.603 221.774 170.836 220.402 170.836 218.71V153.063C170.836 151.371 169.603 149.999 168.082 149.999Z" fill="#E0E0E0"/>
<path d="M170.594 149.999H69.3576C67.8369 149.999 66.6042 151.371 66.6042 153.063V218.71C66.6042 220.402 67.8369 221.774 69.3576 221.774H170.594C172.114 221.774 173.347 220.402 173.347 218.71V153.063C173.347 151.371 172.114 149.999 170.594 149.999Z" fill="#E6E6E6"/>
<path d="M170.204 218.285V153.489H69.732V218.285H170.204Z" fill="#F0F0F0"/>
<path d="M294.029 70.7911C301.939 68.5654 306.73 59.6253 304.73 50.8228C302.73 42.0203 294.696 36.6888 286.786 38.9145C278.876 41.1403 274.085 50.0804 276.085 58.8829C278.086 67.6854 286.119 73.0169 294.029 70.7911Z" fill="#E0E0E0"/>
<path d="M302.613 58.0338C304.206 50.5221 300.025 42.9955 293.275 41.2225C286.525 39.4496 279.762 44.1018 278.168 51.6135C276.575 59.1252 280.756 66.6518 287.506 68.4248C294.256 70.1977 301.02 65.5455 302.613 58.0338Z" fill="#F0F0F0"/>
<path d="M289.817 45.2488V55.0138L283.998 51.3508" fill="#F0F0F0"/>
<path d="M289.817 55.8818C289.68 55.8828 289.546 55.8439 289.427 55.7689L283.608 52.0799C283.43 51.9654 283.299 51.777 283.245 51.5559C283.191 51.3347 283.218 51.0988 283.319 50.8995C283.421 50.6994 283.59 50.5524 283.789 50.4906C283.987 50.4287 284.2 50.4572 284.38 50.5696L289.06 53.5035V45.2227C289.06 44.9925 289.142 44.7717 289.289 44.609C289.435 44.4462 289.633 44.3547 289.84 44.3547C290.047 44.3547 290.245 44.4462 290.392 44.609C290.538 44.7717 290.62 44.9925 290.62 45.2227V54.9877C290.62 55.2179 290.538 55.4387 290.392 55.6015C290.245 55.7643 290.047 55.8557 289.84 55.8557L289.817 55.8818Z" fill="#E0E0E0"/>
<path d="M89.2086 54.8923C89.2086 54.8923 88.491 49.6843 91.923 46.3078C95.355 42.9313 95.043 40.9609 94.068 40.7005C93.093 40.4401 92.1882 43.7906 90.6828 44.7107C90.6828 44.7107 90.6282 39.9367 92.1648 38.1746C93.7014 36.4126 94.5048 31.8816 93.0384 31.8035C91.572 31.7254 91.4316 34.4943 91.1352 36.456C90.7205 38.1385 90.0703 39.7378 89.2086 41.1953C89.2086 41.1953 88.8888 36.916 87.8982 35.1193C86.9076 33.3225 89.5518 29.3384 88.53 27.5763C87.5082 25.8143 85.7064 29.1735 85.8546 32.9406C86.0028 36.7077 88.2726 40.7526 87.7422 44.6759C87.7422 44.6759 86.7438 41.9157 85.8468 41.664C84.9498 41.4123 84.0528 39.5808 83.4444 38.9037C82.836 38.2267 82.095 40.5703 83.4444 42.749C84.7938 44.9277 88.2726 50.7606 87.7422 55.4739L89.2086 54.8923Z" fill="#E6E6E6"/>
<path d="M91.26 52.5139L92.3754 60.3259C92.4579 60.8948 92.4283 61.4769 92.2887 62.0319C92.149 62.5868 91.9026 63.1013 91.5664 63.5397C91.2303 63.9781 90.8126 64.33 90.3422 64.5709C89.8717 64.8118 89.3599 64.9361 88.842 64.935H87.6486C87.1305 64.9359 86.6184 64.8116 86.1477 64.5707C85.6769 64.3299 85.2588 63.9782 84.9221 63.54C84.5854 63.1017 84.3382 62.5874 84.1975 62.0325C84.0569 61.4776 84.0261 60.8953 84.1074 60.3259L85.2306 52.5139H91.26Z" fill="#E6E6E6"/>
<path d="M74.2794 66.6016L153.621 66.6016V62.0619L74.2794 62.0619V66.6016Z" fill="#E0E0E0"/>
<path d="M146.476 62.0708H149.971V45.3531H146.476V62.0708Z" fill="#EBEBEB"/>
<path d="M129.574 62.0708H133.068V45.3531H129.574V62.0708Z" fill="#EBEBEB"/>
<path d="M107.837 61.4095L111.281 62.0701L113.834 45.5868L110.391 44.9262L107.837 61.4095Z" fill="#EBEBEB"/>
<path d="M142.139 62.0708H145.634V47.5492H142.139V62.0708Z" fill="#EBEBEB"/>
<path d="M134.113 62.0708H137.608V47.5492H134.113V62.0708Z" fill="#EBEBEB"/>
<path d="M113.825 62.0708H117.32V47.5492H113.825V62.0708Z" fill="#EBEBEB"/>
<path d="M122.16 61.2179L125.571 62.0615L128.402 47.8857L124.991 47.0421L122.16 61.2179Z" fill="#EBEBEB"/>
<path d="M139.121 62.0708H140.868V44.5198H139.121V62.0708Z" fill="#EBEBEB"/>
<path d="M118.334 62.0708H120.081V44.5198H118.334V62.0708Z" fill="#EBEBEB"/>
<path d="M153.621 95.9314H74.2794V100.471H153.621V95.9314Z" fill="#E0E0E0"/>
<path d="M81.4242 79.2136H77.9298V95.94H81.4242V79.2136Z" fill="#EBEBEB"/>
<path d="M98.3268 79.2136H94.8324V95.94H98.3268V79.2136Z" fill="#EBEBEB"/>
<path d="M117.515 78.7904L114.071 79.4509L116.624 95.9342L120.068 95.2737L117.515 78.7904Z" fill="#EBEBEB"/>
<path d="M85.761 81.4185H82.2666V95.9401H85.761V81.4185Z" fill="#EBEBEB"/>
<path d="M93.795 81.4185H90.3006V95.9401H93.795V81.4185Z" fill="#EBEBEB"/>
<path d="M114.067 81.4185H110.573V95.9401H114.067V81.4185Z" fill="#EBEBEB"/>
<path d="M102.923 80.9086L99.5117 81.7522L102.343 95.928L105.754 95.0843L102.923 80.9086Z" fill="#EBEBEB"/>
<path d="M88.7796 78.3804H87.0324V95.9313H88.7796V78.3804Z" fill="#EBEBEB"/>
<path d="M109.574 78.3804H107.827V95.9313H109.574V78.3804Z" fill="#EBEBEB"/>
<path d="M146.016 82.7031H128.981V95.7839H146.016V82.7031Z" fill="#EBEBEB"/>
</svg>
