<svg width="334" height="253" viewBox="0 0 334 253" fill="none" xmlns="http://www.w3.org/2000/svg">
<path d="M333.744 193.857H205.71V128.695H333.744V193.857ZM206.491 193.17H332.963V129.382H206.491V193.17Z" fill="#E0E0E0"/>
<path d="M307.331 163.44H222.858V165.618H307.331V163.44Z" fill="#F0F0F0"/>
<path d="M313.151 171.562H222.858V173.939H313.151V171.562Z" fill="#F0F0F0"/>
<path d="M313.151 179.779H222.858V182.156H313.151V179.779Z" fill="#F0F0F0"/>
<path d="M252.38 151.643H222.858V157.298H252.38V151.643Z" fill="#F0F0F0"/>
<path d="M333.353 129.039H206.124V139.414H333.353V129.039Z" fill="#E0E0E0"/>
<path d="M323.565 137.861C323.401 137.723 325.041 135.985 327.221 133.979C329.4 131.972 331.314 130.454 331.471 130.585C331.627 130.715 329.994 132.46 327.814 134.473C325.635 136.487 323.721 137.998 323.565 137.861Z" fill="white"/>
<path d="M331.486 137.861C331.33 137.998 329.424 136.487 327.236 134.474C325.049 132.46 323.416 130.722 323.58 130.585C323.744 130.447 325.643 131.959 327.83 133.979C330.018 135.999 331.635 137.723 331.486 137.861Z" fill="white"/>
<path d="M176.196 0H48.9667V64.4816H176.196V0Z" fill="#E6E6E6"/>
<path d="M150.181 34.4086H65.7082V36.5866H150.181V34.4086Z" fill="#F0F0F0"/>
<path d="M156.001 42.5297H65.7082V44.9069H156.001V42.5297Z" fill="#F0F0F0"/>
<path d="M156.001 50.7471H65.7082V53.1243H156.001V50.7471Z" fill="#F0F0F0"/>
<path d="M95.2304 22.6114H65.7082V28.266H95.2304V22.6114Z" fill="#F0F0F0"/>
<path d="M176.196 0H48.9667V10.3748H176.196V0Z" fill="#E0E0E0"/>
<path d="M165.977 8.77383C165.813 8.64329 167.454 6.89812 169.634 4.89188C171.813 2.88563 173.727 1.36721 173.883 1.50462C174.04 1.64204 172.407 3.38032 170.227 5.38657C168.048 7.39282 166.134 8.8975 165.977 8.77383Z" fill="white"/>
<path d="M173.883 8.77386C173.727 8.91128 171.821 7.39972 169.634 5.38661C167.446 3.37349 165.813 1.64207 165.977 1.50466C166.142 1.36724 168.04 2.8788 170.227 4.89191C172.415 6.90503 174.047 8.64332 173.883 8.77386Z" fill="white"/>
<path d="M128.01 119.784H0V54.6151H128.01V119.784ZM0.781218 119.097H127.229V55.3022H0.781218V119.097Z" fill="#E0E0E0"/>
<path d="M101.605 89.3673H17.1321V91.5453H101.605V89.3673Z" fill="#F0F0F0"/>
<path d="M107.425 97.4884H17.1321V99.8656H107.425V97.4884Z" fill="#F0F0F0"/>
<path d="M107.425 105.706H17.1321V108.083H107.425V105.706Z" fill="#F0F0F0"/>
<path d="M46.6543 77.5704H17.1321V83.2249H46.6543V77.5704Z" fill="#F0F0F0"/>
<path d="M127.62 54.9587H0.390608V65.3335H127.62V54.9587Z" fill="#E0E0E0"/>
<path d="M275.746 134.714H125.518V253H275.746V134.714Z" fill="#E6E6E6"/>
<path d="M133.073 97.4541H15.39V204.988H133.073V97.4541Z" fill="#F0F0F0"/>
<path d="M133.073 97.4541H15.39V109.169H133.073V97.4541Z" fill="#E0E0E0"/>
<path d="M25.1083 103.191C25.0869 103.616 24.9241 104.026 24.6402 104.37C24.3562 104.714 23.9636 104.978 23.5111 105.127C23.0585 105.277 22.566 105.306 22.0945 105.212C21.6231 105.118 21.1935 104.904 20.8591 104.597C20.5247 104.29 20.3002 103.903 20.2135 103.484C20.1268 103.066 20.1816 102.635 20.3713 102.243C20.5609 101.852 20.877 101.519 21.2802 101.284C21.6835 101.05 22.1562 100.924 22.6397 100.924C23.3083 100.938 23.9432 101.185 24.4058 101.61C24.8683 102.035 25.1209 102.603 25.1083 103.191Z" fill="white"/>
<path d="M35.1314 103.191C35.1114 103.618 34.9492 104.03 34.665 104.377C34.3807 104.723 33.9869 104.988 33.5325 105.139C33.0782 105.29 32.5833 105.32 32.1096 105.226C31.6359 105.132 31.2043 104.917 30.8683 104.608C30.5324 104.3 30.307 103.911 30.2203 103.491C30.1336 103.07 30.1893 102.637 30.3806 102.244C30.5718 101.852 30.8901 101.517 31.2959 101.282C31.7017 101.048 32.177 100.923 32.6627 100.924C33.3313 100.938 33.9663 101.185 34.4288 101.61C34.8914 102.035 35.1439 102.603 35.1314 103.191Z" fill="white"/>
<path d="M45.1544 103.191C45.1345 103.618 44.9723 104.03 44.688 104.377C44.4037 104.723 44.0099 104.988 43.5555 105.139C43.1012 105.29 42.6064 105.32 42.1327 105.226C41.659 105.132 41.2273 104.917 40.8914 104.608C40.5554 104.3 40.3301 103.911 40.2433 103.491C40.1566 103.07 40.2123 102.637 40.4036 102.244C40.5948 101.852 40.9131 101.517 41.3189 101.282C41.7247 101.048 42.2 100.923 42.6857 100.924C43.3543 100.938 43.9893 101.185 44.4518 101.61C44.9144 102.035 45.167 102.603 45.1544 103.191Z" fill="white"/>
<path d="M316.94 23.5183H166.712V155.202H316.94V23.5183Z" fill="#F0F0F0"/>
<path d="M316.94 23.5183H166.712V38.9431H316.94V23.5183Z" fill="#E0E0E0"/>
<path d="M179.508 31.0762C179.481 31.637 179.266 32.1783 178.892 32.6329C178.518 33.0875 178 33.4354 177.403 33.6334C176.806 33.8314 176.155 33.8708 175.533 33.7467C174.911 33.6226 174.344 33.3404 173.902 32.9352C173.46 32.5301 173.164 32.0197 173.049 31.4676C172.934 30.9154 173.006 30.3458 173.257 29.8295C173.507 29.3131 173.924 28.8727 174.456 28.5631C174.988 28.2534 175.612 28.088 176.251 28.0875C177.133 28.1055 177.971 28.4301 178.581 28.9903C179.192 29.5504 179.525 30.3004 179.508 31.0762Z" fill="white"/>
<path d="M191.75 29.0561C192.183 29.4698 192.468 29.9863 192.57 30.5415C192.671 31.0967 192.585 31.6658 192.321 32.1781C192.058 32.6904 191.629 33.1232 191.087 33.4225C190.546 33.7217 189.917 33.8743 189.277 33.8612C188.638 33.8481 188.018 33.6699 187.493 33.3487C186.968 33.0275 186.562 32.5776 186.326 32.0551C186.09 31.5325 186.034 30.9604 186.165 30.4101C186.296 29.8597 186.608 29.3554 187.063 28.9599C187.699 28.4271 188.55 28.138 189.429 28.156C190.307 28.174 191.142 28.4977 191.75 29.0561Z" fill="white"/>
<path d="M205.898 31.0762C205.87 31.637 205.656 32.1783 205.282 32.6329C204.907 33.0875 204.389 33.4354 203.792 33.6334C203.195 33.8314 202.545 33.8708 201.923 33.7467C201.3 33.6226 200.733 33.3404 200.291 32.9352C199.85 32.5301 199.553 32.0197 199.438 31.4676C199.324 30.9154 199.396 30.3458 199.646 29.8295C199.896 29.3131 200.313 28.8727 200.846 28.5631C201.378 28.2534 202.002 28.088 202.64 28.0875C203.522 28.1055 204.36 28.4301 204.971 28.9903C205.581 29.5504 205.914 30.3004 205.898 31.0762Z" fill="white"/>
</svg>
