<svg width="41" height="41" viewBox="0 0 41 41" fill="none" xmlns="http://www.w3.org/2000/svg">
<path d="M20.4529 4.80123e-05H20.0793L18.998 0.0699766C18.4128 0.100896 17.8309 0.168669 17.2568 0.272763C16.8849 0.318687 16.5161 0.381697 16.1517 0.461551L14.9193 0.762231C12.8218 1.32819 10.8429 2.19016 9.05977 3.31446C6.70391 4.81838 4.73675 6.74389 3.28765 8.96435C2.43593 10.2443 1.75813 11.6079 1.2682 13.0269C0.753395 14.5693 0.45699 16.1616 0.385694 17.7678C0.338311 18.6116 0.354244 19.4572 0.433395 20.2991C0.433395 20.7256 0.568555 21.1522 0.63216 21.5857C0.685658 22.0227 0.778708 22.4553 0.910429 22.8793C1.62536 25.6852 3.07598 28.3053 5.14658 30.5306C7.21717 32.756 9.85043 34.5249 12.8363 35.6964C14.9973 36.5165 17.3136 36.9742 19.6658 37.0459C22.0953 37.1635 24.5272 36.8569 26.8213 36.1439L27.521 35.9132H27.6164L27.6959 35.9551L37.7216 40.4303L37.4274 40.654C36.3541 37.7312 35.3205 34.8993 34.3187 32.1792V32.0743L34.4062 31.9974C36.8383 29.843 38.6437 27.2045 39.6695 24.3057C40.5985 21.6556 40.8696 18.8609 40.4645 16.1106C40.1042 13.6664 39.2106 11.3064 37.8329 9.16013C36.6453 7.31646 35.1133 5.66177 33.3011 4.26543C31.8059 3.16022 30.1511 2.23384 28.3797 1.51042C27.0393 1.00198 25.6433 0.615393 24.2136 0.356669L22.6234 0.125917L21.4706 0.0490001L20.771 0.00704727H20.5324C20.6117 -0.000688566 20.6917 -0.000688566 20.771 0.00704727H21.4786L22.6314 0.0490001L24.2215 0.251776C25.6691 0.491561 27.0841 0.864205 28.4433 1.36358C30.2451 2.07841 31.9298 3.00266 33.4521 4.1116C35.2977 5.50174 36.8622 7.1567 38.0794 9.0063C39.4962 11.1756 40.4172 13.5676 40.7905 16.0477C41.2292 18.8404 40.977 21.6836 40.0511 24.3827C39.0187 27.3417 37.1853 30.0363 34.7083 32.2351L34.756 32.0533C35.7578 34.7734 36.7993 37.6053 37.8806 40.5212L38.0317 40.9477L37.5785 40.7449L27.5528 36.2768H27.7277L27.0122 36.5075C24.6738 37.2312 22.1969 37.5447 19.7215 37.4305C17.3186 37.3501 14.9538 36.8758 12.7488 36.032C8.54275 34.4478 5.04331 31.6943 2.78676 28.1935C1.74835 26.5767 0.989998 24.8327 0.536751 23.0191C0.412632 22.5842 0.319694 22.1428 0.258482 21.6976C0.194877 21.257 0.0915215 20.8235 0.0676698 20.39C-0.147506 17.902 0.151492 15.4002 0.950184 13.006C1.45231 11.5674 2.149 10.187 3.02528 8.89442C4.50895 6.65378 6.5171 4.71604 8.91666 3.20958C10.7291 2.0824 12.7413 1.22706 14.8716 0.678314L16.1199 0.398622C16.4873 0.323674 16.8588 0.265327 17.233 0.223811C17.8131 0.129341 18.4004 0.0732404 18.99 0.0559887L20.0793 0.0210351C20.2031 0.00636441 20.328 -0.000655051 20.4529 4.80123e-05Z" fill="#407BFF"/>
<path d="M24.9848 16.3064H23.5139L20.3337 12.3767V9.79648C20.3337 9.79648 18.0598 9.67061 18.3301 13.048C18.6005 16.4253 18.3301 15.5652 18.3301 15.5652C18.3301 15.5652 13.5041 15.5652 13.1066 15.9498C12.7091 16.3344 12.6852 20.432 12.6296 22.7185C12.5991 23.2697 12.7789 23.814 13.1405 24.265C13.5021 24.7161 14.0246 25.0479 14.6252 25.2078C14.7935 25.2488 14.9673 25.27 15.142 25.2707C16.3504 25.2707 22.4962 24.4106 22.4962 24.4106H25.0325L24.9848 16.3064Z" fill="#407BFF"/>
<path d="M29.1906 15.6141L28.2843 24.4525H25.7719V15.7959L29.1906 15.6141Z" fill="#407BFF"/>
</svg>
