<svg width="81" height="13" viewBox="0 0 81 13" fill="none" xmlns="http://www.w3.org/2000/svg">
<path d="M79.1942 12.17C79.3528 12.1535 79.51 12.1282 79.6649 12.0941C79.883 12.0331 80.084 11.9321 80.2544 11.7977C80.4247 11.6633 80.5608 11.4986 80.6533 11.3145C80.7763 11.0359 80.8246 10.7361 80.7945 10.4383C80.7945 10.1003 80.7945 9.74843 80.7945 9.34138C80.7945 8.54798 80.7945 7.6304 80.7945 6.58174V2.20081C80.832 1.88364 80.7522 1.56429 80.567 1.29013C80.3689 1.01408 80.066 0.808747 79.712 0.710606C79.3216 0.646837 78.9237 0.625982 78.5275 0.648516H67.2393L1.85583 0.434646C1.50414 0.435376 1.16471 0.548406 0.90066 0.752715C0.636613 0.957023 0.465917 1.2387 0.420293 1.54539C0.420293 2.2353 0.420293 2.92521 0.420293 3.61512C0.420293 4.99494 0.420293 6.37476 0.420293 7.75457C0.420293 8.44448 0.420293 9.13439 0.420293 9.8243C0.391081 10.1444 0.406887 10.4665 0.467358 10.7833C0.561302 11.0648 0.763775 11.3087 1.04 11.4732C1.32796 11.6386 1.66973 11.7161 2.01272 11.694H5.42504L22.7848 11.7768L52.178 11.9354L71.993 12.0734L77.3822 12.1286H71.993H52.178L22.7848 12.0527L5.42504 11.9906H2.01272C1.58807 12.0158 1.16593 11.9163 0.812516 11.7078C0.455572 11.4903 0.195069 11.171 0.0751355 10.804C0.0048269 10.4534 -0.0162509 10.0966 0.0123784 9.74152C0.0123784 9.05161 0.0123784 8.3617 0.0123784 7.67179C0.0123784 6.29197 0.0123784 4.91215 0.0123784 3.53233C0.0123784 2.84242 0.0123784 2.15252 0.0123784 1.42812C0.0678358 1.0342 0.284994 0.671676 0.623024 0.408686C0.961053 0.145697 1.39667 0.000355639 1.84798 0L67.2315 0.317352L78.5196 0.393253C78.94 0.370575 79.3619 0.396075 79.7747 0.469133C80.1823 0.586252 80.5261 0.832048 80.7396 1.15904C80.9425 1.46292 81.0304 1.81564 80.9906 2.1663C80.9906 2.49056 80.9906 2.81483 80.9906 3.12529C80.9906 4.37402 80.9906 5.51927 80.9906 6.57484C80.9906 7.6304 80.9906 8.52038 80.9906 9.33447C80.9906 9.72772 80.9906 10.0934 80.9906 10.4314C81.0207 10.74 80.9642 11.0504 80.8259 11.3352C80.7241 11.5256 80.5768 11.6944 80.394 11.8301C80.2113 11.9658 79.9973 12.0653 79.7669 12.1217C79.583 12.1771 79.3868 12.1936 79.1942 12.17Z" fill="#E0E0E0"/>
</svg>
