<svg width="30" height="24" viewBox="0 0 30 24" fill="none" xmlns="http://www.w3.org/2000/svg">
<path d="M18.9983 14H18.03L17.6868 13.73C18.888 12.59 19.6112 11.11 19.6112 9.5C19.6112 5.91 16.0444 3 11.6441 3C7.24389 3 3.67712 5.91 3.67712 9.5C3.67712 13.09 7.24389 16 11.6441 16C13.6175 16 15.4315 15.41 16.8288 14.43L17.1598 14.71V15.5L23.2882 20.49L25.1145 19L18.9983 14ZM11.6441 14C8.59216 14 6.12851 11.99 6.12851 9.5C6.12851 7.01 8.59216 5 11.6441 5C14.6961 5 17.1598 7.01 17.1598 9.5C17.1598 11.99 14.6961 14 11.6441 14Z" fill="#475568"/>
</svg>
