<svg width="4" height="4" viewBox="0 0 4 4" fill="none" xmlns="http://www.w3.org/2000/svg">
<path d="M3.99516 1.88148C4.01426 2.1222 3.97683 2.36379 3.88522 2.59125C3.79361 2.81871 3.64976 3.02717 3.46262 3.20364C3.27549 3.38011 3.04907 3.52084 2.79744 3.61705C2.54582 3.71327 2.27437 3.76293 2 3.76293C1.72562 3.76293 1.45418 3.71327 1.20255 3.61705C0.950931 3.52084 0.72451 3.38011 0.537373 3.20364C0.350236 3.02717 0.206391 2.81871 0.114778 2.59125C0.0231644 2.36379 -0.0142504 2.1222 0.00485478 1.88148C-0.0142504 1.64075 0.0231644 1.39914 0.114778 1.17168C0.206391 0.944216 0.350236 0.735759 0.537373 0.559286C0.72451 0.382813 0.950931 0.242089 1.20255 0.145873C1.45418 0.049658 1.72562 0 2 0C2.27437 0 2.54582 0.049658 2.79744 0.145873C3.04907 0.242089 3.27549 0.382813 3.46262 0.559286C3.64976 0.735759 3.79361 0.944216 3.88522 1.17168C3.97683 1.39914 4.01426 1.64075 3.99516 1.88148Z" fill="#407BFF"/>
</svg>
