<svg width="45" height="50" viewBox="0 0 45 50" fill="none" xmlns="http://www.w3.org/2000/svg">
<path opacity="0.4" d="M44.9308 24.9737C44.9355 29.9197 43.6217 34.7561 41.1557 38.871C38.6896 42.9859 35.1822 46.1943 31.0771 48.0902C26.9721 49.9862 22.4539 50.4845 18.0942 49.5222C13.7346 48.5598 9.72945 46.18 6.58555 42.6838C3.44166 39.1877 1.30031 34.7324 0.432447 29.8816C-0.435414 25.0308 0.00921994 20.0025 1.71009 15.4329C3.41095 10.8634 6.29161 6.958 9.98757 4.21086C13.6835 1.46371 18.0287 -0.00169412 22.4733 3.85827e-05C25.4226 -0.00573336 28.3439 0.636157 31.0699 1.88894C33.7959 3.14172 36.2729 4.98078 38.3591 7.30072C40.4453 9.62065 42.0997 12.3759 43.2274 15.4085C44.3551 18.4412 44.9339 21.6916 44.9308 24.9737Z" fill="black"/>
</svg>
