<svg width="81" height="13" viewBox="0 0 81 13" fill="none" xmlns="http://www.w3.org/2000/svg">
<path d="M79.2572 12.0791C79.4156 12.062 79.5728 12.0367 79.7278 12.0033C79.9469 11.9419 80.1485 11.84 80.319 11.7043C80.4895 11.5687 80.6249 11.4024 80.7161 11.2168C80.8396 10.9383 80.888 10.6384 80.8573 10.3407C80.8573 10.0096 80.8573 9.65089 80.8573 9.25078C80.8573 8.45057 80.8573 7.53997 80.8573 6.49141V2.11092C80.8948 1.79377 80.815 1.47446 80.6298 1.20032C80.4364 0.919174 80.1321 0.710466 79.7749 0.61396C79.3842 0.552645 78.9864 0.534107 78.5905 0.558771H67.3034L1.92624 0.344921C1.57458 0.345651 1.2352 0.45866 0.971176 0.662948C0.707154 0.867237 0.536462 1.1489 0.490843 1.45557C0.490843 2.11092 0.490843 2.83525 0.490843 3.5251C0.490843 4.90478 0.490843 6.28447 0.490843 7.66415C0.490843 8.354 0.490843 9.04384 0.490843 9.73368C0.461624 10.0561 0.477427 10.3804 0.537903 10.6995C0.635837 10.9792 0.837403 11.222 1.11049 11.3893C1.40023 11.551 1.74058 11.6283 2.08311 11.6101H3.17338H5.44021L22.7983 11.6859L52.1886 11.8446L72.0018 11.9826L77.3904 12.0378H72.0018H52.1886L22.7826 12.0102L5.42452 11.955H2.01252C1.58827 11.9771 1.16727 11.8779 0.812437 11.6721C0.455528 11.4547 0.19505 11.1354 0.0751282 10.7684C0.00482643 10.4179 -0.0162494 10.0611 0.0123772 9.70608C0.0123772 9.01624 0.0123772 8.3264 0.0123772 7.63655C0.0123772 6.25687 0.0123772 4.87718 0.0123772 3.4975C0.0123772 2.80765 0.0123772 2.11781 0.0123772 1.42797C0.0696107 1.03351 0.288343 0.670924 0.627631 0.408078C0.966919 0.145233 1.40351 0.00015705 1.85565 0L67.2328 0.317322L78.5199 0.393205C78.9402 0.370528 79.3621 0.396037 79.7749 0.469088C80.1824 0.586196 80.5261 0.831967 80.7397 1.15893C80.9426 1.46278 81.0305 1.81547 80.9906 2.16611C80.9906 2.49033 80.9906 2.80766 80.9906 3.12499C80.9906 4.3736 80.9906 5.51874 80.9906 6.5742C80.9906 7.62966 80.9906 8.51956 80.9906 9.33357C80.9906 9.72678 80.9906 10.0924 80.9906 10.4304C81.0192 10.7389 80.9627 11.0489 80.8259 11.3341C80.7241 11.5245 80.5768 11.6932 80.3941 11.829C80.2113 11.9647 79.9975 12.0641 79.767 12.1205C79.5956 12.133 79.4231 12.119 79.2572 12.0791Z" fill="#E0E0E0"/>
</svg>
