<svg width="65" height="69" viewBox="0 0 65 69" fill="none" xmlns="http://www.w3.org/2000/svg">
<path d="M45.7405 14.3849L41.7219 15.6476L39.9973 11.0289C36.8292 2.51216 26.7319 -2.01045 17.4538 0.865079C8.17581 3.74061 3.23637 13.0809 6.40448 21.5977L8.12898 26.2164L4.09473 27.486C2.55639 28.0108 1.30715 29.0367 0.606688 30.3506C-0.0937786 31.6645 -0.191598 33.1653 0.33357 34.541L11.5156 64.5934C11.7477 65.2744 12.1331 65.9074 12.6489 66.4548C13.1646 67.0023 13.8003 67.453 14.518 67.7801C15.2357 68.1072 16.0209 68.3041 16.8268 68.3591C17.6328 68.4141 18.4431 68.3261 19.2096 68.1003L60.8554 54.9991C62.414 54.4753 63.681 53.4402 64.3897 52.1117C65.0984 50.7831 65.1937 49.2646 64.6555 47.8755L53.4657 17.8231C53.2276 17.144 52.8363 16.5141 52.3153 15.9709C51.7943 15.4276 51.1542 14.9823 50.4332 14.6614C49.7122 14.3405 48.9251 14.1506 48.1189 14.1031C47.3126 14.0556 46.5038 14.1514 45.7405 14.3849ZM13.997 19.1888C13.1428 16.9744 13.2961 14.555 14.4249 12.4378C15.5537 10.3205 17.5703 8.66958 20.0523 7.83086C21.2779 7.46207 22.5754 7.31418 23.8674 7.39602C25.1593 7.47786 26.4193 7.78774 27.5722 8.30719C28.725 8.82663 29.7471 9.54498 30.5774 10.4194C31.4077 11.2938 32.0292 12.3064 32.4048 13.3966L34.1215 18.0153L15.7137 23.8075L13.997 19.1888ZM37.4067 45.8578L40.2627 53.5305C40.3151 53.6843 40.2982 53.85 40.2154 53.9932C40.1325 54.1363 39.9902 54.2459 39.8179 54.2991L35.8148 55.555C35.6555 55.5939 35.4853 55.577 35.3398 55.5079C35.1944 55.4388 35.0849 55.3229 35.0345 55.1844L32.1551 47.5461C30.5674 47.47 29.044 46.9692 27.7889 46.1106C26.5338 45.252 25.6069 44.0768 25.1322 42.7421C24.4535 40.9776 24.5773 39.0506 25.4777 37.3646C26.378 35.6786 27.9851 34.3643 29.9624 33.6969C30.9387 33.4035 31.9721 33.286 33.0012 33.3514C34.0302 33.4167 35.0337 33.6636 35.9519 34.0774C36.8701 34.4911 37.6843 35.0631 38.3458 35.7594C39.0073 36.4557 39.5026 37.262 39.8023 38.1303C40.3043 39.4861 40.3459 40.9412 39.9217 42.3174C39.4976 43.6936 38.6263 44.9312 37.4145 45.8784L37.4067 45.8578Z" fill="#407BFF"/>
<path d="M41.5424 15.5653C41.5424 15.6613 34.0903 18.1251 24.8201 21.0555C15.5499 23.986 7.98853 26.3399 7.94951 26.2713C7.9105 26.2027 15.4016 23.7183 24.6796 20.781C33.9577 17.8437 41.5034 15.4761 41.5424 15.5653Z" fill="#263238"/>
<path d="M50.3913 16.828C50.4257 16.8876 50.4544 16.9495 50.4771 17.0133C50.5395 17.1505 50.6097 17.329 50.7034 17.5486C50.9063 18.0496 51.1872 18.7427 51.5383 19.6074L54.5348 27.2801C55.7833 30.5331 57.2737 34.39 58.928 38.6724C59.7083 40.8205 60.6291 43.0578 61.4874 45.4117C61.9469 46.6247 62.1453 47.9024 62.0727 49.1794C62.0065 49.8435 61.7917 50.4896 61.4406 51.0804C61.0656 51.6693 60.5648 52.1889 59.9658 52.6108C58.7602 53.3848 57.4221 53.9848 56.0018 54.3883L51.9831 55.6579L44.375 58.053L31.4919 62.0884L22.7913 64.7786L20.4503 65.4649L19.826 65.6433C19.7593 65.6694 19.6881 65.6857 19.6153 65.6914C19.6153 65.6914 19.6778 65.6914 19.8104 65.609L20.4191 65.3963L22.76 64.6208L31.4138 61.8207L44.2735 57.703L51.8661 55.2873L55.8847 54.0108C57.2647 53.6238 58.564 53.042 59.7317 52.2883C60.2891 51.8968 60.7554 51.4144 61.1051 50.8677C61.4355 50.3212 61.6347 49.7209 61.6903 49.1039C61.7622 47.8735 61.5716 46.6422 61.1285 45.4735C60.2858 43.1401 59.3962 40.8822 58.5925 38.7342C56.9694 34.4449 55.4711 30.5743 54.2851 27.3213C53.099 24.0683 52.1002 21.4535 51.4135 19.6143C51.0857 18.7153 50.836 18.0153 50.6332 17.5074L50.4459 16.9584C50.4223 16.9168 50.404 16.8731 50.3913 16.828Z" fill="#263238"/>
<path d="M28.4174 7.3642C28.4174 7.3642 28.0038 7.18577 27.2391 6.91125C26.1491 6.5429 24.9963 6.33874 23.8291 6.30732C22.0991 6.25515 20.3774 6.54111 18.7882 7.14459C16.8556 7.89605 15.2032 9.11152 14.0204 10.6515C12.8298 12.1871 12.1909 14.0018 12.1867 15.8604C12.2029 17.3838 12.4657 18.8973 12.967 20.3555C13.3728 21.6046 13.7941 22.5997 14.0751 23.2928C14.2408 23.6449 14.3764 24.0074 14.4808 24.3772C14.2592 24.048 14.0736 23.701 13.9268 23.3409C13.6069 22.6546 13.1465 21.6801 12.6939 20.4242C12.1383 18.9506 11.8359 17.4124 11.7965 15.8604C11.7757 13.9315 12.4295 12.0437 13.6693 10.4525C14.8933 8.85625 16.6133 7.60319 18.6243 6.84262C20.2631 6.23583 22.0385 5.96817 23.8135 6.06026C25.006 6.11371 26.1774 6.3579 27.2703 6.78086C27.5625 6.89942 27.8442 7.03706 28.1131 7.19263C28.2241 7.23552 28.3267 7.29341 28.4174 7.3642Z" fill="#263238"/>
<path d="M28.7763 34.2184C28.9009 34.1521 29.0314 34.0947 29.1665 34.0469C29.5571 33.8918 29.9616 33.7656 30.376 33.6694C31.0337 33.4987 31.7121 33.3973 32.397 33.3674C33.3286 33.3234 34.2607 33.4472 35.136 33.7312C37.1336 34.3488 38.9673 36.14 39.8725 38.5352C40.3066 39.8205 40.3066 41.1891 39.8725 42.4744C39.3912 43.8695 38.5285 45.1395 37.3599 46.1735L37.4067 45.9882C38.4445 48.4931 39.576 51.2108 40.7465 54.0452L40.8167 54.2167L40.6216 54.2785L38.8347 54.8001L34.9331 55.9462L34.738 56.0011L34.6755 55.8295C33.6065 52.9883 32.436 50.3392 31.5543 47.7382L31.7259 47.8549C30.2004 47.7434 28.7459 47.2399 27.5434 46.4068C26.4554 45.6699 25.5633 44.733 24.9293 43.6617C24.3573 42.7116 24.0724 41.6482 24.1022 40.5734C24.1383 39.475 24.4501 38.3972 25.0154 37.4171C25.5806 36.4371 26.3853 35.5792 27.3717 34.9047C27.7778 34.6148 28.2334 34.3832 28.7217 34.2184C28.2809 34.4484 27.8538 34.6981 27.442 34.9665C26.3584 35.7728 25.5282 36.8101 25.0308 37.9793C24.6039 38.8609 24.4042 39.8147 24.446 40.7723C24.4878 41.7298 24.7701 42.6673 25.2727 43.5176C25.8961 44.5482 26.7667 45.4474 27.8243 46.1529C28.9715 46.9447 30.3583 47.4221 31.8118 47.5255H31.9444L31.9835 47.6284C32.8418 50.1814 34.0201 52.851 35.1047 55.706L34.8472 55.5962L38.7488 54.4501L40.528 53.9216L40.4031 54.155C39.2405 51.3206 38.1168 48.5961 37.0868 46.0911V45.9882L37.1804 45.9058C38.3148 44.9148 39.1607 43.6976 39.6462 42.3578C40.0601 41.1282 40.0601 39.8196 39.6462 38.5901C38.7957 36.2841 37.0399 34.5341 35.136 33.9165C34.2932 33.6306 33.3934 33.4976 32.4907 33.5253C31.8166 33.5389 31.1465 33.6194 30.493 33.7655C29.3304 34.0194 28.7841 34.2527 28.7763 34.2184Z" fill="#263238"/>
</svg>
