<svg width="120" height="229" viewBox="0 0 120 229" fill="none" xmlns="http://www.w3.org/2000/svg">
<path opacity="0.3" d="M119.919 3.22803V225.519C119.919 225.982 119.836 226.442 119.675 226.869C119.513 227.296 119.276 227.684 118.978 228.008C118.68 228.332 118.327 228.587 117.94 228.757C117.552 228.927 117.138 229.01 116.721 228.999H2.85628C2.47737 229.005 2.10127 228.926 1.75053 228.766C1.3998 228.607 1.08165 228.37 0.815151 228.07C0.548656 227.77 0.339303 227.413 0.19965 227.021C0.0599961 226.629 -0.00708585 226.21 0.00242618 225.788V2.9409C-0.0122303 2.56849 0.039628 2.19655 0.155 1.84659C0.270371 1.49664 0.446965 1.17562 0.674562 0.902113C0.902159 0.628609 1.17624 0.408058 1.48094 0.25321C1.78564 0.0983614 2.11491 0.0122986 2.4497 0H30.9179C31.3146 0.0089572 31.7001 0.148424 32.0257 0.400818C32.3513 0.653213 32.6024 1.00723 32.7475 1.41824L33.9281 4.65498C34.0727 5.06569 34.3239 5.41915 34.6498 5.67022C34.9757 5.92129 35.3614 6.05857 35.7577 6.06453H84.2342C84.6292 6.06229 85.0146 5.92849 85.3407 5.68038C85.6667 5.43226 85.9186 5.08119 86.0638 4.67238L87.2444 1.42695C87.3883 1.01431 87.6389 0.658436 87.9646 0.404416C88.2903 0.150397 88.6764 0.00965564 89.074 0H117.136C117.887 0.0250223 118.6 0.377232 119.12 0.980896C119.641 1.58456 119.928 2.39145 119.919 3.22803Z" fill="black"/>
</svg>
