<svg width="32" height="32" viewBox="0 0 32 32" fill="none" xmlns="http://www.w3.org/2000/svg">
<path d="M9.6 16C12.695 16 15.2 12.8688 15.2 9C15.2 5.13125 12.695 2 9.6 2C6.505 2 4 5.13125 4 9C4 12.8688 6.505 16 9.6 16ZM13.44 18H13.025C11.985 18.625 10.83 19 9.6 19C8.37 19 7.22 18.625 6.175 18H5.76C2.58 18 0 21.225 0 25.2V27C0 28.6562 1.075 30 2.4 30H16.8C18.125 30 19.2 28.6562 19.2 27V25.2C19.2 21.225 16.62 18 13.44 18ZM24 16C26.65 16 28.8 13.3125 28.8 10C28.8 6.6875 26.65 4 24 4C21.35 4 19.2 6.6875 19.2 10C19.2 13.3125 21.35 16 24 16ZM26.4 18H26.21C25.515 18.3 24.78 18.5 24 18.5C23.22 18.5 22.485 18.3 21.79 18H21.6C20.58 18 19.64 18.3687 18.815 18.9625C20.035 20.6062 20.8 22.7875 20.8 25.2V27.6C20.8 27.7375 20.775 27.8688 20.77 28H29.6C30.925 28 32 26.6562 32 25C32 21.1313 29.495 18 26.4 18Z" fill="#3362CC"/>
</svg>
