<svg width="32" height="32" viewBox="0 0 32 32" fill="none" xmlns="http://www.w3.org/2000/svg">
<path d="M7.54129 27.3053C7.34985 27.4718 7.1149 27.5802 6.86401 27.6178C6.61311 27.6554 6.3567 27.6206 6.12488 27.5176C5.89305 27.4145 5.69543 27.2475 5.55521 27.0361C5.415 26.8247 5.33801 26.5776 5.33329 26.324V23.3333C4.62605 23.3333 3.94777 23.0524 3.44767 22.5523C2.94758 22.0522 2.66663 21.3739 2.66663 20.6666V11.3333C2.66663 10.6261 2.94758 9.94779 3.44767 9.44769C3.94777 8.9476 4.62605 8.66665 5.33329 8.66665H20C20.7072 8.66665 21.3855 8.9476 21.8856 9.44769C22.3857 9.94779 22.6666 10.6261 22.6666 11.3333V20.6666C22.6666 21.3739 22.3857 22.0522 21.8856 22.5523C21.3855 23.0524 20.7072 23.3333 20 23.3333H13.3373L7.54129 27.3053ZM24 16.6893C23.9957 16.8533 23.9957 17.0173 24 17.1813V16.688C24.0066 16.5453 24.008 14.7586 24.0053 11.3293C24.0042 10.2691 23.5823 9.25275 22.8323 8.50347C22.0823 7.75419 21.0655 7.33331 20.0053 7.33331H9.33329V5.99998C9.33329 5.29274 9.61424 4.61446 10.1143 4.11436C10.6144 3.61426 11.2927 3.33331 12 3.33331H26.6666C27.3739 3.33331 28.0521 3.61426 28.5522 4.11436C29.0523 4.61446 29.3333 5.29274 29.3333 5.99998V15.3333C29.3333 16.0406 29.0523 16.7188 28.5522 17.2189C28.0521 17.719 27.3739 18 26.6666 18V20.9906C26.6619 21.2443 26.5849 21.4913 26.4447 21.7028C26.3045 21.9142 26.1069 22.0812 25.875 22.1842C25.6432 22.2873 25.3868 22.322 25.1359 22.2844C24.885 22.2468 24.6501 22.1384 24.4586 21.972L24 21.6573V16.6893Z" fill="#3362CC"/>
</svg>
