<svg width="81" height="13" viewBox="0 0 81 13" fill="none" xmlns="http://www.w3.org/2000/svg">
<path d="M79.5936 12.1564C79.752 12.1423 79.9077 12.1098 80.0564 12.0598C80.2735 11.9851 80.4623 11.8581 80.6011 11.6934C80.7398 11.5286 80.8229 11.3328 80.8409 11.1284C80.8409 10.0314 80.8409 8.43083 80.8409 6.37489C80.8409 5.34692 80.8409 4.19476 80.8409 2.92532C80.8409 2.61486 80.8409 2.2906 80.8409 1.96634C80.892 1.6517 80.8141 1.33133 80.6212 1.06256C80.5132 0.933691 80.3727 0.828611 80.2108 0.755586C80.0488 0.682561 79.8697 0.643582 79.6877 0.641713H78.464H67.1287L1.51736 0.427842C1.34942 0.425332 1.18328 0.458514 1.03305 0.524577C0.882824 0.590639 0.752954 0.687631 0.654475 0.807296C0.465042 1.07716 0.392619 1.39805 0.45051 1.71108C0.45051 2.40099 0.45051 3.09091 0.45051 3.78082C0.45051 5.16065 0.45051 6.54047 0.45051 7.9203C0.45051 8.61021 0.45051 9.30012 0.45051 9.99004C0.417968 10.3114 0.417968 10.6346 0.45051 10.9559C0.49172 11.0937 0.568317 11.2213 0.674392 11.3289C0.780468 11.4366 0.913194 11.5214 1.06238 11.5768C1.21695 11.6309 1.38245 11.6568 1.54875 11.6527H5.54159L22.9642 11.7355L52.4595 11.8942L72.3453 12.0322L77.7501 12.0874H79.1543C79.4759 12.0874 79.6328 12.0874 79.6328 12.0874H79.1543H77.7501H72.3453H52.4595L22.9642 12.0046L5.54159 11.9425H1.54875C1.329 11.9503 1.10984 11.9174 0.905492 11.8459C0.698938 11.7684 0.515246 11.6504 0.368422 11.5009C0.221598 11.3515 0.11552 11.1745 0.0582858 10.9835C0.0128759 10.8024 -0.00297033 10.6166 0.0112207 10.4316V9.92104C0.0112207 9.23113 0.0112207 8.54121 0.0112207 7.8513C0.0112207 6.47148 0.0112207 5.09165 0.0112207 3.71182C0.0112207 3.02191 0.0112207 2.332 0.0112207 1.64208C-0.00374025 1.45834 -0.00374025 1.27389 0.0112207 1.09015C0.0406153 0.887207 0.12986 0.694556 0.27009 0.531325C0.405415 0.364791 0.58452 0.229506 0.792139 0.137006C0.999758 0.0445056 1.22974 -0.00245947 1.46246 9.92165e-05L67.0738 0.317453L78.4091 0.386449H79.6328C79.8484 0.386595 80.0608 0.432443 80.252 0.520113C80.4432 0.607784 80.6075 0.734692 80.7311 0.890082C80.9522 1.19003 81.0415 1.5506 80.9821 1.90426C80.9821 2.22851 80.9821 2.55277 80.9821 2.86323C80.9821 4.11888 80.9821 5.27103 80.9821 6.3128C80.9821 8.38254 80.9272 9.96933 80.9115 11.0732C80.8923 11.2854 80.8046 11.4884 80.6587 11.6583C80.5127 11.8282 80.3147 11.9579 80.0878 12.0322C79.9394 12.1131 79.7682 12.1561 79.5936 12.1564Z" fill="#E0E0E0"/>
</svg>
