<svg width="53" height="222" viewBox="0 0 53 222" fill="none" xmlns="http://www.w3.org/2000/svg">
<path d="M28.1858 34.4651C32.6491 35.2379 36.9797 50.5379 38.8603 51.8317C40.7408 53.1255 39.1256 37.5042 39.1256 37.5042L42.6993 36.9746C42.6993 36.9746 46.9285 60.5237 40.7564 60.35C36.0746 60.2198 30.4564 51.4757 29.0519 47.0212L28.1858 34.4651Z" fill="#EBB376"/>
<path opacity="0.1" d="M40.7564 60.2892C37.9083 60.211 34.7169 56.9548 32.3448 53.412C30.9888 51.4439 29.8906 49.2717 29.0831 46.9603L28.6228 40.5346L28.1858 34.4563C32.6491 35.2291 36.9797 50.5291 38.8603 51.8229C40.7408 53.1167 39.1256 37.4954 39.1256 37.4954L42.6993 36.9658C42.6993 36.9658 46.9285 60.4628 40.7564 60.2892Z" fill="black"/>
<path opacity="0.2" d="M32.3448 53.4119C30.9888 51.4438 29.8906 49.2716 29.0831 46.9602L28.6228 40.5345C28.6228 40.5345 33.4918 45.9877 32.3448 53.4119Z" fill="black"/>
<path d="M11.7527 2.82286C11.7527 2.82286 3.80147 2.71866 4.18382 14.884C4.56616 27.0493 12.2131 27.2143 9.6459 30.731C11.9266 31.8072 14.3786 32.3618 16.8559 32.3618C19.3331 32.3618 21.7851 31.8072 24.0658 30.731C24.0658 30.731 22.6535 30.1145 23.3245 27.8829C23.9956 25.6513 27.6786 22.4558 28.0063 17.7495C28.334 13.0431 19.977 1.6072 11.7527 2.82286Z" fill="#263238"/>
<path d="M19.6103 26.1116C19.6103 26.1116 29.7542 24.0189 28.061 13.2863C26.672 4.49012 22.9812 1.66804 19.6103 0.40896C18.1584 -0.135334 16.5864 -0.136344 15.134 0.406085C13.6815 0.948514 12.4283 2.00463 11.5654 3.41339C11.5654 3.41339 4.6832 1.24256 5.87706 13.8334C7.07091 26.4242 14.5462 31.8599 19.6103 26.1116Z" fill="#263238"/>
<path d="M38.1034 205.952L33.5933 203.382L35.2319 195.879L36.7456 189.011L42.4262 191.077L40.1399 198.953L38.1034 205.952Z" fill="#EBB376"/>
<path d="M32.337 202.201C32.6023 201.645 38.6574 205.552 38.6574 205.552C38.6574 205.552 40.5535 212.039 43.8542 215.104C47.1548 218.169 43.9478 219.489 39.7732 217.179L29.4421 211.448C26.5159 209.79 29.5903 208.001 32.337 202.201Z" fill="#263238"/>
<path d="M40.7096 208.852C40.0536 208.262 39.4641 207.585 38.9539 206.838C38.9499 206.818 38.9499 206.797 38.9539 206.777C38.9501 206.751 38.9501 206.724 38.9539 206.699C38.9502 206.681 38.9502 206.664 38.9539 206.647C38.9602 206.615 38.9769 206.587 39.0007 206.568C39.0553 206.508 40.3038 205.179 41.3416 205.257C41.4942 205.269 41.6429 205.316 41.7775 205.397C41.9121 205.478 42.0296 205.59 42.1219 205.726C42.2205 205.828 42.2878 205.961 42.3144 206.108C42.341 206.254 42.3256 206.406 42.2702 206.542C42.0829 206.898 41.4899 207.011 40.8344 207.037C41.3476 207.208 41.8073 207.536 42.1609 207.984C42.2204 208.077 42.2615 208.183 42.2817 208.296C42.3018 208.408 42.3006 208.523 42.278 208.635C42.1921 209.104 41.9658 209.251 41.7942 209.295C41.5957 209.308 41.397 209.276 41.2103 209.2C41.0237 209.123 40.8532 209.005 40.7096 208.852ZM39.5781 207.037C40.3038 207.984 41.2792 209.008 41.6928 208.895C41.7318 208.895 41.841 208.895 41.8956 208.557C41.9071 208.497 41.9069 208.435 41.8947 208.375C41.8826 208.315 41.8589 208.258 41.8254 208.21C41.5055 207.671 40.3506 207.263 39.5781 207.037ZM41.6537 205.813C41.5421 205.723 41.4091 205.672 41.2714 205.665C40.6232 205.742 40.0137 206.046 39.5313 206.534C40.6315 206.655 41.7708 206.603 41.9268 206.299C41.9737 206.204 41.8722 206.039 41.802 205.943C41.7583 205.892 41.7084 205.848 41.6537 205.813Z" fill="#407BFF"/>
<path opacity="0.2" d="M40.0853 199.109L35.185 196.027L36.7144 189.08L42.4184 191.112L40.0853 199.109Z" fill="black"/>
<path d="M30.1443 212.221H24.9866L23.5118 204.84L22.1697 198.076L28.2014 197.051L29.2314 205.083L30.1443 212.221Z" fill="#EBB376"/>
<path d="M23.2855 211.995C23.2855 211.362 30.3082 211.857 30.3082 211.857C30.3082 211.857 34.6076 216.719 38.7822 217.813C42.9568 218.907 40.6237 221.695 35.9576 221.695H24.3857C21.0538 221.695 23.145 218.551 23.2855 211.995Z" fill="#263238"/>
<path d="M33.9522 213.845C32.9437 213.705 31.9645 213.373 31.0573 212.864L30.9948 212.812V212.768C30.9793 212.715 30.9793 212.657 30.9948 212.603C30.9948 212.534 31.6113 210.719 32.5554 210.276C32.6973 210.203 32.8517 210.165 33.008 210.165C33.1643 210.165 33.3188 210.203 33.4606 210.276C33.7805 210.45 33.9288 210.667 33.921 210.936C33.921 211.344 33.3982 211.752 32.8285 212.091C33.3544 211.985 33.8965 212.052 34.3891 212.282C34.4794 212.337 34.5589 212.411 34.6232 212.501C34.6875 212.59 34.7352 212.693 34.7637 212.803C34.8213 212.949 34.8356 213.112 34.8048 213.268C34.7739 213.424 34.6995 213.565 34.592 213.671C34.4036 213.811 34.1771 213.872 33.9522 213.845ZM31.6971 212.734C32.7271 213.211 34.038 213.645 34.3345 213.341C34.3345 213.341 34.4516 213.237 34.3813 212.933C34.3685 212.875 34.3444 212.821 34.3107 212.775C34.277 212.728 34.2345 212.69 34.1863 212.664C33.6791 212.334 32.4852 212.534 31.6971 212.734ZM32.9456 210.589C32.8487 210.591 32.7533 210.615 32.6647 210.658C32.1166 211.06 31.6962 211.643 31.463 212.325C32.5008 211.891 33.4996 211.283 33.5152 210.936C33.5152 210.823 33.367 210.728 33.2733 210.676C33.1718 210.618 33.0595 210.588 32.9456 210.589Z" fill="#407BFF"/>
<path opacity="0.2" d="M29.247 205.249L23.5274 204.988L22.1775 198.146L28.2092 197.086L29.247 205.249Z" fill="black"/>
<path d="M4.99533 77.1348L17.6595 74.8771L29.1377 72.2721L32.2589 93.1121C32.2589 93.1121 48.4189 119.162 52.336 137.084C56.2531 155.007 41.5601 196.583 41.5601 196.583L34.8105 193.257C34.8105 193.257 39.4923 153.27 39.3831 148.468C39.3128 145.342 30.0975 130.928 23.6522 121.211C23.465 123.651 25.5562 147.973 25.5562 147.973L30.1053 201.289H21.6001C-7.64551 100.224 4.99533 77.1348 4.99533 77.1348Z" fill="#263238"/>
<path opacity="0.6" d="M21.6001 201.254H30.0741L25.525 147.939C25.525 147.939 23.4494 123.452 23.621 121.177C24.8929 123.096 26.2741 125.188 27.6708 127.35C33.3436 136.129 39.2972 145.915 39.3753 148.425C39.4845 153.235 34.8027 193.222 34.8027 193.222L41.5523 196.548C41.5523 196.548 56.2453 154.955 52.3282 137.041C48.4111 119.127 32.2511 93.0774 32.2511 93.0774L29.1299 72.2374L17.6518 74.8424L4.98751 77.1001C4.98751 77.1001 -7.64551 100.224 21.6001 201.254Z" fill="white"/>
<path d="M34.4282 189.862L44.3926 193.682L42.1687 197.486L33.9834 194.229L34.4282 189.862Z" fill="#407BFF"/>
<path d="M20.3828 199.978L31.0417 198.354L30.5111 202.782L21.7093 204.015L20.3828 199.978Z" fill="#407BFF"/>
<path opacity="0.2" d="M23.621 121.177C24.8929 123.096 26.2741 125.188 27.6708 127.35C25.4391 114.482 22.8095 101.952 22.8095 101.952C22.4763 108.374 22.7483 114.817 23.621 121.177Z" fill="black"/>
<path d="M28.9115 73.0883L5.80682 74.8684C5.80682 74.8684 5.49471 61.0966 3.65321 53.9329C3.40351 52.969 3.13041 51.9618 2.82609 50.8851C2.39693 49.3742 1.90532 47.7504 1.34351 45.979C1.21086 45.5622 0.875333 44.5202 0.469578 43.3132C0.148663 42.3498 0.0847314 41.3038 0.285457 40.3009C0.486183 39.2981 0.943025 38.3811 1.60102 37.6604C2.24168 36.9462 3.05491 36.4545 3.94191 36.245C5.64296 35.8282 7.32061 35.4374 8.23355 35.2811C11.6947 34.6701 15.1869 34.3017 18.6895 34.1783C21.6547 34.1783 24.9319 34.3694 26.8046 34.517L28.4277 34.6559C28.4277 34.6559 29.1611 34.8383 29.6293 39.6228C30.0507 44.1207 29.8478 56.7289 28.9115 73.0883Z" fill="#407BFF"/>
<path d="M17.9327 39.675C12.1038 38.5027 10.4652 35.6199 10.4652 35.6199C14.3667 31.9208 11.5888 24.9741 11.5888 24.9741L18.6115 26.8411C18.396 27.9248 18.2525 29.0248 18.1824 30.132C17.9093 34.8992 19.8444 35.0555 19.8444 35.0555C20.9134 37.6691 17.9327 39.675 17.9327 39.675Z" fill="#EBB376"/>
<path opacity="0.2" d="M18.5569 26.7976C18.3413 27.8813 18.1979 28.9813 18.1277 30.0886C14.7647 29.0205 11.5654 24.9307 11.5654 24.9307L18.5569 26.7976Z" fill="black"/>
<path d="M18.0419 4.5248C24.1673 5.14131 25.8449 8.98802 25.7278 16.0649C25.5796 24.9045 23.3245 30.9742 15.8102 28.3258C5.60395 24.7396 7.85902 3.50885 18.0419 4.5248Z" fill="#EBB376"/>
<path d="M21.8342 15.2834C22.2437 16.3539 22.7677 17.3656 23.3948 18.2965C23.1918 18.5589 22.9281 18.7542 22.6323 18.8614C22.3365 18.9686 22.02 18.9834 21.7171 18.9044L21.8342 15.2834Z" fill="#D58745"/>
<path d="M18.0887 14.3544C18.0887 14.9101 17.7532 15.3443 17.4177 15.3269C17.0821 15.3096 16.8402 14.8233 16.8715 14.2589C16.9027 13.6945 17.207 13.269 17.5425 13.2864C17.878 13.3037 18.1199 13.79 18.0887 14.3544Z" fill="#263238"/>
<path d="M17.3943 13.3038L18.5257 12.9043C18.5257 12.9043 17.9327 13.8943 17.3943 13.3038Z" fill="#263238"/>
<path d="M24.3701 14.7018C24.3311 15.2576 24.0346 15.6917 23.6991 15.6657C23.3635 15.6396 23.1138 15.1707 23.1529 14.6063C23.1919 14.0419 23.4806 13.6077 23.8239 13.6338C24.1672 13.6598 24.4013 14.1374 24.3701 14.7018Z" fill="#263238"/>
<path d="M23.6756 13.625L24.8071 13.2255C24.8071 13.2255 24.175 14.2415 23.6756 13.625Z" fill="#263238"/>
<path d="M15.662 10.716C15.5898 10.7137 15.5206 10.6829 15.4669 10.6291C15.4154 10.568 15.3866 10.4872 15.3866 10.4034C15.3866 10.3195 15.4154 10.2388 15.4669 10.1776C15.8743 9.78333 16.3584 9.49968 16.8811 9.349C17.4037 9.19832 17.9507 9.18473 18.4789 9.30928C18.5153 9.3184 18.5497 9.33541 18.5801 9.35933C18.6106 9.38325 18.6365 9.41362 18.6565 9.44869C18.6764 9.48377 18.6899 9.52286 18.6962 9.56376C18.7026 9.60465 18.7017 9.64652 18.6935 9.687C18.6853 9.72748 18.67 9.76577 18.6485 9.79968C18.627 9.83359 18.5997 9.86246 18.5682 9.88464C18.5367 9.90681 18.5015 9.92185 18.4648 9.92892C18.428 9.93598 18.3904 9.93493 18.354 9.9258C17.9213 9.82319 17.4733 9.8308 17.0436 9.94809C16.6139 10.0654 16.2136 10.2893 15.8727 10.6031C15.8469 10.6377 15.8147 10.6656 15.7784 10.6851C15.742 10.7046 15.7023 10.7151 15.662 10.716Z" fill="#263238"/>
<path d="M25.2831 10.9157C25.2182 10.9139 25.1555 10.8896 25.1036 10.8463C24.8209 10.5477 24.4805 10.3251 24.1086 10.1957C23.7366 10.0662 23.343 10.0333 22.9578 10.0995C22.8854 10.1182 22.8094 10.1052 22.7455 10.0632C22.6815 10.0211 22.6346 9.95328 22.6144 9.87372C22.5953 9.79429 22.605 9.70964 22.6415 9.63812C22.678 9.5666 22.7384 9.51398 22.8095 9.49167C23.282 9.39986 23.7671 9.43043 24.2272 9.58103C24.6873 9.73162 25.11 9.99817 25.4625 10.36C25.4914 10.3861 25.5154 10.4183 25.533 10.4547C25.5506 10.4912 25.5616 10.5311 25.5652 10.5723C25.5689 10.6135 25.5651 10.6551 25.5542 10.6947C25.5432 10.7343 25.5254 10.771 25.5016 10.8028C25.4753 10.839 25.442 10.868 25.4041 10.8875C25.3662 10.9071 25.3248 10.9168 25.2831 10.9157Z" fill="#263238"/>
<path d="M10.4106 15.3616C10.4106 15.3616 13.7269 10.0387 13.641 5.671C13.641 5.671 26.235 1.32934 25.7278 15.1445C25.7278 15.1445 27.8971 3.08337 17.3864 1.75482C6.87582 0.426275 5.52591 17.5932 10.5588 23.246C10.5588 23.2374 8.35059 18.6786 10.4106 15.3616Z" fill="#263238"/>
<path d="M11.2923 16.8899C11.2954 16.4965 11.2288 16.1062 11.0964 15.7415C10.9639 15.3767 10.7682 15.0445 10.5204 14.7639C10.2726 14.4833 9.97758 14.2598 9.65213 14.1061C9.32669 13.9524 8.97723 13.8715 8.62371 13.8681C6.70417 13.9115 5.4479 18.1577 10.0907 19.6772C10.7539 19.8943 11.1987 19.191 11.2923 16.8899Z" fill="#EBB376"/>
<path d="M21.1241 22.0825C20.3759 22.1236 19.6362 21.8913 19.0177 21.421C18.3993 20.9506 17.936 20.2681 17.6986 19.4775C17.6877 19.4393 17.6837 19.3991 17.6869 19.3592C17.69 19.3193 17.7002 19.2805 17.7169 19.2449C17.7336 19.2094 17.7564 19.178 17.784 19.1523C17.8117 19.1266 17.8436 19.1073 17.878 19.0955C17.9134 19.0834 17.9505 19.0792 17.9873 19.0832C18.0241 19.0872 18.0599 19.0992 18.0925 19.1185C18.1251 19.1379 18.154 19.1642 18.1774 19.196C18.2009 19.2278 18.2185 19.2645 18.2292 19.3039C18.4368 19.9907 18.8459 20.58 19.3907 20.9769C19.9356 21.3737 20.5846 21.5552 21.2333 21.4921C21.3066 21.4872 21.3786 21.5145 21.434 21.5681C21.4895 21.6216 21.5238 21.6972 21.5298 21.7786C21.5341 21.8601 21.5096 21.9403 21.4615 22.002C21.4134 22.0636 21.3455 22.1019 21.2723 22.1086L21.1241 22.0825Z" fill="#263238"/>
<path d="M25.6342 13.217C25.5751 13.2164 25.5176 13.1952 25.47 13.1562C25.4223 13.1172 25.387 13.0625 25.3689 12.9999C22.9812 4.31655 13.8361 5.67115 13.7503 5.68852C13.7144 5.69422 13.6779 5.69201 13.6428 5.682C13.6077 5.672 13.5747 5.6544 13.5457 5.63021C13.5168 5.60602 13.4923 5.57572 13.4739 5.54102C13.4554 5.50633 13.4433 5.46793 13.4382 5.42802C13.433 5.38811 13.435 5.34747 13.444 5.30841C13.453 5.26936 13.4688 5.23265 13.4906 5.2004C13.5123 5.16815 13.5395 5.14098 13.5707 5.12044C13.6019 5.0999 13.6364 5.08639 13.6723 5.08069C13.7659 5.08069 23.3713 3.64795 25.8995 12.8175C25.9102 12.8563 25.9139 12.897 25.9102 12.9374C25.9066 12.9778 25.8957 13.0169 25.8783 13.0525C25.8608 13.0881 25.8371 13.1195 25.8086 13.1447C25.7801 13.17 25.7473 13.1886 25.7123 13.1996L25.6342 13.217Z" fill="#263238"/>
<path d="M41.4977 27.8829C41.4977 27.8829 44.7203 27.8221 44.8296 28.4473C44.9388 29.0725 44.7281 34.3259 44.299 35.064C43.8311 35.731 43.2942 36.3344 42.6993 36.8614L43.0115 46.1699L41.0919 46.9167L39.3519 38.3984C39.3519 38.3984 37.3777 36.2536 37.9551 33.5357C38.5325 30.8178 41.4977 27.8829 41.4977 27.8829Z" fill="#EBB376"/>
<path opacity="0.1" d="M41.4977 27.8829C41.4977 27.8829 44.7203 27.8221 44.8296 28.4473C44.9388 29.0725 44.7281 34.3259 44.299 35.064C43.8311 35.731 43.2942 36.3344 42.6993 36.8614L43.0115 46.1699L41.0919 46.9167L39.3519 38.3984C39.3519 38.3984 37.3777 36.2536 37.9551 33.5357C38.5325 30.8178 41.4977 27.8829 41.4977 27.8829Z" fill="black"/>
<path d="M36.0278 32.4679C36.0252 32.5458 36.0377 32.6234 36.0643 32.6955C36.0908 32.7676 36.131 32.8325 36.182 32.886C36.2329 32.9394 36.2936 32.9801 36.3598 33.0053C36.4261 33.0306 36.4965 33.0398 36.5662 33.0323L42.0283 32.5634C42.1804 32.5471 42.3223 32.4707 42.4282 32.348C42.5341 32.2254 42.5971 32.0646 42.6057 31.8948L42.9958 19.7381C43.0001 19.655 42.9891 19.5718 42.9637 19.4936C42.9382 19.4153 42.8988 19.3436 42.8477 19.2827C42.7967 19.2218 42.7351 19.1731 42.6667 19.1395C42.5982 19.1058 42.5244 19.0879 42.4496 19.0869L36.9875 19.5558C36.8289 19.5909 36.6855 19.6846 36.5807 19.8217C36.4759 19.9588 36.4158 20.1313 36.4101 20.3112L36.0278 32.4679Z" fill="#263238"/>
<path opacity="0.5" d="M37.0188 20.1896L36.6598 32.4504C36.6494 32.523 36.6544 32.5973 36.6745 32.6673C36.6946 32.7373 36.7292 32.8011 36.7755 32.8535C36.8218 32.9059 36.8786 32.9454 36.9412 32.9689C37.0038 32.9924 37.0704 32.9992 37.1358 32.9888L41.7786 32.5893C42.0907 32.5893 42.6525 32.3202 42.6603 31.9728L43.0505 19.6773C43.0505 19.3299 42.5121 19.1041 42.1999 19.1302L37.5182 19.5296C37.3747 19.5472 37.2428 19.6255 37.1498 19.7484C37.0568 19.8712 37.0099 20.0292 37.0188 20.1896Z" fill="white"/>
<path d="M30.4564 41.6894L32.5398 36.2797C32.5398 36.2797 33.2187 29.0291 33.5464 28.2476C33.8742 27.4661 39.1802 27.7614 39.7888 27.718C40.3975 27.6745 40.257 34.9077 39.703 35.6719C39.149 36.436 36.9797 37.0438 36.9797 37.0438L33.6479 44.2336L30.4564 41.6894Z" fill="#EBB376"/>
<path d="M24.5886 38.7546C24.0268 41.238 21.8654 43.1483 17.3943 43.0962C14.859 43.0483 12.4017 42.1125 10.3716 40.4218C8.75578 39.1004 7.35678 37.4789 6.236 35.6286C6.88365 35.4983 7.53908 35.3855 8.19454 35.2726C11.6557 34.6615 15.1479 34.2932 18.6506 34.1698C20.4999 34.1698 22.4584 34.2306 24.1126 34.3261C24.6928 35.7076 24.8597 37.2598 24.5886 38.7546Z" fill="#EBB376"/>
<path d="M5.74441 72.9234L4.77685 77.6298L29.7152 76.171L28.9973 71.5254L5.74441 72.9234Z" fill="#263238"/>
<path d="M19.9146 76.9437C19.6838 76.945 19.4607 76.8506 19.2891 76.6788C19.1174 76.507 19.0094 76.2702 18.9861 76.0146L18.6974 73.0102C18.6745 72.7251 18.753 72.4415 18.9159 72.22C18.9969 72.1125 19.0968 72.0247 19.2096 71.962C19.3223 71.8992 19.4454 71.8629 19.5713 71.8553L23.2075 71.5774C23.4522 71.5582 23.6939 71.6465 23.8807 71.8235C24.0675 72.0005 24.1844 72.252 24.2063 72.5239L24.456 75.4849C24.4785 75.7632 24.403 76.0403 24.2453 76.2578C24.1652 76.3642 24.0665 76.4514 23.9551 76.5141C23.8438 76.5768 23.7222 76.6137 23.5976 76.6225L19.9927 76.9437H19.9146ZM19.4777 72.9147L19.7586 75.9191C19.7644 75.9644 19.7852 76.0055 19.817 76.0345C19.8488 76.0634 19.8892 76.078 19.9302 76.0754L23.5352 75.7628C23.5566 75.7598 23.5773 75.7521 23.5961 75.7402C23.6148 75.7283 23.6313 75.7123 23.6445 75.6933C23.6722 75.6572 23.6862 75.6105 23.6835 75.5631L23.426 72.6021C23.425 72.5796 23.4199 72.5576 23.4111 72.5374C23.4022 72.5172 23.3897 72.4992 23.3744 72.4846C23.359 72.4699 23.3411 72.4589 23.3218 72.4523C23.3025 72.4456 23.2822 72.4434 23.2621 72.4458L19.6259 72.7236C19.6035 72.7226 19.5811 72.7276 19.5608 72.7382C19.5404 72.7487 19.5226 72.7646 19.5089 72.7844C19.5009 72.805 19.4968 72.8272 19.4968 72.8495C19.4968 72.8719 19.5009 72.8941 19.5089 72.9147H19.4777Z" fill="white"/>
<path d="M23.3948 74.4083H22.0526C21.9492 74.4083 21.8499 74.3625 21.7768 74.2811C21.7036 74.1997 21.6625 74.0893 21.6625 73.9741C21.6645 73.8597 21.7062 73.7505 21.779 73.6696C21.8517 73.5886 21.9498 73.5422 22.0526 73.5399H23.3948C23.4976 73.5422 23.5957 73.5886 23.6684 73.6696C23.7412 73.7505 23.7829 73.8597 23.7849 73.9741C23.7849 74.0893 23.7438 74.1997 23.6706 74.2811C23.5975 74.3625 23.4982 74.4083 23.3948 74.4083Z" fill="white"/>
<path opacity="0.2" d="M9.18552 53.0038C6.97728 53.8722 4.50373 52.3526 2.82609 50.8851C2.39693 49.3742 1.90532 47.7504 1.34351 45.979C1.21086 45.5622 0.875333 44.5202 0.469578 43.3132C0.148663 42.3499 0.0847314 41.3038 0.285457 40.301C0.486183 39.2981 0.943025 38.3811 1.60102 37.6604C5.84584 42.1149 12.135 51.8837 9.18552 53.0038Z" fill="black"/>
<path d="M1.54641 37.0699C1.9891 36.6728 2.50049 36.3814 3.04876 36.2137C3.59703 36.0461 4.17044 36.0058 4.7333 36.0954C5.29617 36.185 5.83643 36.4026 6.32048 36.7345C6.80452 37.0665 7.222 37.5058 7.54691 38.0251C10.9724 43.4869 16.7232 52.5696 17.4177 53.0125C18.4087 53.655 25.8839 45.9877 32.5477 36.2624L36.6286 37.999C36.6286 37.999 26.0868 62.1213 18.6037 62.2255C12.9934 62.3036 4.55837 49.6433 0.727109 43.2785C0.136111 42.3189 -0.107823 41.1466 0.0440622 39.9956C0.195948 38.8447 0.73246 37.7998 1.54641 37.0699Z" fill="#EBB376"/>
<path opacity="0.2" d="M9.18553 81.4851C9.18553 81.4851 7.2816 87.2422 2.5764 89.3001V91.3667C2.5764 91.3667 9.47423 88.1018 10.4418 82.6834L9.18553 81.4851Z" fill="black"/>
<path opacity="0.2" d="M3.83267 111.807L10.4418 110.427L12.018 125.206L5.68978 126.23L4.77685 116.609L10.4886 115.706L10.1609 112.059L10.0673 115.298L3.64541 116.444L3.83267 111.807Z" fill="black"/>
</svg>
