<svg width="4" height="3" viewBox="0 0 4 3" fill="none" xmlns="http://www.w3.org/2000/svg">
<path d="M3.40639 1.60971C3.38196 1.9026 3.26031 2.18273 3.05652 2.41537C2.85273 2.64801 2.57578 2.82292 2.26001 2.9184C1.94424 3.01389 1.60354 3.02575 1.28017 2.95251C0.956806 2.87928 0.664994 2.72418 0.440936 2.50643C0.216879 2.28868 0.0704366 2.01786 0.0197587 1.72759C-0.0309192 1.43732 0.0163963 1.14035 0.155852 0.873513C0.295308 0.606676 0.52077 0.381719 0.804256 0.226532C1.08774 0.0713456 1.41678 -0.00724175 1.75058 0.000524772C2.21182 0.0231285 2.64434 0.204762 2.95431 0.506003C3.26428 0.807245 3.42671 1.20382 3.40639 1.60971Z" fill="#407BFF"/>
</svg>
