<svg width="14" height="14" viewBox="0 0 14 14" fill="none" xmlns="http://www.w3.org/2000/svg">
<path d="M13.2959 7.00192C13.1103 7.00192 12.9324 7.07565 12.8011 7.20689C12.6699 7.33812 12.5962 7.51611 12.5962 7.70171V11.9004C12.5962 12.086 12.5224 12.264 12.3912 12.3953C12.26 12.5265 12.082 12.6002 11.8964 12.6002H2.09936C1.91376 12.6002 1.73577 12.5265 1.60454 12.3953C1.4733 12.264 1.39957 12.086 1.39957 11.9004V2.10342C1.39957 1.91782 1.4733 1.73983 1.60454 1.60859C1.73577 1.47736 1.91376 1.40363 2.09936 1.40363H6.29808C6.48367 1.40363 6.66167 1.3299 6.7929 1.19867C6.92414 1.06743 6.99786 0.889439 6.99786 0.703844C6.99786 0.518249 6.92414 0.340256 6.7929 0.20902C6.66167 0.0777849 6.48367 0.0040576 6.29808 0.0040576H2.09936C1.54257 0.0040576 1.00859 0.22524 0.614888 0.618946C0.221182 1.01265 0 1.54663 0 2.10342V11.9004C0 12.4572 0.221182 12.9912 0.614888 13.3849C1.00859 13.7786 1.54257 13.9998 2.09936 13.9998H11.8964C12.4532 13.9998 12.9871 13.7786 13.3808 13.3849C13.7745 12.9912 13.9957 12.4572 13.9957 11.9004V7.70171C13.9957 7.51611 13.922 7.33812 13.7908 7.20689C13.6595 7.07565 13.4815 7.00192 13.2959 7.00192ZM2.79915 7.53376V10.5009C2.79915 10.6864 2.87287 10.8644 3.00411 10.9957C3.13534 11.1269 3.31334 11.2006 3.49893 11.2006H6.46603C6.55812 11.2012 6.64942 11.1835 6.73468 11.1487C6.81994 11.1139 6.89749 11.0626 6.96287 10.9977L11.8054 6.14818L13.7928 4.20278C13.8584 4.13772 13.9104 4.06033 13.946 3.97505C13.9815 3.88977 13.9998 3.79831 13.9998 3.70593C13.9998 3.61355 13.9815 3.52208 13.946 3.43681C13.9104 3.35153 13.8584 3.27413 13.7928 3.20908L10.8257 0.206996C10.7606 0.141406 10.6832 0.0893457 10.598 0.0538184C10.5127 0.0182912 10.4212 0 10.3288 0C10.2365 0 10.145 0.0182912 10.0597 0.0538184C9.97445 0.0893457 9.89705 0.141406 9.832 0.206996L7.8586 2.18739L3.00208 7.03691C2.93723 7.1023 2.88591 7.17985 2.85109 7.26511C2.81627 7.35037 2.79861 7.44166 2.79915 7.53376ZM10.3288 1.69054L12.3092 3.67094L11.3155 4.66464L9.33515 2.68424L10.3288 1.69054ZM4.19872 7.82067L8.34845 3.67094L10.3288 5.65133L6.17911 9.80107H4.19872V7.82067Z" fill="#27374D"/>
</svg>
