<svg width="112" height="191" viewBox="0 0 112 191" fill="none" xmlns="http://www.w3.org/2000/svg">
<path d="M37.9838 187.796V181.93L26.0247 181.855L25.9232 190.726L26.6644 190.774C29.9642 190.959 43.4524 191.234 45.668 190.63C48.1331 189.958 37.9838 187.796 37.9838 187.796Z" fill="#407BFF"/>
<path d="M45.9488 190.081C45.9488 190.177 41.471 190.26 35.9555 190.26C30.4401 190.26 25.9623 190.177 25.9623 190.081C25.9623 189.985 30.4401 189.903 35.9555 189.903C41.471 189.903 45.9488 189.985 45.9488 190.081Z" fill="#263238"/>
<path d="M38.1945 188.997C38.093 188.949 38.1945 188.641 38.4363 188.311C38.6781 187.982 39.0058 187.845 39.0838 187.913C39.1618 187.982 38.998 188.243 38.7639 188.524C38.5299 188.805 38.2959 189.045 38.1945 188.997Z" fill="#263238"/>
<path d="M38.959 189.381C38.8497 189.381 38.9044 188.997 39.1384 188.634C39.3724 188.27 39.6845 188.05 39.7703 188.105C39.8561 188.16 39.7157 188.469 39.4972 188.791C39.2788 189.114 39.0604 189.416 38.959 189.381Z" fill="#263238"/>
<path d="M29.5664 190.054C29.5196 190.054 29.3402 189.93 29.0827 189.67C28.7685 189.334 28.4184 189.027 28.0373 188.75C27.6626 188.487 27.2163 188.314 26.7424 188.249C26.3757 188.208 26.1417 188.249 26.1183 188.208C26.0949 188.167 26.3211 188.023 26.7502 187.996C27.3164 187.985 27.8688 188.15 28.3104 188.462C28.7242 188.759 29.0731 189.119 29.3402 189.526C29.5196 189.827 29.6132 190.026 29.5664 190.054Z" fill="#263238"/>
<path d="M38.2335 187.893C38.2881 187.975 38.0852 188.181 37.742 188.291C37.3987 188.4 37.0945 188.359 37.0789 188.291C37.0633 188.222 37.3051 188.078 37.6016 187.982C37.898 187.886 38.1711 187.81 38.2335 187.893Z" fill="#263238"/>
<path d="M38.0462 187.323C38.0462 187.426 37.7342 187.508 37.3285 187.515C36.9229 187.522 36.603 187.44 36.6108 187.344C36.6186 187.248 36.9385 187.158 37.3285 187.152C37.7186 187.145 38.0306 187.227 38.0462 187.323Z" fill="#263238"/>
<path d="M67.4332 187.796V181.93L55.474 181.855L55.3726 190.637L56.1137 190.685C59.4136 190.87 72.9096 191.234 75.1173 190.63C77.5825 189.958 67.4332 187.796 67.4332 187.796Z" fill="#407BFF"/>
<path d="M75.3982 190.095C75.3982 190.191 70.9281 190.273 65.4049 190.273C59.8817 190.273 55.4194 190.191 55.4194 190.095C55.4194 189.999 59.8895 189.917 65.4049 189.917C70.9203 189.917 75.3982 189.999 75.3982 190.095Z" fill="#263238"/>
<path d="M67.6438 188.997C67.5502 188.949 67.6438 188.641 67.8857 188.311C68.1275 187.982 68.4552 187.845 68.5332 187.913C68.6112 187.982 68.4474 188.243 68.2133 188.524C67.9793 188.805 67.7453 189.045 67.6438 188.997Z" fill="#263238"/>
<path d="M68.4083 189.381C68.3069 189.381 68.3537 188.997 68.5956 188.634C68.8374 188.27 69.1417 188.05 69.2275 188.105C69.3133 188.16 69.1651 188.469 68.9466 188.791C68.7282 189.114 68.5176 189.416 68.4083 189.381Z" fill="#263238"/>
<path d="M59.0157 190.054C58.9689 190.054 58.7973 189.93 58.5321 189.67C58.2178 189.334 57.8678 189.027 57.4867 188.75C57.112 188.487 56.6656 188.314 56.1917 188.249C55.8329 188.208 55.591 188.249 55.5676 188.208C55.5442 188.167 55.7705 188.023 56.1995 187.996C56.7658 187.985 57.3181 188.15 57.7598 188.462C58.1756 188.757 58.525 189.117 58.7895 189.526C58.9689 189.827 59.0625 190.026 59.0157 190.054Z" fill="#263238"/>
<path d="M67.6828 187.893C67.7375 187.975 67.5346 188.181 67.1914 188.291C66.8481 188.4 66.5439 188.359 66.5283 188.291C66.5127 188.222 66.7545 188.078 67.051 187.982C67.3474 187.886 67.6204 187.81 67.6828 187.893Z" fill="#263238"/>
<path d="M67.5112 187.323C67.5112 187.426 67.1991 187.508 66.7935 187.515C66.3878 187.522 66.0758 187.44 66.0836 187.344C66.0914 187.248 66.4034 187.158 66.7935 187.152C67.1835 187.145 67.5112 187.227 67.5112 187.323Z" fill="#263238"/>
<path d="M111.494 13.5952C111.182 13.3139 110.41 13.4512 110.41 13.4512C110.487 13.0561 110.487 12.6524 110.41 12.2573C110.269 11.8731 109.286 11.9486 109.286 11.9486C109.241 11.6251 109.241 11.2979 109.286 10.9743C109.294 10.9026 109.277 10.8305 109.236 10.7679C109.196 10.7053 109.134 10.6552 109.06 10.6244C108.595 10.4576 108.096 10.3782 107.594 10.3911C106.993 10.0138 109.427 7.01552 110.332 6.05498C111.237 5.09444 111.073 4.34659 110.269 4.34659C109.715 4.34659 106.876 7.22822 106.002 8.19562C105.128 9.16303 102.811 11.8525 102.733 9.70504C102.655 7.55755 101.672 5.93835 101.056 5.66391C100.44 5.38947 99.7846 6.03439 100.12 6.6313C100.415 7.30945 100.599 8.02093 100.666 8.7445C100.751 9.32087 100.722 9.90579 100.58 10.4735C100.322 11.5298 99.9695 12.5666 99.5271 13.5747H99.4647C99.4647 13.5747 82.4426 27.9348 81.21 28.9571C80.1101 29.8764 57.986 27.8662 53.5471 27.4545C52.0388 27.2604 50.5156 27.1686 48.9913 27.1801C47.0644 27.2555 46.7211 27.4957 44.802 27.5162C39.9555 27.5636 35.1203 27.9374 30.3387 28.6346C28.1736 28.9583 26.1512 29.7988 24.4921 31.0644C22.833 32.3299 21.601 33.9719 20.9305 35.8112C16.4604 48.0924 6.33453 77.1626 4.54806 93.4918C3.19812 95.6448 1.97942 97.8595 0.897126 100.126C-0.35886 103.132 -0.0546149 103.234 0.366648 103.303C1.50562 103.488 2.80061 98.0955 3.28428 99.3991C3.76795 100.703 0.826918 105.828 2.02049 105.979C3.58073 106.171 4.82111 100.49 4.96933 100.037C5.11755 99.5844 5.88987 99.7285 5.74945 100.154C5.52321 100.758 3.33109 107.159 4.86012 107.365C5.70264 107.475 5.79625 106.123 5.79625 106.123C5.79625 106.123 7.35649 99.996 8.06639 100.12C8.7763 100.243 8.01958 103.859 7.66073 105.066C7.30187 106.274 7.80114 106.885 8.53445 106.589C9.03373 106.384 10.2273 102.713 10.555 101.519C10.8826 100.325 11.7017 97.0184 12.8017 98.9326C13.9016 100.847 15.5711 101.958 16.2576 101.986C16.4123 101.97 16.5581 101.914 16.6763 101.825C16.7945 101.736 16.8796 101.617 16.9207 101.485C16.9618 101.353 16.957 101.213 16.907 101.084C16.8569 100.954 16.7639 100.84 16.6399 100.758C16.0494 100.25 15.5426 99.6731 15.1342 99.0424C14.7703 98.551 14.5063 98.0078 14.3541 97.4369C14.0398 96.2988 13.8568 95.1356 13.808 93.9652L13.6832 93.2791C15.4307 85.6702 20.4624 63.3376 27.7253 49.0736L30.7053 54.4663L32.0003 58.4594L24.0588 75.7012L57.9314 75.3101L52.8762 58.1987L59.0157 40.3601C65.6545 40.4904 82.7001 40.71 85.5397 39.5779C89.1126 38.2057 107.594 17.6775 107.594 17.6775C108.798 16.8543 109.952 15.9748 111.049 15.0429C111.049 15.0429 112.173 14.2127 111.494 13.5952Z" fill="#FFBE9D"/>
<path d="M22.5687 62.9604C23.5517 60.0101 28.599 45.4236 28.599 45.4236C28.599 45.4236 31.0798 57.3137 30.4245 58.7477C29.8217 59.9753 29.1096 61.159 28.2948 62.288C22.5687 69.9517 23.3177 73.787 23.3177 73.787L57.9158 72.8608C57.9938 68.607 55.1308 58.7134 54.5379 57.1353C53.945 55.5573 55.9187 50.391 55.9187 50.391C55.9187 50.391 59.8193 46.8987 59.6788 45.1011C59.6048 43.4864 59.3777 41.8799 59.0001 40.2984L80.0633 40.9845L79.4002 28.4288L49.1473 25.7668C48.0941 28.3808 38.5689 27.0978 38.5689 27.0978C28.287 27.3997 27.6473 29.0601 23.3723 31.9829C19.0972 34.9056 12.0216 59.9895 12.0216 59.9895L22.5687 62.9604Z" fill="#407BFF"/>
<path d="M43.0234 59.9895C42.4238 60.0837 41.8131 60.1114 41.2057 60.0719C40.0745 60.0719 38.5221 60.0032 36.8136 59.8523C35.1052 59.7014 33.5606 59.4887 32.4606 59.2966C31.8541 59.2279 31.2594 59.0942 30.6897 58.8986C31.2997 58.8988 31.9082 58.9494 32.5074 59.0496C33.6152 59.1731 35.152 59.3446 36.8527 59.4955C38.5533 59.6465 40.0979 59.7494 41.2135 59.818C41.8216 59.8248 42.4276 59.8822 43.0234 59.9895Z" fill="#263238"/>
<path d="M45.3949 57.4028C44.7951 57.6612 44.1609 57.8525 43.507 57.9723C40.3946 58.6915 37.1836 59.0264 33.9662 58.9671C33.3005 58.9862 32.6347 58.9308 31.9847 58.8024C32.6418 58.7295 33.3041 58.6997 33.9662 58.7133C35.191 58.679 36.8761 58.6035 38.7327 58.4114C40.5894 58.2193 42.2433 57.9448 43.4134 57.7253C44.0634 57.5726 44.7259 57.4648 45.3949 57.4028Z" fill="#263238"/>
<path d="M57.0343 45.8628C57.0185 46.3859 56.9374 46.9058 56.7924 47.4133C56.5896 48.367 56.2775 49.6706 55.8797 51.0977C55.4818 52.5248 55.0996 53.8421 54.7563 54.734C54.6183 55.2446 54.4141 55.7395 54.1478 56.2092C54.1913 55.6877 54.3012 55.1722 54.4755 54.6723C54.7719 53.602 55.1074 52.367 55.4818 51.0154C55.8563 49.6638 56.2151 48.4288 56.5116 47.3585C56.6172 46.8433 56.7926 46.3411 57.0343 45.8628Z" fill="#263238"/>
<path d="M22.9354 61.2108C21.1306 60.9657 19.3495 60.601 17.6072 60.1199C15.8269 59.7538 14.0799 59.2722 12.3804 58.6791C14.1843 58.9282 15.9651 59.2928 17.7086 59.77C19.4894 60.1348 21.2365 60.6164 22.9354 61.2108Z" fill="#263238"/>
<path d="M59.3746 40.1475C59.0803 40.1921 58.7795 40.1921 58.4853 40.1475C57.6704 40.074 56.8703 39.9056 56.1059 39.6467C54.8297 39.2249 53.668 38.573 52.6953 37.7329C51.7226 36.8928 50.9605 35.883 50.4579 34.7685C49.9024 33.5424 49.6652 32.2227 49.7636 30.9057C49.7984 29.8194 50.1677 28.7618 50.8323 27.8457C51.2998 27.2285 51.998 26.7747 52.806 26.5627C53.0219 26.5103 53.2452 26.4849 53.4691 26.4872C53.6251 26.4872 53.7032 26.4872 53.7032 26.4872C53.7032 26.4872 53.3755 26.4872 52.8528 26.6725C52.1116 26.9133 51.4829 27.3648 51.0664 27.9555C50.0054 29.4237 49.709 32.1064 50.8401 34.6107C51.3666 35.7915 52.1908 36.8518 53.2507 37.7119C54.1191 38.4156 55.1194 38.982 56.2073 39.3859C57.2283 39.7408 58.2904 39.9962 59.3746 40.1475Z" fill="#263238"/>
<path d="M77.5591 40.7374C77.3639 38.6334 77.3014 36.5216 77.3719 34.4115C77.3108 32.3033 77.3837 30.1937 77.5903 28.0925C77.7856 30.1942 77.8481 32.3038 77.7775 34.4115C77.8431 36.5221 77.7702 38.6342 77.5591 40.7374Z" fill="#263238"/>
<path d="M48.9444 26.5352C49.0303 25.0052 49.2097 23.2763 49.2097 23.2763C49.2097 23.2763 53.5159 22.8577 53.7734 18.947C54.0308 15.0362 53.7734 6.01394 53.7734 6.01394L45.9722 2.5011L37.3129 8.49077L38.6469 28.0447L46.5885 28.4906C47.1955 28.5054 47.7845 28.3079 48.2261 27.9413C48.6678 27.5747 48.9261 27.0691 48.9444 26.5352Z" fill="#FFBE9D"/>
<path d="M49.7168 15.8526C49.7168 15.8526 49.7168 15.9281 49.6466 16.0173C49.5885 16.082 49.5134 16.1333 49.4278 16.1668C49.3422 16.2002 49.2486 16.2149 49.1551 16.2094C48.6558 16.2094 48.1721 15.7017 48.0005 15.1116C47.9189 14.8256 47.9189 14.5263 48.0005 14.2403C48.0165 14.1154 48.0677 13.9961 48.1494 13.893C48.2312 13.79 48.3409 13.7066 48.4686 13.6502C48.5735 13.6121 48.6913 13.6121 48.7962 13.6502C48.874 13.6842 48.937 13.7396 48.9757 13.808C49.0303 13.9247 48.9757 14.0002 48.9757 13.9933C48.9757 13.9864 48.9756 13.9247 48.8976 13.8561C48.8569 13.8069 48.7969 13.7728 48.7292 13.7601C48.6616 13.7474 48.591 13.7572 48.531 13.7875C48.4353 13.8383 48.3558 13.9097 48.2999 13.9949C48.2439 14.08 48.2134 14.1763 48.2111 14.2746C48.1455 14.5298 48.1455 14.7947 48.2111 15.0499C48.3672 15.585 48.7884 16.0173 49.1629 16.0585C49.2361 16.0672 49.3107 16.0626 49.3818 16.0449C49.4529 16.0271 49.5191 15.9967 49.5763 15.9555C49.6699 15.9007 49.7012 15.8458 49.7168 15.8526Z" fill="#EB996E"/>
<path d="M56.4492 3.90069C55.8485 2.1031 53.672 1.21117 51.6905 0.717176C48.6714 -0.0375364 45.4105 -0.366867 42.4617 0.586815C39.5129 1.5405 35.9711 3.21458 35.9711 6.07563C34.2315 5.95213 33.2329 7.29003 32.5464 8.9504C32.1075 9.96196 31.8445 11.0259 31.7663 12.1065C31.5479 15.8526 30.3543 21.0258 27.5927 23.7702C26.0325 25.3002 23.8715 26.3568 22.9822 28.2642C22.2021 29.9177 22.6078 31.8799 21.8822 33.554C21.2347 35.0291 19.8071 36.0789 18.7618 37.3619C17.6968 38.8174 17.07 40.4871 16.9404 42.2141C16.8107 43.9412 17.1825 45.6689 18.0207 47.2349C18.8649 48.7607 20.0535 50.1194 21.514 51.2282C22.9746 52.337 24.6765 53.1726 26.5161 53.6842C30.1601 54.6593 34.0459 54.6926 37.7108 53.7803C40.4613 53.2019 43.0271 52.083 45.2155 50.5076C47.4547 48.8994 48.9926 46.6596 49.5686 44.168C50.1224 41.3687 49.2331 38.5214 48.57 35.7358C46.4949 26.9331 47.0878 26.4734 49.709 18.302C49.7714 18.1579 49.8026 18.0069 49.8494 17.8629C49.8962 17.7188 49.9196 17.6502 49.9508 17.5404C50.0253 17.2174 50.0644 16.8888 50.0678 16.5593C49.685 16.6845 49.2694 16.711 48.8701 16.6356C48.4707 16.5603 48.1041 16.3862 47.8133 16.1339C47.5219 15.8649 47.3187 15.5315 47.2253 15.1691C47.1319 14.8067 47.1518 14.4288 47.2828 14.0756C47.4669 13.6892 47.7411 13.3412 48.0879 13.054C48.4346 12.7668 48.846 12.5468 49.2955 12.4084C50.1614 12.0927 51.0898 11.9281 51.9401 11.5782C53.7422 10.8235 54.9904 9.25914 55.8407 7.61936C56.5398 6.48286 56.7555 5.16445 56.4492 3.90069Z" fill="#263238"/>
<path d="M50.0288 16.0378C50.1936 16.252 50.3298 16.4822 50.4345 16.7239C50.6685 17.1561 50.9805 17.7668 51.3238 18.4734L51.3862 18.6038H51.2224L50.4423 18.6655C49.904 18.6655 49.4515 18.7547 48.921 18.7479C48.8748 18.7387 48.832 18.7195 48.7966 18.6919C48.7611 18.6643 48.7342 18.6293 48.7182 18.5901C48.695 18.5277 48.695 18.4604 48.7182 18.398C48.7363 18.3055 48.7597 18.2139 48.7884 18.1235L48.9288 17.6364C48.9994 17.3114 49.1093 16.994 49.2565 16.6896C49.242 17.0208 49.187 17.3498 49.0927 17.6707L48.9835 18.1578C48.9444 18.3225 48.8742 18.5764 48.9835 18.5558C49.3735 18.5558 49.9274 18.4803 50.4423 18.4529L51.2224 18.3911L51.121 18.542C50.7855 17.8559 50.5047 17.211 50.3409 16.765C50.1971 16.5373 50.092 16.2923 50.0288 16.0378Z" fill="#407BFF"/>
<path d="M23.3177 73.7869L57.9158 72.8607L72.972 124.552L70.2026 183.844H51.9089L54.1478 125.814L40.7688 89.8279L42.8284 186.143L24.3396 186.383L22.3971 95.8519C22.3113 93.3339 21.3752 87.6599 21.7262 85.1625L23.3177 73.7869Z" fill="#263238"/>
<path d="M45.3715 90.5622C44.8052 90.5935 44.2367 90.5636 43.6787 90.473C42.6333 90.3632 41.2057 90.1711 39.6377 89.8966C38.0696 89.6222 36.6654 89.3066 35.6513 89.0528C35.1092 88.948 34.5847 88.7819 34.0911 88.5588C34.0911 88.4558 36.6342 88.991 39.7547 89.5467C42.8752 90.1025 45.3871 90.4592 45.3715 90.5622Z" fill="#455A64"/>
<path d="M70.0154 180.592C70.0154 180.689 65.873 180.771 60.7632 180.771C55.6535 180.771 51.5032 180.689 51.5032 180.592C51.5032 180.496 55.6456 180.414 60.7632 180.414C65.8808 180.414 70.0154 180.49 70.0154 180.592Z" fill="#455A64"/>
<path d="M42.6645 183.639C42.6645 183.742 38.6391 183.817 33.6776 183.817C28.7161 183.817 24.6985 183.742 24.6985 183.639C24.6985 183.536 28.7239 183.46 33.6776 183.46C38.6313 183.46 42.6645 183.543 42.6645 183.639Z" fill="#455A64"/>
<path d="M40.2774 183.392C40.1681 183.392 39.6845 162.349 39.193 136.394C38.7015 110.439 38.4129 89.382 38.5143 89.382C38.6157 89.382 39.115 110.418 39.5987 136.387C40.0823 162.356 40.3944 183.392 40.2774 183.392Z" fill="#455A64"/>
<path d="M67.558 180.593C67.5495 180.499 67.5495 180.405 67.558 180.311V179.488C67.558 178.747 67.6204 177.683 67.6672 176.332C67.7764 173.587 67.9325 169.601 68.1275 164.716C68.5488 154.891 69.1417 141.348 69.7891 126.397C69.7891 126.253 69.7891 126.116 69.7891 125.993V126.041C65.6935 111.632 61.988 98.5553 59.2966 89.094L56.1761 77.9037C55.8173 76.5932 55.5442 75.5709 55.3492 74.8574C55.2556 74.5212 55.1932 74.2605 55.1386 74.0615C55.1082 73.9722 55.0899 73.8801 55.084 73.7871C55.1245 73.8735 55.1558 73.9631 55.1776 74.0546C55.24 74.2467 55.318 74.5075 55.4272 74.8368C55.6378 75.5229 55.9421 76.5658 56.3322 77.8694C57.1123 80.5177 58.2122 84.3324 59.5852 89.0322C62.3 98.4867 66.0446 111.53 70.1948 125.958V126.006C70.1948 126.13 70.1948 126.274 70.1948 126.411C69.5005 141.361 68.8686 154.898 68.4083 164.723C68.1665 169.615 67.9637 173.574 67.8233 176.332C67.7452 177.704 67.6828 178.747 67.6438 179.488C67.6438 179.838 67.597 180.112 67.5892 180.311C67.5904 180.406 67.5799 180.5 67.558 180.593Z" fill="#455A64"/>
<path d="M61.5901 124.785C60.2761 125.165 58.9225 125.429 57.5491 125.574C55.8641 125.828 54.4287 126.006 53.7812 126.034V125.896C53.9918 125.951 54.101 125.986 54.101 126.013C54.101 126.041 53.9684 126.013 53.75 126.013H53.2819L53.75 125.89C54.3585 125.732 55.7939 125.471 57.4789 125.203C58.8304 124.946 60.2074 124.805 61.5901 124.785Z" fill="#455A64"/>
<path d="M61.2703 126.754C60.0534 126.803 58.8341 126.755 57.6271 126.61C56.4086 126.588 55.1946 126.471 53.9996 126.26C56.4376 126.085 58.8918 126.252 61.2703 126.754Z" fill="#455A64"/>
<path opacity="0.2" d="M23.1694 74.8778C23.5792 75.3406 24.0953 75.7221 24.6841 75.9975C25.2728 76.273 25.921 76.4362 26.5863 76.4764C27.9798 76.6216 29.3892 76.5985 30.7756 76.4078C39.7079 75.5364 49.1707 74.7337 57.9158 72.8607C46.5963 73.4164 34.6371 73.2312 23.3177 73.7869L23.2006 74.6377" fill="black"/>
<g opacity="0.2">
<path d="M34.8322 88.9087L41.2135 110.686L40.7688 89.8281L34.8322 88.9087Z" fill="black"/>
</g>
</svg>
