<svg width="22" height="27" viewBox="0 0 22 27" fill="none" xmlns="http://www.w3.org/2000/svg">
<path d="M0 22.95V20.25H2.7V10.8C2.7 8.93252 3.2625 7.27291 4.38751 5.82121C5.51251 4.36951 6.97501 3.41911 8.77501 2.97001V2.02501C8.77501 1.46251 8.97211 0.984155 9.36631 0.589954C9.76051 0.195753 10.2384 -0.000896926 10.8 3.07517e-06C11.3625 3.07517e-06 11.8409 0.197103 12.2351 0.591304C12.6293 0.985505 12.8259 1.46341 12.825 2.02501V2.97001C14.625 3.42001 16.0875 4.37086 17.2125 5.82256C18.3375 7.27426 18.9 8.93342 18.9 10.8V20.25H21.6V22.95H0ZM10.8 27C10.0575 27 9.42166 26.7354 8.89246 26.2062C8.36326 25.677 8.09911 25.0416 8.10001 24.3H13.5C13.5 25.0425 13.2354 25.6784 12.7062 26.2076C12.177 26.7368 11.5416 27.0009 10.8 27Z" fill="#27374D"/>
</svg>
