<svg width="10" height="11" viewBox="0 0 10 11" fill="none" xmlns="http://www.w3.org/2000/svg">
<path d="M9.9087 6.40054V4.63487H8.49657C8.40584 4.18618 8.2447 3.75881 8.02057 3.37241L9.02017 2.26005L7.86983 0.979945L6.87023 2.09231C6.52193 1.84711 6.13811 1.67089 5.73578 1.57144V0H4.14912V1.58026C3.74725 1.68138 3.36368 1.85749 3.01466 2.10113L2.01506 0.988768L0.888549 2.25121L1.88813 3.36359C1.66399 3.74999 1.50285 4.17735 1.41212 4.62603H0V6.3917H1.41212C1.50435 6.8371 1.66542 7.26128 1.88813 7.64532L0.888549 8.7577L2.01506 10.0201L3.01466 8.90778C3.36503 9.15051 3.74801 9.32932 4.14912 9.43747V11.0001H5.73578V9.43747C6.13736 9.33095 6.52057 9.15203 6.87023 8.90778L7.86983 10.0201L8.99637 8.7577L7.99677 7.64532C8.21948 7.26128 8.38054 6.8371 8.47277 6.3917L9.9087 6.40054ZM4.95831 7.15094C4.66456 7.15093 4.37742 7.05388 4.13329 6.87209C3.88915 6.69029 3.69902 6.43193 3.58698 6.12976C3.47493 5.82758 3.44602 5.49519 3.50391 5.17471C3.5618 4.85423 3.70388 4.56008 3.91215 4.32955C4.12042 4.09903 4.38549 3.9425 4.67378 3.8798C4.96208 3.8171 5.26062 3.85105 5.53156 3.97735C5.8025 4.10366 6.03363 4.31664 6.19568 4.58929C6.35773 4.86193 6.44342 5.18198 6.44185 5.50887C6.44185 5.72525 6.40342 5.93951 6.32876 6.13931C6.25411 6.33911 6.14472 6.52053 6.00686 6.67312C5.869 6.82572 5.70538 6.94649 5.52544 7.02849C5.34549 7.11049 5.15275 7.1521 4.95831 7.15094Z" fill="white"/>
</svg>
