<svg width="8" height="8" viewBox="0 0 8 8" fill="none" xmlns="http://www.w3.org/2000/svg">
<path d="M7.32813 3.57431L5.91875 4.80431L6.34094 6.63556C6.36328 6.73129 6.3569 6.83149 6.32261 6.92362C6.28832 7.01575 6.22763 7.09572 6.14813 7.15355C6.06863 7.21137 5.97385 7.24448 5.87563 7.24873C5.77742 7.25297 5.68014 7.22818 5.59594 7.17744L3.99875 6.20869L2.405 7.17744C2.3208 7.22818 2.22352 7.25297 2.12531 7.24873C2.02709 7.24448 1.93231 7.21137 1.85281 7.15355C1.77331 7.09572 1.71262 7.01575 1.67833 6.92362C1.64404 6.83149 1.63766 6.73129 1.66 6.63556L2.08156 4.80619L0.671877 3.57431C0.597317 3.51001 0.543402 3.42512 0.516894 3.3303C0.490386 3.23547 0.492464 3.13493 0.522868 3.04128C0.553272 2.94764 0.610648 2.86505 0.687801 2.80388C0.764954 2.74271 0.85845 2.70568 0.956564 2.69744L2.81469 2.5365L3.54 0.8065C3.57788 0.715724 3.64177 0.638184 3.72362 0.583643C3.80548 0.529103 3.90164 0.5 4 0.5C4.09836 0.5 4.19453 0.529103 4.27638 0.583643C4.35824 0.638184 4.42212 0.715724 4.46 0.8065L5.1875 2.5365L7.045 2.69744C7.14312 2.70568 7.23661 2.74271 7.31376 2.80388C7.39092 2.86505 7.44829 2.94764 7.4787 3.04128C7.5091 3.13493 7.51118 3.23547 7.48467 3.3303C7.45816 3.42512 7.40425 3.51001 7.32969 3.57431H7.32813Z" fill="#3362CC"/>
</svg>
