<svg width="74" height="141" viewBox="0 0 74 141" fill="none" xmlns="http://www.w3.org/2000/svg">
<path d="M10.9418 140.345L10.9887 140.023L12.3086 122.832H17.9396L13.9174 140.345" fill="#263238"/>
<path d="M63.0503 140.345L63.0035 140.023L61.6758 122.832H56.0525L60.0747 140.345" fill="#263238"/>
<path d="M3.52229 140.345L3.56915 140.023L6.13084 122.832H11.7541L6.49791 140.345" fill="#263238"/>
<path d="M70.4698 140.345L70.4152 140.023L67.8613 122.832H62.2381L67.4942 140.345" fill="#263238"/>
<g opacity="0.2">
<path d="M3.52229 140.345L3.56915 140.023L6.13084 122.832H11.7541L6.49791 140.345" fill="white"/>
<path d="M70.4698 140.345L70.4152 140.023L67.8613 122.832H62.2381L67.4942 140.345" fill="white"/>
</g>
<path d="M70.8916 19.9288H3.10838C1.39166 19.9288 0 21.4774 0 23.3878V123.206C0 125.116 1.39166 126.665 3.10838 126.665H70.8916C72.6083 126.665 74 125.116 74 123.206V23.3878C74 21.4774 72.6083 19.9288 70.8916 19.9288Z" fill="#407BFF"/>
<path opacity="0.4" d="M70.8916 19.9288H3.10838C1.39166 19.9288 0 21.4774 0 23.3878V123.206C0 125.116 1.39166 126.665 3.10838 126.665H70.8916C72.6083 126.665 74 125.116 74 123.206V23.3878C74 21.4774 72.6083 19.9288 70.8916 19.9288Z" fill="white"/>
<path opacity="0.5" d="M70.9775 43.2038H3.01465V81.7317H70.9775V43.2038Z" fill="white"/>
<path opacity="0.5" d="M70.9775 84.2955H3.01465V122.823H70.9775V84.2955Z" fill="white"/>
<path opacity="0.5" d="M70.9775 23.7616H3.01465V40.6311H70.9775V23.7616Z" fill="white"/>
<path opacity="0.5" d="M42.5568 26.5688H31.4353C31.102 26.567 30.7757 26.4619 30.4929 26.2655C30.2102 26.069 29.9821 25.7888 29.8343 25.4563L29.0923 23.7616H44.8998L44.1188 25.4563C43.9761 25.7842 43.7547 26.0616 43.479 26.258C43.2033 26.4543 42.8841 26.5619 42.5568 26.5688Z" fill="black"/>
<path opacity="0.5" d="M42.5568 46.0023H31.4353C31.1016 46.0025 30.7745 45.8983 30.4915 45.7016C30.2084 45.5049 29.9807 45.2236 29.8343 44.8899L29.0923 43.2038H44.8998L44.1188 44.8899C43.9776 45.2189 43.7564 45.4975 43.4804 45.6941C43.2044 45.8906 42.8845 45.9974 42.5568 46.0023Z" fill="black"/>
<path opacity="0.5" d="M42.5568 87.1027H31.4353C31.1016 87.1029 30.7745 86.9987 30.4915 86.802C30.2084 86.6053 29.9807 86.324 29.8343 85.9902L29.0923 84.2955H44.8998L44.1188 85.9902C43.9776 86.3193 43.7564 86.5979 43.4804 86.7944C43.2044 86.991 42.8845 87.0978 42.5568 87.1027Z" fill="black"/>
<path d="M56.7633 8.15231L62.6364 19.9288H55.3262L56.7633 8.15231Z" fill="#407BFF"/>
<path opacity="0.2" d="M56.7633 8.15231L62.6364 19.9288H55.3262L56.7633 8.15231Z" fill="black"/>
<path d="M58.7236 19.9288H44.8998L49.2266 0H63.0503L58.7236 19.9288Z" fill="#407BFF"/>
<path opacity="0.5" d="M46.8055 18.347L50.4449 1.58174H61.1447L57.5052 18.347H46.8055Z" fill="white"/>
<path d="M18.2754 10.8552L14.8468 19.9288H24.0158L18.2754 10.8552Z" fill="#407BFF"/>
<path d="M36.9961 19.9289H19.4391L15.3154 5.77096H32.8802L36.9961 19.9289Z" fill="#407BFF"/>
<path opacity="0.2" d="M36.9961 19.9289H19.4391L15.3154 5.77096H32.8802L36.9961 19.9289Z" fill="white"/>
<path opacity="0.5" d="M20.4076 17.8864L17.471 7.81338H31.9117L34.8405 17.8864H20.4076Z" fill="white"/>
</svg>
