<svg width="3" height="3" viewBox="0 0 3 3" fill="none" xmlns="http://www.w3.org/2000/svg">
<path opacity="0.6" d="M2.69597 1.50007C2.69597 1.79675 2.61691 2.08677 2.46879 2.33345C2.32067 2.58013 2.11014 2.77241 1.86383 2.88594C1.61752 2.99948 1.3465 3.02917 1.08501 2.97129C0.82353 2.91341 0.583342 2.77055 0.394824 2.56076C0.206305 2.35098 0.0779124 2.08369 0.0259003 1.79271C-0.0261118 1.50173 0.000587939 1.20011 0.102613 0.926008C0.204639 0.651908 0.377418 0.417626 0.599092 0.252797C0.820767 0.0879687 1.08138 0 1.34799 0C1.70549 0 2.04835 0.158036 2.30115 0.439352C2.55394 0.720668 2.69597 1.10223 2.69597 1.50007Z" fill="white"/>
</svg>
