<svg width="20" height="20" viewBox="0 0 20 20" fill="none" xmlns="http://www.w3.org/2000/svg">
<path fill-rule="evenodd" clip-rule="evenodd" d="M15.1021 5.32183C15.395 5.02894 15.395 4.55407 15.1021 4.26117C14.8092 3.96828 14.3343 3.96828 14.0414 4.26117L9.6817 8.62091L5.32196 4.26117C5.02906 3.96828 4.55419 3.96828 4.2613 4.26117C3.9684 4.55407 3.9684 5.02894 4.2613 5.32183L8.62104 9.68157L4.2613 14.0413C3.9684 14.3342 3.9684 14.8091 4.2613 15.102C4.55419 15.3949 5.02906 15.3949 5.32196 15.102L9.6817 10.7422L14.0414 15.102C14.3343 15.3949 14.8092 15.3949 15.1021 15.102C15.395 14.8091 15.395 14.3342 15.1021 14.0413L10.7424 9.68157L15.1021 5.32183Z" fill="#526D82"/>
</svg>
